<?xml version="1.0" standalone="no"?>
<!DOCTYPE svg PUBLIC "-//W3C//DTD SVG 1.1//EN" "http://www.w3.org/Graphics/SVG/1.1/DTD/svg11.dtd" >
<svg xmlns="http://www.w3.org/2000/svg">
<metadata></metadata>
<defs>
<font id="halogenregular" horiz-adv-x="1097" >
<font-face units-per-em="2048" ascent="1536" descent="-512" />
<missing-glyph horiz-adv-x="1024" />
<glyph horiz-adv-x="2048" />
<glyph horiz-adv-x="2048" />
<glyph unicode="&#xd;" horiz-adv-x="1024" />
<glyph unicode=" "  horiz-adv-x="1024" />
<glyph unicode="&#x09;" horiz-adv-x="1024" />
<glyph unicode="&#xa0;" horiz-adv-x="1024" />
<glyph unicode="!" horiz-adv-x="360" d="M80 1419q0 39 21.5 51.5t52.5 12.5q35 0 56 -30t32.5 -78t14.5 -108.5t3 -122t-2 -116.5t0 -94q6 -274 6 -551q-8 -39 -31.5 -58.5t-52.5 -19.5q-31 0 -55.5 23.5t-24.5 70.5q0 172 -1 343t-9 343zM63 86q-4 53 33 81t86 28q20 0 42 -11.5t38.5 -29t26.5 -40t10 -44.5 q0 -35 -30.5 -66t-78.5 -31q-53 0 -90 30t-37 83z" />
<glyph unicode="&#x22;" horiz-adv-x="868" d="M240 1501q49 0 80.5 -9t49 -24.5t23.5 -35t4 -39.5q14 -31 2 -68l-125 -317q-14 -41 -44.5 -51.5t-59.5 0t-45 39t-2 69.5l61 158q-39 16 -57 49t-18 74q0 53 32.5 99t98.5 56zM602 1501q49 0 81 -9t49.5 -24.5t23.5 -35t4 -39.5q14 -31 2 -68l-125 -317 q-14 -41 -45 -51.5t-59.5 0t-45 39t-2.5 69.5l62 158q-39 16 -57.5 49t-18.5 74q0 53 32.5 99t98.5 56z" />
<glyph unicode="#" horiz-adv-x="1363" d="M80 391q-43 2 -62.5 27.5t-18.5 56.5t23.5 56.5t65.5 23.5l238 -10l69 299l-280 4q-43 0 -63.5 26.5t-19.5 57.5t22.5 55.5t64.5 24.5l315 -6l68 292q10 41 39.5 56.5t59.5 8.5t50.5 -33.5t10.5 -67.5l-60 -258l197 -3l69 345q8 41 38 56t59.5 9t50 -31.5t12.5 -66.5 l-63 -314l249 -4q43 0 63.5 -26.5t19.5 -57t-22.5 -55.5t-64.5 -25l-278 5l-62 -312l248 -10q43 -2 62.5 -28.5t17.5 -57.5t-23.5 -55.5t-64.5 -22.5l-272 10l-76 -385q-8 -41 -38 -57t-59.5 -10t-50 32.5t-12.5 67.5l70 359l-217 10l-76 -330q-10 -41 -40 -56.5t-59.5 -8 t-50 34t-10.5 67.5l70 299zM494 539l211 -9l61 308l-203 4z" />
<glyph unicode="$" d="M481 1636q12 35 38 51.5t51.5 13.5t47 -23.5t27.5 -57.5q0 -33 -1 -67.5t-1 -69.5q59 -23 103.5 -58.5t78.5 -76.5q27 -33 45.5 -74t18.5 -78q0 -35 -20.5 -62.5t-69.5 -37.5q-23 0 -47.5 16t-34.5 51q-6 20 -8 41t-13 39q-20 33 -55 57l-8 -391q66 -29 132 -66.5 t120.5 -86.5t88.5 -111.5t34 -138.5q0 -86 -13.5 -169t-53.5 -150.5t-115.5 -117t-198.5 -69.5q2 -63 3 -125.5t1 -130.5q-8 -41 -35 -60.5t-54.5 -16.5t-49 26.5t-21.5 66.5q0 57 -3 113.5t-7 114.5h-10q-61 0 -132 23.5t-130.5 67.5t-98.5 109.5t-39 151.5q0 23 9.5 49.5 t24.5 48t36.5 35.5t46.5 14q35 0 56.5 -21.5t21.5 -55.5q0 -23 -7.5 -32t-21.5 -38q23 -86 92.5 -139.5t149.5 -63.5v16.5t2 18.5q-2 135 -1 296t5 335q-72 27 -140.5 57.5t-121.5 73.5t-86 103.5t-33 146.5q0 80 33 140t87 101t125.5 62.5t149.5 21.5q2 33 2 64.5v62.5z M838 442q0 113 -59.5 178.5t-147.5 110.5q-4 -150 -5 -290t-1 -257v-32q96 27 154.5 98t58.5 192zM250 1186q0 -47 20.5 -80t52 -57.5t70.5 -41t76 -30.5l8 369h-6q-43 0 -83 -10.5t-70.5 -30t-49 -50t-18.5 -69.5z" />
<glyph unicode="%" horiz-adv-x="1619" d="M1229 684q10 18 28.5 31.5t47.5 13.5h16q61 -14 101 -49t64.5 -83t35 -106.5t10.5 -121.5q0 -43 -7 -85t-24 -79q-14 -33 -49 -81t-75 -92t-78.5 -76t-61.5 -32q-43 0 -90 28t-80 46q-98 53 -142 107.5t-44 146.5q0 80 27.5 149.5t73.5 124t105.5 93t120.5 61.5z M516 1360h6q94 -23 144.5 -121t50.5 -235q0 -53 -10.5 -98.5t-32.5 -74.5q-25 -31 -63 -53t-82 -37.5t-92 -22.5t-91 -7q-63 0 -110.5 26.5t-79 74.5t-48 114.5t-16.5 144.5q0 152 66.5 242t171.5 90q37 0 75.5 -8.5t81.5 -16.5zM1087 1374q33 39 74 39q31 0 53.5 -21.5 t22.5 -56.5q0 -25 -14 -51q-27 -33 -40.5 -71.5t-22.5 -78.5t-20.5 -79t-31.5 -76q-104 -174 -222 -340t-235 -332q-18 -27 -52 -81t-76 -109.5t-88 -96t-91 -40.5q-37 10 -54.5 32.5t-17.5 48.5q0 18 9.5 37t29.5 31l35 39q55 70 92 119t67 92t58.5 86t69.5 102 q86 123 176 247t164 255q20 37 30.5 77t19.5 79t22 76.5t42 72.5zM1321 225q23 27 36 79t13 106q0 37 -7 70.5t-24 56.5q-25 -16 -63 -17h-29q-37 -12 -72.5 -38.5t-64.5 -62.5t-47.5 -76t-18.5 -81q0 -35 14.5 -57.5t39 -41t56.5 -32.5t65 -31q16 29 47.5 61.5t54.5 63.5z M467 1206q-29 18 -62.5 22.5t-56.5 4.5q-47 0 -71.5 -29.5t-24.5 -120.5q0 -29 5 -66.5t17.5 -70.5t33 -55.5t50.5 -22.5q4 0 16.5 3t16.5 3q8 2 31.5 10.5t49.5 15.5t46.5 14.5t20.5 11.5q16 43 16 100q0 59 -20.5 111.5t-67.5 68.5zM1268 524h-4h4zM330 139l-2 -2z" />
<glyph unicode="&#x26;" horiz-adv-x="1196" d="M1024 203q29 -14 43 -35t14 -43q0 -29 -22.5 -53.5t-63.5 -28.5q-78 16 -122 57t-72 107q-92 -102 -208 -170t-257 -68q-57 0 -101.5 16.5t-95.5 32.5q-37 25 -52 77t-15 98q0 59 33.5 127.5t83 137t105.5 132t101 115.5q-76 92 -127 189t-51 189q0 55 24.5 107.5 t70.5 94.5t113 66.5t150 24.5q47 0 95.5 -10t88.5 -26.5t70.5 -41t44.5 -51.5q10 -18 24.5 -44.5t14.5 -45.5q0 -4 -1 -6t-1 -6q4 -12 8.5 -27.5t4.5 -34.5q0 -41 -23.5 -78.5t-56.5 -72.5t-71 -66.5t-64 -60.5l-95 -100q53 -51 106.5 -98.5t96.5 -94.5q27 49 54.5 86 t56.5 72l4 4q12 31 34.5 45t45.5 14q29 0 53.5 -21.5t24.5 -62.5q0 -23 -13.5 -47t-32 -50t-38 -51.5t-33.5 -49.5q-14 -23 -27.5 -46.5t-30.5 -46.5q16 -51 36 -98t73 -57zM426 139q90 27 165 89.5t134 138.5q-43 41 -101.5 96t-119.5 121q-25 -29 -48.5 -57.5t-45.5 -57.5 q-18 -23 -46 -57.5t-55.5 -74.5t-47 -83t-19.5 -82q0 -12 16 -19.5t38.5 -10.5t44 -4t32.5 -1h25.5t27.5 2zM391 1118q-4 -12 -4 -23.5v-23.5q0 -66 32 -128t81 -122q53 55 101 105.5t108 109.5l51 49q-4 10 -9.5 38t-17.5 40q-20 23 -64 35t-94 12q-63 0 -118.5 -22.5 t-65.5 -69.5zM778 1104l-4 -4z" />
<glyph unicode="'" horiz-adv-x="487" d="M240 1501q49 0 80.5 -9t49 -24.5t23.5 -35t4 -39.5q14 -31 2 -68l-125 -317q-14 -41 -44.5 -51.5t-59.5 0t-45 39t-2 69.5l61 158q-39 16 -57 49t-18 74q0 53 32.5 99t98.5 56z" />
<glyph unicode="(" horiz-adv-x="880" d="M709 1450q41 -4 62.5 -28.5t21.5 -53.5t-21.5 -53.5t-64.5 -28.5q-88 -8 -158 -54t-124 -115.5t-92 -156t-62.5 -171t-36 -162.5t-11.5 -133q0 -164 43 -279t115 -199t165 -145t195 -117q55 -29 56 -78q0 -29 -22.5 -52t-63.5 -27q-166 76 -288 156.5t-202 186t-119 245 t-39 333.5q0 57 15.5 149.5t49.5 197t85 211t123 190.5t164 136t209 48z" />
<glyph unicode=")" horiz-adv-x="880" d="M152 1450q115 4 208 -48t164.5 -136t122.5 -190.5t85 -211t49.5 -197t15.5 -149.5q0 -195 -39 -334t-119 -244.5t-202 -186.5t-287 -156q-41 4 -64 27.5t-23 51.5q0 49 56 78q102 55 195.5 116.5t165 145.5t114.5 199t43 279q0 55 -11.5 133t-36 162.5t-62.5 171t-92 156 t-123.5 115.5t-157.5 54q-43 4 -64.5 28.5t-21.5 53.5t21.5 53.5t62.5 28.5z" />
<glyph unicode="*" horiz-adv-x="989" d="M385 1479q0 43 23.5 65.5t52 24.5t55.5 -17.5t33 -62.5v-172q47 45 98 85t107 68q37 8 63.5 -4t37.5 -34.5t6 -52t-32 -54.5q-68 -35 -125 -85t-110 -105l49 -62q29 -33 55.5 -69.5t61.5 -65.5q31 -29 33 -61.5t-16.5 -55t-50.5 -29t-69 18.5q-31 23 -57.5 49.5 t-50.5 59.5v-148q-8 -41 -35 -60.5t-55.5 -16.5t-51 26.5t-22.5 66.5v115q-41 -39 -82 -72.5t-88 -60.5q-39 -16 -69.5 -4t-44 37.5t-6.5 57.5t44 54q49 29 94.5 76t83.5 84l66 68q-39 47 -83 83t-97 56q-31 20 -39 49t0 53.5t32.5 40t61.5 11.5q35 -14 66.5 -32t60.5 -40 v115v0z" />
<glyph unicode="+" horiz-adv-x="1177" d="M494 1116q10 37 33.5 54.5t49 17.5t49 -18.5t31.5 -55.5q0 -78 -1 -164t-3 -174q84 -2 165 -2h155q43 -4 63.5 -29.5t20.5 -54t-21.5 -53.5t-64.5 -27h-155t-165 2q-2 -84 -2 -163.5v-153.5q-4 -43 -29.5 -63.5t-54 -20.5t-53.5 21.5t-27 64.5v153.5t2 163.5 q-90 2 -174 3t-161 1q-37 10 -54.5 34t-17.5 49.5t18.5 49t55.5 31.5q78 0 162.5 -1t172.5 -3q2 90 3.5 175t1.5 163z" />
<glyph unicode="," horiz-adv-x="497" d="M240 311q49 0 80.5 -9t49 -24.5t23.5 -35t4 -39.5q14 -31 2 -68l-125 -317q-14 -41 -44.5 -51.5t-59.5 0t-45 39t-2 69.5l61 158q-39 16 -57 49t-18 74q0 53 32.5 99t98.5 56z" />
<glyph unicode="-" horiz-adv-x="806" d="M156 592q-37 10 -54.5 33.5t-17.5 49t18.5 49.5t55.5 32h473q43 -4 63.5 -30t20.5 -54.5t-21.5 -53t-64.5 -26.5h-473v0z" />
<glyph unicode="." horiz-adv-x="425" d="M195 307q57 0 89.5 -11t49 -29.5t18.5 -42t-2 -48.5q0 -61 -42 -109.5t-113 -48.5q-66 0 -99 40t-33 94q0 53 33 99t99 56z" />
<glyph unicode="/" horiz-adv-x="761" d="M516 1427q12 35 38 51.5t51.5 13.5t47 -23.5t27.5 -57.5q-6 -96 -46 -188.5t-71 -184.5q-41 -127 -88 -264t-90 -276.5t-78 -278.5t-51 -272q-8 -41 -34.5 -60.5t-55.5 -16.5t-51.5 26.5t-22.5 66.5q16 125 46 248t66 245t77 242.5t77 239.5q23 66 44.5 133.5t43.5 132.5 q23 55 44.5 109.5t25.5 113.5z" />
<glyph unicode="0" horiz-adv-x="1218" d="M651 1430q27 -4 43 -15h11q57 -10 100 -36.5t74.5 -63.5t56.5 -83t47 -97q37 -82 55.5 -127t26.5 -82t7 -81t-3 -124q-2 -90 -8 -180t-29 -179q-12 -49 -28.5 -109t-44 -114.5t-69.5 -95.5t-106 -49q-160 -23 -287.5 26.5t-215.5 147.5t-133.5 233.5t-36.5 282.5 q2 55 8 114.5t17 118t30.5 112.5t52.5 101q35 49 74 93.5t80 87.5q33 45 59.5 69.5t56 35.5t67.5 12.5t95 1.5zM676 1255q-10 2 -27 11h-22.5h-35t-33.5 1t-17 1q-27 -31 -62 -71t-69.5 -82t-62.5 -85t-38 -80q-14 -57 -23.5 -131t-8 -152.5t14.5 -158.5t43 -148.5t76 -122 t115 -77.5q47 -16 102.5 -20.5t104.5 -4.5q57 37 89 97.5t48.5 129t21.5 139t9 132.5q2 18 3 54t3 75t3 74.5t3 54.5q-23 45 -42 103.5t-44.5 112.5t-61.5 95t-89 53z" />
<glyph unicode="1" horiz-adv-x="1218" d="M172 14q-37 10 -54.5 34t-17.5 49.5t18.5 49t55.5 31.5h94.5t109.5 -1t110.5 -1h95.5q0 2 1 3t1 3q6 33 2 74q-2 51 -1 100.5t1 98.5q0 96 4 181t7 168t4 168t-3 181q-37 -37 -81 -76t-86 -74.5t-80 -66.5t-64 -49q-35 -14 -63.5 -7t-44 28.5t-14.5 51t23 58.5 q104 72 193.5 159t183.5 169l6 10q4 16 14.5 28.5t20.5 22.5q23 14 37 17t39 -1q4 0 4 -2q31 -12 44 -29.5t18 -50.5q14 -121 17 -231.5t0 -218t-9 -218t-8 -233.5q0 -23 2 -55.5t3 -68t1 -72.5t-4 -70q47 0 80.5 -1t65.5 -1h65.5h80.5q43 -4 63.5 -29.5t20.5 -54.5 t-21.5 -53.5t-64.5 -26.5q-219 0 -435 3t-435 3z" />
<glyph unicode="2" horiz-adv-x="1218" d="M262 1012q-8 -41 -34.5 -60.5t-55.5 -16.5t-51.5 26.5t-22.5 66.5q2 55 22.5 107.5t52.5 96.5t76 79t93 55q53 23 108.5 39t110.5 19t106.5 -8t98.5 -44q37 -27 77 -68.5t73.5 -91t57 -101.5t27.5 -97q8 -80 -13 -163t-59 -162t-88 -150.5t-100 -126.5 q-74 -84 -150.5 -140.5t-156.5 -109.5q41 -4 81 -6t81 -4q111 -4 218.5 1t217.5 5q43 -4 63.5 -30t20.5 -54.5t-21.5 -53t-64.5 -26.5q-111 0 -219.5 -5t-218.5 -1q-104 4 -206.5 16t-207.5 12q-53 16 -67.5 57.5t20.5 86.5q55 47 118.5 77.5t123.5 71.5q74 51 139.5 102.5 t120.5 110t97 127t71 154.5q16 45 31.5 97t7.5 99q-4 25 -18.5 45.5t-26.5 42.5q-31 51 -67 95.5t-79 69t-94 22.5t-113 -39q-23 -14 -51.5 -31.5t-55 -44t-47 -62.5t-26.5 -85z" />
<glyph unicode="3" horiz-adv-x="1218" d="M553 653q-29 6 -45 25h-21q-35 10 -53 32.5t-18 49.5t18.5 49t54.5 33q47 0 89.5 -1t76.5 -1q57 0 100.5 6t72 27.5t43 62.5t14.5 111q0 35 -11.5 76.5t-37 78.5t-68.5 62.5t-104 25.5q-51 0 -98.5 -11t-69.5 -26q-27 -18 -50.5 -26t-43 -23.5t-37 -44.5t-31.5 -84 q-23 -78 -84 -78q-31 0 -55.5 23.5t-24.5 71.5q4 39 17.5 85t34 89t48 77.5t62.5 53.5q10 4 51 11t87 13t85 10.5t45 4.5q43 6 86 6q96 0 165 -37t112 -93.5t63.5 -124t20.5 -128.5q0 -80 -17.5 -132.5t-47.5 -89t-71 -61t-88 -45.5l45 -35q31 -25 54.5 -60.5t40 -79.5 t24.5 -93t8 -96q0 -82 -25.5 -152t-82.5 -109q-6 -4 -18.5 -9t-26 -9t-22.5 -7l-9 -3l-68 -31q-47 -23 -102 -34t-109 -13q-166 0 -240.5 76t-94.5 231q0 45 24.5 67.5t54.5 22.5q29 0 53.5 -19.5t30.5 -60.5q10 -90 50.5 -122.5t95.5 -32.5q63 0 137 27.5t139 50.5 q29 49 40.5 81.5t11.5 73.5q0 70 -25 116t-64.5 75.5t-90 45t-101.5 21.5zM836 86q-2 0 -7.5 -1t-7.5 -3l13 4h2zM821 82q-2 0 -3 -1t-3 -1z" />
<glyph unicode="4" horiz-adv-x="1218" d="M834 31q-8 -39 -33 -57.5t-52.5 -18.5t-50 19.5t-28.5 56.5v-2q-4 111 -11.5 222t-13.5 222q-23 -2 -44 -2h-44q-49 2 -97 9t-98 12q-29 2 -66.5 2t-75.5 5t-70.5 20.5t-49.5 45.5q-20 41 -5.5 78t43 71t63.5 62.5t57 52.5q49 53 87 111.5t72 120t66.5 123t73.5 121.5 q20 31 44 61.5t50.5 53t59 33.5t73.5 3q23 -10 35 -20.5t23 -32.5q8 -25 4 -42.5t-12.5 -31.5t-17.5 -30.5t-13 -41.5q-6 -35 -8 -56t-4.5 -41.5t-2.5 -46.5v-69q-2 -98 3.5 -197t11.5 -198q59 4 119.5 8.5t121.5 6.5q43 -4 63.5 -30t20.5 -54.5t-21.5 -53t-64.5 -26.5 q-59 -2 -115.5 -7.5t-113.5 -9.5q8 -113 14.5 -225t6.5 -227zM391 651q61 -8 122.5 -9t123.5 1q-4 53 -5 106.5t-3 106.5q-4 55 -5 118.5t-1 125.5q-33 -59 -64 -120.5t-70 -119.5q-39 -59 -87 -108.5t-95 -98.5q23 -2 44.5 -1t39.5 -1z" />
<glyph unicode="5" horiz-adv-x="1218" d="M930 1432q41 -4 62.5 -29t21.5 -53q0 -29 -21.5 -53.5t-64.5 -28.5q-45 0 -99.5 5t-113 11t-119.5 10t-119 4q-35 0 -66.5 -2t-60.5 -6q-2 -8 -2 -24q0 -41 8.5 -82t8.5 -80q0 -29 -5.5 -54.5t-11.5 -52.5q31 27 64.5 49.5t93.5 22.5q59 0 135 -23.5t145.5 -60.5t123 -83 t69.5 -91q18 -55 25.5 -117.5t7.5 -124.5q0 -104 -6.5 -179t-30 -136t-68.5 -116.5t-123 -119.5q-20 -23 -43.5 -37t-54.5 -14q-4 0 -8 1t-8 1l-183 27q-90 10 -133 53t-66.5 100.5t-36.5 122t-40 117.5q-6 18 -6 33q0 39 24.5 61.5t55.5 22.5q23 0 42 -12.5t35 -40.5 q12 -25 23.5 -68l23 -86t24.5 -79t30 -44q25 -12 48.5 -18t48 -8.5t52 -4.5t62.5 -8l63 60q39 37 61.5 66.5t34 67.5t14.5 90t3 134q0 66 -6 127t-27 82q-27 27 -62.5 51.5t-75.5 44t-81 31.5t-76 12q-31 0 -49 -10q-18 -16 -45 -41t-57.5 -48.5t-63.5 -41t-63 -17.5 q-43 0 -68.5 35t-25.5 78q0 33 8 65.5t18 65.5t18.5 64.5t8.5 64.5q0 37 -7.5 87t-7.5 98q0 51 14.5 81.5t46.5 48t82 23.5t122 6q66 0 137.5 -4t137 -10t118.5 -11t84 -5z" />
<glyph unicode="6" horiz-adv-x="1218" d="M940 1386q31 -29 33 -60.5t-15.5 -54t-48 -29.5t-65.5 13q-43 8 -101.5 6.5t-93.5 -18.5q-53 -27 -105 -55.5t-96.5 -67.5t-78 -91t-52.5 -124q57 33 103.5 48.5t92.5 17.5t97.5 -6.5t118.5 -24.5q43 -10 81 -35.5t77 -48.5t63.5 -62.5t50.5 -76.5q35 -45 48.5 -116 t-0.5 -128q-10 -45 -22.5 -107.5t-34 -126t-53.5 -118.5t-83 -84q-39 -20 -83 -22.5t-87 -6.5q-39 -2 -77 -5t-77 7q-145 35 -233 131.5t-131 222t-46 266t25 263.5q16 76 26.5 113.5t23 66.5t34 60.5t62.5 95.5q16 25 53 50.5t81 48t87 39.5t70 30q29 12 76 21t99 10.5 t101 -8t80 -34.5zM324 709q-8 -14 -11.5 -27.5t-6.5 -24t-8 -15.5t-15 -5q0 -119 30 -205q14 -43 39 -87t58.5 -81t75.5 -63.5t92 -32.5q16 0 46.5 -1t63.5 1t59.5 6t36.5 12q20 18 28.5 49t18.5 54q20 57 37 115.5t17 114.5t-21.5 108.5t-75.5 95.5q-31 25 -84 48.5 t-112.5 33.5t-113.5 2t-85 -45q-12 -16 -36.5 -25.5t-32.5 -27.5z" />
<glyph unicode="7" horiz-adv-x="1218" d="M156 1266q-35 10 -53.5 32.5t-18.5 49.5t18.5 49t55.5 33q217 0 400 -1.5t349 -5.5q25 6 56.5 8.5t58.5 -4t45 -24t18 -51.5v-13.5t-2 -13.5q-18 -51 -54 -133t-84 -181.5t-105.5 -209t-120.5 -213.5q-25 -39 -59.5 -97.5t-74.5 -124t-83 -130t-82 -115.5t-74 -84 t-57 -33q-43 0 -66.5 23.5t-23.5 56.5q0 53 32.5 118.5t83 138.5t111.5 152.5t119 159.5q57 82 107 166t92 164t77 151.5t60 127.5q-53 10 -107.5 13t-109.5 3q-104 0 -210 -7t-214 -7h-42t-42 2z" />
<glyph unicode="8" horiz-adv-x="1218" d="M768 1360q61 -66 103 -142.5t42 -168.5q0 -53 -12 -98.5t-35.5 -84.5t-56.5 -73.5t-74 -71.5q55 -35 96 -63.5t68 -59.5t40 -67.5t13 -90.5q0 -86 -29.5 -156.5t-83 -126t-125 -95t-153.5 -60.5q-6 -2 -20 -2q-57 0 -92 3t-59.5 9t-45 16.5t-45.5 24.5 q-72 45 -101.5 102.5t-29.5 143.5q0 125 53 240.5t150 205.5q-39 25 -74 47.5t-60.5 48t-40 57.5t-14.5 75q0 57 36 138t94.5 154.5t134 125t155.5 51.5q41 0 83 -19.5t83 -62.5zM778 514q-18 27 -43.5 44t-58.5 31.5t-69 29t-75 34.5q-47 0 -85.5 -37.5t-55.5 -78.5 q-23 -49 -41 -112t-18 -124q0 -63 37 -110.5t129 -47.5q51 0 104 27t96 70t71 96t28 106q-1 41 -19 72zM752 1047q2 82 -13.5 126t-38 64t-47 24.5t-43.5 4.5q-43 0 -90 -32t-85 -78t-62.5 -99t-24.5 -96q0 -29 15.5 -45.5t42 -29t63.5 -26.5t80 -39q41 6 78 25.5t64.5 50.5 t44 69t16.5 81z" />
<glyph unicode="9" horiz-adv-x="1218" d="M262 66q-31 29 -33 60.5t14.5 54t48.5 29.5t66 -13q43 -8 101.5 -6t93.5 18q53 27 105.5 55.5t96.5 67.5t77.5 91t52.5 124q-57 -33 -103.5 -48.5t-92.5 -17.5t-97 6.5t-119 24.5q-43 10 -81 35.5t-77 48.5t-63.5 62.5t-50.5 76.5q-35 45 -48.5 116t1.5 128 q10 45 22 107.5t33.5 126t53.5 118.5t83 84q39 20 83 22.5t87 6.5q39 2 77 5t77 -7q145 -35 233 -131.5t131 -222t45 -266t-24 -263.5q-16 -76 -26.5 -113.5t-23 -66.5t-34 -60.5t-62.5 -95.5q-16 -25 -53 -50.5t-81 -48t-87 -39.5t-70 -30q-29 -12 -75.5 -21t-99 -10 t-101.5 8t-80 34zM879 743q8 14 11 27.5t6 24t8 15.5t16 5q0 119 -31 205q-14 43 -39 87t-58.5 81t-75.5 63.5t-91 32.5q-16 0 -47 1t-64 -1t-60.5 -6t-35.5 -12q-20 -18 -28.5 -49t-18.5 -54q-23 -57 -38.5 -115.5t-15.5 -114.5t21.5 -108.5t75.5 -95.5q31 -25 84 -48.5 t112.5 -33.5t113.5 -2t85 45q12 16 37 25.5t33 27.5z" />
<glyph unicode=":" horiz-adv-x="411" d="M195 307q57 0 89.5 -11t49 -29.5t18.5 -42t-2 -48.5q0 -61 -42 -109.5t-113 -48.5q-66 0 -99 40t-33 94q0 53 33 99t99 56zM195 942q57 0 89.5 -11t49 -29.5t18.5 -42t-2 -48.5q0 -61 -42 -109.5t-113 -48.5q-66 0 -99 40t-33 93t33 99.5t99 56.5z" />
<glyph unicode=";" horiz-adv-x="446" d="M199 311q49 0 80.5 -9t49 -24.5t23.5 -35t4 -39.5q14 -31 2 -68l-125 -317q-14 -41 -44.5 -51.5t-59.5 0t-45 39t-2 69.5l61 158q-39 16 -57 49t-18 74q0 53 32.5 99t98.5 56zM217 948q57 0 90 -11t49.5 -29.5t18.5 -42t-2 -48.5q0 -61 -42 -109.5t-114 -48.5 q-66 0 -98.5 40t-32.5 94q0 53 32.5 99t98.5 56z" />
<glyph unicode="&#x3c;" horiz-adv-x="935" d="M752 1178q37 8 63.5 -4.5t37.5 -35t6 -52t-32 -54.5q-135 -74 -262 -157.5t-260 -161.5q35 -33 72 -60q39 -29 79 -49t81 -45q59 -39 121.5 -84t127.5 -74q39 -18 51.5 -47.5t2 -57.5t-39 -43t-69.5 -5q-59 23 -113.5 61.5t-107.5 73.5q-45 29 -92 53.5t-92 52.5 q-49 35 -94.5 73t-92.5 73l-22 12q-47 33 -46 77t48 75q164 90 317.5 190.5t315.5 188.5z" />
<glyph unicode="=" horiz-adv-x="1140" d="M152 406q-37 10 -54.5 33.5t-17.5 49t18.5 49t55.5 31.5q94 0 198.5 -1t211 -3t211 -3t198.5 -1q43 -4 63.5 -29.5t20.5 -54t-21.5 -53.5t-64.5 -27q-94 0 -198.5 1t-211 3t-211 3.5t-198.5 1.5zM152 745q-37 10 -54.5 34t-17.5 49.5t18.5 49t55.5 31.5q94 0 198.5 -1 t211 -3t211 -3t198.5 -1q43 -4 63.5 -29.5t20.5 -54.5t-21.5 -53.5t-64.5 -26.5q-94 0 -198.5 1t-211 3t-211 3t-198.5 1z" />
<glyph unicode="&#x3e;" horiz-adv-x="935" d="M180 1178q162 -88 315.5 -188.5t317.5 -190.5q47 -31 48 -75t-46 -77l-22 -12q-47 -35 -92.5 -73t-94.5 -73q-45 -29 -92 -53t-92 -53q-53 -35 -107.5 -74t-113.5 -61q-41 -10 -70 5t-39 43t2 57.5t51 47.5q66 29 128.5 74t121.5 84q41 25 81 45.5t79 48.5q37 27 72 60 q-133 78 -260 161.5t-263 157.5q-27 25 -31.5 54.5t6.5 52t37.5 35t63.5 4.5z" />
<glyph unicode="?" horiz-adv-x="1040" d="M541 1358q-82 -2 -130.5 -19.5t-81 -47t-58 -71.5t-62.5 -96q10 -23 6 -45t-19.5 -38.5t-39 -23.5t-54.5 1q-39 18 -49 52t-3 73t28.5 81t47.5 79.5t51.5 68.5t41.5 47q59 55 143 80t175.5 25t177.5 -22.5t151 -61.5q45 -27 72 -83.5t36 -119.5t0 -125.5t-38 -101.5 q-16 -23 -43 -47.5t-57.5 -45t-61.5 -36t-55 -17.5q-4 0 -15.5 -4t-25.5 -10t-28.5 -11t-22.5 -5v-428q-8 -41 -35 -60.5t-55.5 -16.5t-51 26.5t-22.5 66.5t-1 103.5t-2 128t-1 135t4 126.5q10 23 19.5 35.5t29.5 26.5q37 12 89 31.5t99.5 41t80 42t32.5 32.5q2 35 -2 68 t-4 68q-6 8 -29.5 34.5t-70.5 42.5q-41 16 -83 19.5t-83 1.5zM434 86q-4 53 33 81t86 28q20 0 41.5 -11.5t38 -29t27 -40t10.5 -44.5q0 -35 -31 -66t-78 -31q-53 0 -90 30t-37 83z" />
<glyph unicode="@" horiz-adv-x="1607" d="M926 954q29 -4 48 -18t30 -33l10 -8q14 -12 20 -25q8 -14 10 -28q2 -4 3 -8v-94.5t-5 -94.5q0 -37 1 -71.5t12.5 -62.5t38 -42t75.5 -8q33 4 64 18.5t51 38.5q18 23 28.5 82t13.5 127t1 127t-6 82q-18 127 -121 199q-53 37 -115.5 52t-126.5 19q-74 4 -146.5 -8 t-141.5 -37q-6 -2 -34 -12t-64.5 -26.5t-79.5 -35t-80 -37t-63.5 -34t-33.5 -25.5q-20 -31 -30.5 -88t-13.5 -126.5t1 -144.5t13.5 -143.5t21.5 -125t27 -84.5q27 -53 61.5 -91t81.5 -71q70 -49 153 -76t169 -39t174 -14t172 -2q37 37 78 61.5t90 34.5q37 -4 58.5 -24.5 t25.5 -47t-10.5 -51.5t-49.5 -39q-6 0 -14 -4q-18 -10 -33 -20q-25 -18 -46 -39t-52 -29q-49 -14 -102.5 -8t-102.5 10q-123 10 -240.5 21.5t-234.5 60.5q-102 43 -188 116.5t-136 176.5q-23 45 -39 114.5t-27 151.5t-14.5 171t4 171t24 152.5t44.5 115.5q20 33 49 54.5 t62 38t67.5 28.5t67.5 27q47 23 91 45t91 39q182 66 350 57.5t336 -100.5q39 -20 64.5 -54t54.5 -67q37 -43 54.5 -115.5t22.5 -154.5t0 -164t-13 -140q-12 -88 -67.5 -153.5t-130.5 -99t-160 -27.5t-156 63q-37 -47 -87.5 -72.5t-109.5 -2.5q-4 2 -18.5 7t-31 11 t-31.5 14.5t-23 16.5q-29 27 -46.5 47t-32 40.5t-25.5 45t-28 61.5q-16 41 -19 93.5t13 93.5q20 49 31.5 73.5t26 41t39 31.5t71.5 46q23 16 55.5 24.5t65.5 13.5t64 6t49 5zM874 610q0 47 2.5 91t4.5 83q-33 -4 -66 -9t-61.5 -19.5t-49 -37t-26.5 -59.5q-4 -25 3 -60.5 t23.5 -69t40 -58.5t54.5 -25q23 -2 37 14.5t22 35.5q2 27 8 52t8 52v10zM868 520q-4 -8 -4 -12q2 4 4 10t0 2z" />
<glyph unicode="A" d="M317 281q-4 0 -5 -1t-5 -1q-8 0 -20 4q-12 -41 -22.5 -87t-25 -85t-35 -66t-52.5 -27q-12 0 -29 7.5t-33 20.5t-27.5 33.5t-11.5 47.5q0 31 23.5 93.5t59.5 146.5t79 184t80 207q45 125 83 248.5t71.5 220t66.5 157t66 60.5q43 0 66.5 -41t34.5 -99.5t17.5 -122 t16.5 -110.5q27 -123 56.5 -247t68.5 -245.5t88 -239.5t114 -226q12 -25 13 -50q0 -35 -23.5 -57t-54.5 -22q-37 0 -74 46t-69.5 111.5t-59 136t-43.5 119.5q-37 -18 -78 -28.5t-82 -18.5t-83 -15t-80 -20q-20 -10 -43 -21t-48 -13zM463 725q-23 -63 -49.5 -125.5 t-53.5 -128.5q31 12 70 17.5t81 11.5t82 16t71 31q4 2 7 4t7 4q-33 98 -55.5 197.5t-49.5 201.5l-14 56q-23 -72 -47 -142.5t-49 -142.5z" />
<glyph unicode="B" horiz-adv-x="948" d="M106 1395q0 45 25 67.5t55 22.5q27 0 50 -17q78 53 178 54q72 0 123 -26t106 -56q31 -18 61.5 -34.5t55 -39.5t39 -54.5t14.5 -78.5q0 -43 -12.5 -86t-31.5 -84t-43 -80t-46 -74q-14 -23 -35.5 -58.5t-46.5 -70.5q94 -10 153.5 -59t92.5 -120t45 -155t12 -159 q0 -98 -36 -176t-115 -131q-41 -27 -124 -38.5t-169 -11.5q-143 0 -203 27v-2q-8 -39 -30.5 -58.5t-51.5 -19.5q-55 0 -77.5 85t-25.5 221t7 305l20 338t16 320t-6 249zM231 324q-4 -90 20.5 -137.5t62.5 -67t81 -21.5t76 -4q84 0 136 14.5t82 43t41 70.5t11 95 q0 72 -19.5 141.5t-51.5 119.5q-18 29 -54 37t-73 8q-8 0 -17.5 -1t-31 -2.5t-60.5 -5.5t-104 -10q-16 0 -30.5 1t-29.5 3q-10 -72 -23.5 -142t-15.5 -142zM272 1280q4 -119 6.5 -235.5t2.5 -237.5q18 2 41.5 4t45 5t39 8t25.5 14l12 20q23 33 51.5 73t49.5 70q6 10 23.5 38 t36 63t32.5 68.5t14 56.5q0 16 -28.5 38.5t-68.5 42t-81 34t-63 14.5q-31 0 -74.5 -19.5t-63.5 -56.5z" />
<glyph unicode="C" horiz-adv-x="1054" d="M997 1214q12 -25 13 -49q0 -35 -21.5 -56.5t-56.5 -21.5t-59.5 28t-45 65t-42 75.5t-50.5 63.5l-14 6q-10 2 -22.5 3t-24.5 1q-57 0 -96 -2t-71 -14.5t-59.5 -38t-62.5 -72.5q-78 -106 -112.5 -243.5t-34.5 -272.5q0 -45 3 -100.5t14 -112.5t33.5 -111.5t62.5 -97.5 t99.5 -68.5t143.5 -25.5q53 0 97 13.5t73 43.5q8 10 10 20.5t3 28t5 43t19 64.5q16 20 35.5 29.5t37.5 9.5q31 0 53.5 -21.5t22.5 -60.5q0 -8 -2 -23.5t-6 -19.5q0 -143 -99.5 -216t-273.5 -73q-143 0 -238 59.5t-152.5 152.5t-81 209t-23.5 226q0 109 19.5 234t63.5 238.5 t113.5 204.5t169.5 132q53 23 120 27t120 4q88 0 136 -28.5t78 -71.5t50 -92.5t53 -88.5z" />
<glyph unicode="D" horiz-adv-x="1091" d="M88 1059q-2 16 -2 33.5v35.5q0 20 2 41t6 39q-29 10 -43 33t-14 45q0 27 18.5 49.5t55.5 32.5q66 2 139.5 9t146.5 7q70 0 134.5 -11t123.5 -44q49 -29 83 -74t65 -90q23 -33 48.5 -62.5t45.5 -64.5q59 -102 92 -217.5t33 -234.5q0 -166 -53.5 -282t-140.5 -193.5 t-198.5 -127t-230.5 -81.5q-35 -10 -80 -11q-35 0 -70.5 8.5t-58.5 28.5q-33 31 -50 102.5t-26.5 154.5t-13.5 161t-6 119q-4 76 -6 149.5t-2 147.5t1 147.5t1 149.5zM575 1186q-23 18 -73.5 25.5t-116.5 7.5q-31 0 -61.5 -1t-59.5 -4q0 -25 -12 -45v-4q-4 -92 -7 -185 t-3 -187q0 -186 14 -370.5t49 -365.5q14 0 27.5 1t27.5 3q88 25 178.5 63t162 97.5t116.5 145.5t45 211q0 76 -14 141t-41 124.5t-63.5 118t-79.5 117.5q-23 29 -41.5 56.5t-47.5 50.5z" />
<glyph unicode="E" horiz-adv-x="983" d="M92 1401q12 35 36 50t48 15q12 8 37 15q80 0 159 -2t156 -4q57 0 120 -1t115 -8.5t87 -26t39 -53.5q0 -12 -1 -25t-13.5 -23.5t-38 -18.5t-72.5 -10q-16 -2 -49 -2h-69t-69.5 1t-52.5 3l-270 6l-4 -565q135 6 269 18t269 14q43 -4 63.5 -29.5t20.5 -54t-21.5 -53 t-64.5 -26.5q-135 -2 -268 -14.5t-268 -16.5q-2 -123 -2 -243v-243q141 0 277.5 6.5t275.5 10.5q43 -4 63.5 -29.5t20.5 -54.5t-21.5 -53.5t-64.5 -26.5q-68 -2 -153 -8t-173 -11.5t-170 -3t-143 16.5q-31 10 -47.5 24.5t-26.5 44.5q-4 348 0 690.5t6 690.5z" />
<glyph unicode="F" horiz-adv-x="929" d="M76 1360q0 39 18.5 60.5t44 27.5t51 -5t39.5 -40q145 -2 286.5 -5t285.5 -3q43 -4 63.5 -30t20.5 -54.5t-21.5 -53t-64.5 -26.5q-141 0 -278.5 3t-278.5 5q4 -106 9 -210.5t11 -211.5q121 8 241 8t238 4q43 -4 63.5 -29.5t20.5 -54t-21.5 -53t-64.5 -26.5 q-117 -4 -234.5 -2t-234.5 -9q-8 -53 -6 -121.5t8.5 -140t12.5 -140.5t5 -123t-13.5 -87t-43.5 -33q-45 0 -73.5 26.5t-34.5 67.5v73t-2 97q0 45 -2 82t-3 73t-3 73t-4 80q-10 197 -20.5 389t-14.5 389z" />
<glyph unicode="G" horiz-adv-x="1079" d="M958 1004q0 -4 1.5 -9.5t1.5 -9.5q0 -41 -25 -63.5t-55 -22.5q-39 0 -57.5 27.5t-28 69.5t-14.5 91.5t-20.5 91.5t-46 69.5t-89.5 27.5q-74 0 -133.5 -37t-104.5 -96.5t-76.5 -135t-52 -153.5t-30 -151.5t-9.5 -129.5q0 -74 15.5 -153.5t49 -146t85 -109.5t125.5 -43 q80 0 131 34.5t82.5 89t47 120t25.5 127.5q2 10 3 19t1 19q-14 4 -28.5 4.5t-30.5 0.5h-66.5h-42h-42t-66.5 -3q-35 10 -53.5 33t-18.5 49q0 27 18.5 49.5t55.5 32.5q33 2 51.5 3t36.5 2t43 1h68q27 0 56.5 1.5t57 -2t51 -14.5t39.5 -36q23 -35 24 -108.5t1 -153.5 q0 -90 18.5 -181t24.5 -183q-8 -39 -30.5 -58.5t-51.5 -19.5q-25 0 -48.5 16.5t-33.5 50.5l-12 82q-51 -70 -136 -104.5t-175 -34.5q-117 0 -200 54.5t-135.5 139.5t-77 189t-24.5 207q0 182 43 344t119 282.5t177.5 190.5t217.5 70q53 0 104.5 -14.5t93.5 -43t72.5 -70.5 t41.5 -98q10 -51 17 -101t15 -103z" />
<glyph unicode="H" horiz-adv-x="989" d="M762 1423q0 45 24.5 67.5t55.5 22.5q29 0 53.5 -19t30.5 -60q2 -340 13 -676t13 -678q-8 -39 -30.5 -58.5t-51.5 -19.5q-25 0 -48 16.5t-34 51.5q-2 147 -4 291.5t-6 291.5h-8q-96 -4 -190.5 -17t-186.5 -13q-41 0 -79 4t-76 14q4 -47 6 -92t2 -92q0 -104 -5 -208 t-8 -208q-8 -39 -31.5 -58.5t-51.5 -19.5q-31 0 -55.5 23.5t-24.5 70.5q0 111 7 220.5t7 220.5q0 55 -4 109.5t-8 111.5q-20 20 -21 53q0 10 5 22.5t5 22.5q-14 111 -25 214.5t-11 230.5q0 29 4 66.5t16 71.5t33.5 57.5t56.5 23.5q39 0 60.5 -22.5t21.5 -53.5q0 -18 -6 -33 l-10 -20q-10 -14 -10.5 -36t-0.5 -32q0 -117 9.5 -231.5t19.5 -229.5l29 -18q29 -8 53.5 -13.5t52.5 -5.5q104 0 209 13.5t209 17.5h2q-8 301 -12 606z" />
<glyph unicode="I" horiz-adv-x="972" d="M104 20q-37 10 -54 34t-17 49.5t18.5 49t54.5 31.5q61 -4 123 -11t121 -13q-4 63 4 95t13 56q6 45 5 87t-3 85q-6 209 -23.5 412t-21.5 412q-59 -2 -116.5 -3t-117.5 -1q-37 10 -54.5 33.5t-17.5 49t18.5 49t55.5 31.5q166 2 329 9.5t329 9.5q43 -4 63.5 -29.5 t20.5 -54.5t-21.5 -53.5t-64.5 -26.5l-261 -6q2 -145 15.5 -278.5t23 -263.5t11.5 -263t-17 -279q-4 -20 -2 -40.5t-2 -40.5v-5h53q37 0 74 7.5t73 15.5t72.5 15t73.5 7q43 -4 63.5 -29.5t20.5 -54t-21.5 -53t-64.5 -26.5q-61 0 -88 -7.5t-49.5 -15.5t-54 -15t-101.5 -7 q-117 -2 -231.5 15t-231.5 23z" />
<glyph unicode="J" horiz-adv-x="1122" d="M182 1264q-37 10 -54 33.5t-17 49t18 49t55 31.5q74 0 145.5 3.5t143.5 5.5q61 0 119.5 2t120 4t128 2t140.5 -4q43 -4 63.5 -30t20.5 -54.5t-21.5 -53t-64.5 -26.5q-63 4 -124.5 13t-127.5 11h-43q-4 -106 -8 -212.5t-4 -215.5v-188t-6.5 -186t-23.5 -183.5t-50 -181.5 q-29 -78 -88.5 -114.5t-129 -40t-139 24.5t-118.5 81q-31 33 -44.5 79t-17.5 95t-2 98.5t2 92.5q12 35 38 51t51.5 13t47 -23.5t27.5 -57.5q0 -23 -2 -54.5t-2 -65t4 -66.5t19 -53q18 -27 51 -36.5t61 -15.5q31 -8 53.5 10.5t38 46t24.5 57.5t13 48q33 145 30 291.5 t-1 294.5q2 98 5 193.5t5 193.5q-6 -2 -20 -2q-78 -8 -158 -9t-158 -1z" />
<glyph unicode="K" horiz-adv-x="1144" d="M272 676q-10 -16 -18 -25v-202q0 -113 -3 -222.5t-26 -220.5q-31 -51 -78 -51q-31 0 -55 24.5t-24 69.5q8 29 12 100.5t7 169t3 212t-1 231.5t-3 226.5t-4 195.5t-2 140v60q0 45 24.5 68t55.5 23q29 0 53.5 -19.5t30.5 -60.5l8 -496q29 23 57.5 45.5t59.5 42.5 q6 31 27.5 49.5t49.5 18.5q6 0 11.5 -1t11.5 -3q61 39 123.5 76.5t117 80.5t97.5 94.5t70 112.5q16 20 35.5 29.5t37.5 9.5q31 0 53.5 -21.5t22.5 -60.5q0 -10 -4 -25.5t-10 -34t-14.5 -35.5t-18.5 -30q-90 -100 -196.5 -178t-217.5 -151q45 -84 95.5 -165t106.5 -171 t119.5 -196.5t133.5 -240.5q12 -23 28.5 -42t20.5 -54q4 -29 -21.5 -52.5t-62.5 -23.5q-33 0 -65.5 37t-61.5 87t-52.5 100.5t-37.5 76.5q-82 137 -171 274.5t-167 278.5q-47 -31 -89 -66.5t-69 -84.5z" />
<glyph unicode="L" horiz-adv-x="1185" d="M96 1397q0 43 23.5 65.5t52.5 24.5t55.5 -17.5t32.5 -62.5q4 -160 17.5 -317.5t15.5 -317.5q2 -154 -11.5 -305.5t-23.5 -304.5q205 35 386 35t360 -17q43 -4 63 -29.5t20 -54t-21.5 -53.5t-64.5 -27q-88 6 -175 8.5t-177 6.5q-70 2 -139.5 -3t-138.5 -16q-31 -4 -66 -13 t-90 -19q-51 -23 -88 2.5t-37 80.5q2 86 8 173.5t14.5 173.5t13.5 173t3 173q-2 162 -15.5 320.5t-17.5 320.5z" />
<glyph unicode="M" horiz-adv-x="1470" d="M86 1378q2 51 28.5 78t60.5 28t65.5 -24.5t46.5 -79.5q45 -78 100 -198.5t115.5 -266t121 -308.5t117.5 -326q-12 2 -1.5 60t35 148.5t59 201t70.5 215t70 190.5t58 131q31 59 64.5 119.5t87.5 101.5q41 27 75.5 16.5t57.5 -53.5q37 -74 47 -138.5t16 -146.5 q4 -35 6.5 -76.5t4.5 -86.5t3 -88.5t5 -77.5q16 -197 16 -392.5v-394.5q-8 -41 -34.5 -60.5t-55.5 -16t-51.5 27t-22.5 66.5q0 248 -3 491.5t-46 489.5q-8 47 -8 110q0 16 -2 30.5t-7 18.5t-14.5 -5t-23.5 -40q-31 -68 -59.5 -164t-56 -205.5t-54.5 -223t-52.5 -218 t-50 -191.5t-49.5 -140q-35 -33 -70.5 -29t-64.5 43q-20 25 -54 103.5t-74 186t-85 229.5t-89 233.5t-84 198.5t-71 126q-4 -92 -7 -185t5 -186q6 -82 4 -166.5t-8 -171t-11 -171.5t-3 -166q-6 -37 -28.5 -56.5t-48 -21.5t-50.5 14t-37 53q0 82 5 167t11.5 171t8.5 171 t-4 165q-8 86 -7.5 172t6 173t10.5 173t7 172z" />
<glyph unicode="N" horiz-adv-x="1034" d="M262 1038q-6 -252 -9 -425t-6 -286.5t-4 -176t-1 -93v-38v-9.5q0 -33 -21.5 -55.5t-58.5 -22.5q-29 0 -47.5 14.5t-28.5 37t-14 50t-4 54.5q0 29 1 110t2 191.5t3 236.5t3 245.5t1 218v153.5q0 37 3 68.5t13 56.5t27.5 39t48.5 14q25 -4 39 -10t33 -22 q80 -133 161.5 -266.5t147.5 -274.5q51 -111 102.5 -233.5t100.5 -237.5q-25 242 -23 479.5t12 474.5q12 33 35 49.5t47 16.5q29 0 52.5 -24.5t29.5 -65.5q-4 -111 -2 -211.5t6 -197.5t9.5 -196.5t5.5 -209.5q0 -96 1 -211t9 -211q20 -37 20 -70q0 -53 -29.5 -75.5 t-66.5 -26.5q-41 -4 -86 54t-92 154.5t-98.5 219.5t-104.5 251t-108.5 250.5t-110.5 216.5q0 -2 1 -3t1 -3z" />
<glyph unicode="O" horiz-adv-x="1437" d="M723 1444q111 0 225.5 -45t207.5 -129t152.5 -203t59.5 -268q0 -135 -47 -276.5t-133 -257t-205 -190.5t-262 -75q-164 0 -285 55.5t-201.5 147.5t-120.5 213t-40 250t45 268t130 254t204.5 187.5t269.5 68.5zM741 1307q-109 0 -198.5 -59.5t-154 -154t-101.5 -213 t-37 -235.5q0 -96 25.5 -183t82 -152.5t144.5 -105.5t213 -40q117 0 206 60.5t150.5 153.5t92 206.5t30.5 218.5q0 88 -27.5 174t-85 156.5t-142.5 117t-198 56.5z" />
<glyph unicode="P" horiz-adv-x="1026" d="M180 -4q-27 -10 -48 -3t-35.5 51t-22.5 134t-8 248t8 390.5t24 561.5q10 23 19.5 35t29.5 27q37 14 71 10t71 -4q51 0 116.5 5t132 6t128 -9t104.5 -43q68 -49 120 -127t70.5 -162t-6 -165t-112.5 -138q-61 -41 -136 -58.5t-155 -22.5t-159 -2t-148 3h-2 q-2 -117 -2 -230.5v-230.5q0 -29 3 -68.5t0 -80.5t-16.5 -76t-46.5 -51zM254 1284q-4 -98 -6 -194.5t-4 -194.5l2 2q59 0 126.5 -4t134 -1t130 16.5t117.5 43.5q51 31 55 76t-15.5 91t-54 88t-63.5 67q-18 14 -74.5 17t-124 0t-130 -7t-93.5 0z" />
<glyph unicode="Q" horiz-adv-x="1161" d="M76 721q8 57 22.5 131t40 152.5t65.5 154.5t100.5 135.5t143 96t195.5 36.5q119 0 205 -61t142.5 -157.5t83 -212t26.5 -226.5q0 -80 -9.5 -161t-33 -157.5t-62.5 -146t-98 -129.5q31 -41 65.5 -94t34.5 -107q0 -41 -24.5 -63.5t-54.5 -22.5q-31 0 -49.5 20.5t-34 51.5 t-29.5 66.5t-37 66.5q-6 -8 -20.5 -23.5t-44 -31.5t-80 -29.5t-125.5 -19.5q-106 0 -189.5 32.5t-140.5 93t-87 145.5t-30 188q0 76 7.5 147.5t17.5 124.5zM535 436q0 43 24.5 66.5t54.5 23.5q23 0 44.5 -12t35.5 -41q16 -47 42 -89t57 -83q33 27 59.5 77t43.5 114.5 t26.5 141.5t9.5 157q0 115 -24.5 205.5t-66.5 153t-96.5 96.5t-113.5 34q-49 0 -100.5 -24.5t-96.5 -65.5t-78.5 -95.5t-50.5 -113.5q-35 -133 -62.5 -269.5t-27.5 -269.5q0 -72 19.5 -124t52 -84.5t78 -48t94.5 -15.5q102 0 205 53q-41 49 -76 101.5t-53 111.5z" />
<glyph unicode="R" horiz-adv-x="1032" d="M51 51v291t1 280.5t2 279.5t1 292q-10 82 19.5 128t77 69.5t100.5 29.5t90 6q63 0 104 1.5t71 0t52.5 -5.5t49 -12t61.5 -21.5t88 -33.5q68 -27 114 -71t69.5 -100.5t24.5 -118.5t-22 -126q-16 -41 -42.5 -75t-53.5 -68q-35 -43 -85 -71t-109 -44q55 -37 92 -80t63.5 -93 t46 -111.5t39.5 -137.5q16 -61 36 -119.5t24 -124.5q-6 -37 -29 -56t-48.5 -21t-50 14t-36.5 53q-4 57 -21.5 109.5t-34.5 107.5q-27 100 -48 163t-57 104.5t-93.5 73.5t-155.5 73l-37 8q-35 -2 -69.5 0t-67.5 12q0 -156 -1 -311.5t-1 -310.5q-8 -41 -34.5 -60.5 t-55.5 -16.5t-51.5 26.5t-22.5 66.5zM219 831q39 4 82 -5t82 -19l51 6q47 6 94 10t93 19q72 23 119.5 66.5t63 95t-8 105.5t-95.5 97q-53 31 -113.5 47.5t-124 18.5t-126 -11.5t-117.5 -41.5v-388z" />
<glyph unicode="S" d="M825 1348q27 -33 45.5 -74t18.5 -78q0 -35 -20.5 -62.5t-69.5 -37.5q-23 0 -47.5 16t-34.5 51q-6 20 -8 41t-13 39q-29 51 -92 77t-133 26q-43 0 -83 -10.5t-70.5 -30t-49 -50t-18.5 -69.5q0 -55 27.5 -91t68.5 -61.5t87 -43t85 -32.5q72 -29 157 -67.5t158.5 -93 t124 -126t50.5 -165.5q0 -100 -18.5 -193.5t-77 -166t-168 -115.5t-293.5 -43q-61 0 -132 23.5t-130.5 67.5t-98.5 109.5t-39 151.5q0 23 9.5 49.5t24.5 48t36.5 35.5t46.5 14q35 0 56.5 -21.5t21.5 -55.5q0 -23 -7.5 -32t-21.5 -38q12 -49 41 -87t68 -63.5t83 -40t89 -14.5 q147 0 243.5 76t96.5 231q0 80 -32 135.5t-83 96.5t-116.5 69.5t-135.5 57.5q-72 29 -141.5 59.5t-123.5 73.5t-88 103.5t-34 146.5q0 80 33 140t87 101t125.5 62.5t149.5 21.5q66 0 118 -13t93 -34.5t73.5 -51t61.5 -62.5z" />
<glyph unicode="T" horiz-adv-x="1050" d="M385 1214q-66 -4 -132.5 -6t-131.5 -2q-37 10 -54.5 34t-17.5 49.5t18.5 49t55.5 31.5q199 2 393.5 16.5t392.5 16.5q43 -4 63.5 -29.5t20.5 -54.5t-21.5 -53.5t-64.5 -26.5q-92 -2 -180 -6t-178 -8v-1166q-8 -41 -35 -60t-55.5 -16t-51 26.5t-22.5 66.5v1138v0z" />
<glyph unicode="U" horiz-adv-x="1165" d="M104 1391q12 33 35 49t47 16q29 0 52.5 -20.5t29.5 -61.5q-2 -90 -4 -177t-2 -177v-150.5t8.5 -187.5t28.5 -194.5t59 -174t101.5 -126t156.5 -48.5t151.5 63.5t89.5 168t43 241t11 283.5q0 135 -6 264t-6 227q0 45 24.5 68t55.5 23q29 0 53.5 -19.5t30.5 -60.5 q0 -104 6 -233.5t6 -270.5q0 -164 -15.5 -327t-64.5 -294t-139 -213t-238 -82q-127 0 -216 52.5t-146 136.5t-89 193.5t-47.5 222t-18.5 222t-3 195.5q0 98 2 196z" />
<glyph unicode="V" horiz-adv-x="1249" d="M66 1286q-20 29 -21 57q0 35 22.5 57.5t55.5 22.5q16 -2 32.5 -7t32.5 -21q29 -31 78 -121t106.5 -210t115 -252t102.5 -247.5t71.5 -198.5t22.5 -104q31 139 86 274.5t110.5 271.5t97.5 275.5t46 286.5q12 33 34.5 49.5t47.5 16.5q29 0 52.5 -20.5t29.5 -61.5 q0 -90 -20.5 -180.5t-54.5 -187.5t-78 -204.5t-89 -232.5q-8 -20 -24.5 -75.5t-40 -126.5t-52 -148.5t-58.5 -142t-59.5 -107.5t-54.5 -43q-47 0 -68.5 28.5t-29.5 68.5t-10 82t-8 71q-72 305 -196.5 584.5t-278.5 545.5z" />
<glyph unicode="W" horiz-adv-x="2050" d="M68 1339q-10 37 0 65t31.5 42t51 11t56.5 -30q63 -102 108 -213.5t80 -227.5t64.5 -233.5t62.5 -232.5q18 -61 35.5 -119.5t40.5 -115.5q68 145 113 296.5t88 305.5q29 98 61.5 194.5t73.5 190.5q4 14 4 24.5v26.5q4 35 22.5 65.5t53.5 41.5q76 18 110 -52 q63 -188 140 -371.5t131 -375.5q27 -86 39 -164t12 -170q16 53 41.5 136t57.5 183.5t68 209t73.5 212t76.5 192.5t78 150q12 35 38 51.5t51.5 13.5t47 -23.5t27.5 -57.5q-2 -29 -26.5 -102.5t-62.5 -173t-83 -213t-88 -220t-79 -197.5t-52 -143q-18 -74 -25.5 -150.5 t-40.5 -148.5q-29 -49 -71.5 -52t-77.5 42q-33 57 -68 119.5t-45 128.5q-12 88 -19 171t-30 169q-37 135 -90 262t-105 258l-6 -18q-49 -125 -80.5 -255t-70.5 -259t-91.5 -255t-117.5 -247q-29 -49 -72 -52t-78 42q-66 92 -98.5 198.5t-62.5 212.5q-31 109 -58.5 220.5 t-60.5 221t-75 215t-103 201.5z" />
<glyph unicode="X" horiz-adv-x="1179" d="M186 -51q-31 -31 -63.5 -29t-53 22.5t-24.5 53.5t23 65q123 137 225 289t196 312q-39 90 -80.5 181t-89 176t-100.5 161.5t-115 136.5q-25 33 -20.5 65.5t26 52t54.5 19.5t63 -29q113 -111 201 -266t162 -321l108 192q31 55 56.5 93t51 71t53.5 66.5t65 78.5q25 33 40 66 t54 53q35 8 60.5 -3t37.5 -32.5t9 -50.5t-25 -53q-41 -72 -98.5 -130.5t-98.5 -127.5q-59 -102 -116.5 -203.5t-116.5 -204.5l82 -188q23 -49 45 -99.5t46.5 -98.5t54.5 -93t69 -84q16 -33 11 -61.5t-24.5 -46t-49.5 -19.5t-60 19q-43 45 -77 95t-61.5 103t-52 109.5 t-51.5 111.5q-10 18 -18.5 38t-16.5 40q-86 -141 -179 -274t-202 -256z" />
<glyph unicode="Y" d="M66 1323q-25 33 -21 65.5t25.5 52t54.5 19.5t63 -28q117 -119 202 -263.5t169 -285.5q8 -14 16.5 -27.5t18.5 -28.5q10 23 16 45.5t13 38.5q20 53 49.5 124t65.5 142.5t78 137t85 108.5q33 20 62.5 17.5t48 -21t22.5 -47.5t-14 -61q-33 -29 -50.5 -70t-33.5 -82 q-47 -113 -106.5 -228.5t-116.5 -225.5q-10 -16 -19.5 -32t-21.5 -30q4 -80 3 -149.5t-2 -137t-2 -137t1 -149.5q-6 -37 -28.5 -56.5t-48.5 -21.5t-50.5 14.5t-36.5 52.5q-2 82 -1 156t2 144.5t1 143t-2 154.5l-442 666v0z" />
<glyph unicode="Z" horiz-adv-x="1363" d="M158 1214q-35 10 -53.5 33t-18.5 49q0 27 18.5 49.5t55.5 32.5q211 10 418.5 24.5t418.5 14.5q35 0 77 -1t79 -10t62.5 -28.5t25.5 -56.5q0 -25 -11 -48.5t-27.5 -45t-36 -43t-33.5 -39.5q-74 -90 -141.5 -185.5t-139.5 -187.5q-70 -90 -137.5 -180t-128.5 -189 q-37 -57 -64.5 -121.5t-68.5 -119.5q53 -8 112.5 -25.5t100.5 -23.5q82 -12 143 -9.5t118.5 11t119 16.5t143.5 8q41 -4 62.5 -28.5t21.5 -53.5t-21.5 -53t-64.5 -29q-98 0 -182 -8t-163 -16t-161 -8t-176 18q20 -4 0.5 -7t-60 -4t-94 1t-101.5 9t-81 20.5t-33 33.5 q0 27 20.5 56.5t48 60.5t58.5 60.5t49 54.5t36 56.5t35 66t33.5 68.5t33.5 59q82 129 175 248.5t185 242.5q51 66 99 133.5t102 132.5q-215 0 -426 -14.5t-428 -24.5z" />
<glyph unicode="[" horiz-adv-x="620" d="M426 1440q43 -4 63.5 -30t20.5 -54.5t-21.5 -53t-64.5 -26.5q-20 0 -74.5 -1t-111.5 -1q4 -111 14 -220.5t10 -219.5q0 -141 -2 -280.5t-14 -281.5q-6 -72 -5 -160.5t-1 -162.5q0 -16 -1 -35.5t1 -38.5h8q55 2 99 -7t97 -11q43 -4 63.5 -30t20.5 -54.5t-21.5 -53 t-64.5 -26.5q-14 0 -37.5 2t-50 3t-52.5 3t-44 6q-16 -10 -37.5 -15t-38.5 -5q-47 -2 -69.5 31.5t-30.5 79.5t-7 93.5t1 71.5q6 127 9 252t13 250q10 92 5 186t-5 187q0 66 -7 133t-14 135t-8 134.5t11 131.5q12 31 28.5 45.5t47.5 22.5q68 6 136 3t134 -3z" />
<glyph unicode="\" horiz-adv-x="761" d="M256 1427q4 -59 25.5 -113t44.5 -110q23 -66 44 -133t44 -133q37 -119 77.5 -239.5t76.5 -242.5t66 -245t46 -248q0 -43 -22.5 -66.5t-51 -26.5t-55.5 16.5t-35 60.5q-16 133 -51 272t-78 278.5t-90 276.5t-88 264q-31 92 -71 184.5t-46 188.5q6 37 26.5 57.5t47.5 23.5 t52.5 -13.5t37.5 -51.5z" />
<glyph unicode="]" horiz-adv-x="620" d="M172 1440q66 0 134.5 3t135.5 -3q31 -8 47.5 -22.5t28.5 -45.5q12 -66 11 -132t-8 -134t-14 -135.5t-7 -132.5q0 -92 -5.5 -186.5t5.5 -186.5q10 -125 13 -250t9 -252q0 -25 1 -72t-7 -93t-30.5 -79.5t-69.5 -31.5q-16 0 -38 5t-38 15q-18 -4 -45 -6t-52.5 -3t-49 -3 t-37.5 -2q-43 2 -64.5 26.5t-21.5 53t20.5 54.5t63.5 30q53 2 97 11t99 7h8q2 18 1 37.5t-1 36.5q-2 74 -1 163t-5 160q-12 141 -14 280.5t-2 281.5q0 111 10 220t14 220q-57 0 -111 1t-75 1q-43 2 -64.5 26.5t-21.5 53t20.5 54.5t63.5 30z" />
<glyph unicode="^" horiz-adv-x="1302" d="M225 711q-35 -4 -58.5 11t-32.5 36.5t-5 47t25 44.5q0 2 6 6t10 8q12 14 22.5 27.5t20.5 26.5q27 35 49.5 68.5t42.5 70.5q55 106 110.5 211.5t135.5 197.5q29 16 50.5 18.5t49.5 -11.5q33 -29 57.5 -64t45 -74t40 -77.5t40.5 -73.5q59 -96 133.5 -175t158.5 -151 q31 -29 33 -61.5t-16.5 -55t-51 -28.5t-67.5 18q-94 78 -179 168t-149 197q-20 35 -42.5 83t-47.5 91q-33 -51 -59.5 -104.5t-54 -106.5t-57 -105.5t-66.5 -99.5q-12 -16 -27.5 -39.5t-34 -45t-39 -38t-43.5 -20.5z" />
<glyph unicode="_" horiz-adv-x="1382" d="M115 -473q-43 0 -63.5 25.5t-20.5 56.5t20.5 56.5t63.5 25.5h1140q43 0 63.5 -25.5t20.5 -56.5t-20.5 -56.5t-63.5 -25.5h-1140v0z" />
<glyph unicode="`" horiz-adv-x="514" d="M70 1405q-23 31 -22 59.5t17.5 49t44 26.5t62.5 -8q37 -27 80 -59.5t83 -69.5t71.5 -80t46.5 -88q6 -37 -8.5 -62.5t-39 -36t-53 -2t-51.5 36.5q-10 37 -36.5 70t-59.5 62.5t-68.5 55.5t-66.5 46z" />
<glyph unicode="a" horiz-adv-x="907" d="M223 932q92 70 176 75t168 -32q41 -16 81 -41t63 -62q70 -113 91 -206t18 -184t-21.5 -189t-26.5 -221q-8 -41 -34.5 -60.5t-55.5 -16.5t-51.5 26.5t-22.5 66.5q0 10 1 22.5t3 22.5q-25 -20 -60.5 -43.5t-75.5 -43t-81 -32t-76 -10.5q-96 10 -154.5 62.5t-76.5 123 t5.5 147.5t90.5 138q49 45 101.5 68.5t110 36t115.5 18.5t120 12q2 29 3 36t0 10t-4 8.5t-9 29.5q-6 20 -15.5 40t-25.5 36l-19.5 19.5t-45.5 36t-64.5 30.5t-75.5 6q-43 -6 -73 -35.5t-52.5 -62.5t-44 -58.5t-45.5 -23.5q-37 2 -48.5 28.5t-1 63.5t39 79t73.5 79zM594 346 q4 25 8 49.5t8 48.5q-47 -4 -93 -9t-93 -17q-35 -10 -68.5 -27.5t-62.5 -40.5q-45 -35 -50 -76t17.5 -68.5t65.5 -33.5t94 29q20 14 33.5 21t23.5 14.5t21.5 16.5t29.5 26q4 2 13.5 12t19.5 22.5t19.5 21.5t13.5 11z" />
<glyph unicode="b" horiz-adv-x="1030" d="M80 1417q27 33 58.5 37t56 -11.5t34 -46t-11.5 -67.5q-4 -98 7.5 -194.5t15.5 -194.5l6 -119q61 59 136 97t155 49q57 6 121.5 -33t122 -98.5t99.5 -127t56 -116.5q27 -84 24.5 -172t-31 -169t-83.5 -148.5t-133 -110.5q-29 -16 -66 -23.5t-74.5 -9.5t-74.5 4t-68 19 q-4 2 -15.5 10t-25.5 18t-26.5 20.5t-20.5 16.5q-68 8 -109 45q-2 -41 -16 -84q-16 -29 -38.5 -41t-46 -10t-43 18.5t-30.5 47.5q0 4 -2 6q0 10 1 17t3 15q10 41 11.5 85t5.5 85q12 129 12 258q-10 25 -10 52q2 16 10 39q0 115 -6 227.5t-12 226.5q-2 25 -8.5 78t-9.5 112.5 t1.5 112.5t24.5 80zM254 553q-2 -100 1 -174t25.5 -124t71.5 -80t142 -42q88 -25 152.5 10t101 100.5t45 147.5t-12.5 150q-18 61 -57 111t-86 91q-27 23 -48.5 36.5t-43 16.5t-45 -4.5t-54.5 -27.5q-35 -23 -62.5 -45.5t-55.5 -52.5q-29 -33 -46.5 -57.5t-27.5 -55.5z" />
<glyph unicode="c" horiz-adv-x="911" d="M846 717q-6 -37 -28.5 -56.5t-48.5 -21.5t-50.5 14.5t-36.5 53.5q-8 66 -56 98.5t-108.5 38.5t-122 -14.5t-98.5 -61.5q-43 -49 -62.5 -117.5t-17.5 -142.5t23.5 -143.5t58.5 -120.5q14 -18 31.5 -32.5t34.5 -31.5h95t95 4q29 12 49.5 33t36.5 45.5t32.5 49t35.5 46.5 q33 20 62.5 17.5t48 -21t22.5 -47t-15 -61.5q-29 -31 -50 -63.5t-45.5 -62.5t-54.5 -53.5t-73 -37.5q-20 -6 -64 -10.5t-93.5 -4.5t-94.5 4.5t-63 14.5q-80 47 -134.5 137t-80 194.5t-20.5 210t48 183.5q39 70 81 129t120 90q61 27 131 32t137.5 -9.5t128 -48t101.5 -89.5 q25 -33 32 -68.5t13 -76.5z" />
<glyph unicode="d" horiz-adv-x="1060" d="M952 1417q16 -20 22.5 -57t6.5 -82q0 -35 -3 -72t-6 -69.5t-7 -60t-4 -42.5q-6 -115 -12.5 -227.5t-6.5 -226.5q8 -23 10 -39q0 -27 -10 -52q0 -129 12 -258q4 -41 5.5 -85t11.5 -85q2 -8 3 -15t1 -17q-2 -2 -2 -6q-10 -35 -32.5 -51.5t-47.5 -16.5q-41 0 -65.5 36 t-28.5 101q-41 -37 -109 -45q-37 -29 -62.5 -46t-49 -26.5t-49 -12.5t-58.5 -3q-96 0 -171 44t-126 111.5t-76.5 151.5t-25.5 164q0 82 24 162q14 47 54 111.5t94.5 123t116 99.5t118.5 41q82 0 164 -43t143 -103l7 119q4 86 13 172t9 172q0 29 -7 51.5t-7 40.5 q0 35 23.5 57.5t56.5 22.5q38 0 71 -39zM778 553q-12 33 -44 75t-72.5 79.5t-83.5 63.5t-78 26q-39 0 -84 -33t-85 -85t-66.5 -115.5t-26.5 -127.5q0 -55 15 -111.5t45 -101.5t73 -72.5t100 -27.5q27 0 68 10q80 10 128 33.5t72.5 63.5t31.5 97.5t7 135.5v90z" />
<glyph unicode="e" horiz-adv-x="905" d="M549 510q-162 -14 -324 -25q-8 -59 10.5 -117.5t56.5 -105.5t92 -75.5t120 -26.5q45 -4 69.5 1t39 16t24.5 23.5t27 24.5q8 39 27.5 73t66.5 34q41 0 63.5 -24.5t22.5 -55.5q0 -35 -25.5 -79t-71 -84t-105.5 -67.5t-130 -27.5q-92 0 -177 29.5t-149.5 97t-101.5 178.5 t-33 272q2 82 39 161t97.5 140.5t140.5 99.5t170 42q78 0 141 -24.5t108.5 -65.5t70 -96.5t24.5 -116.5q0 -66 -30 -104t-74 -58.5t-95 -27.5t-94 -11zM489 870q-78 -8 -129 -41.5t-81 -74.5q-37 -47 -56 -105q109 4 215.5 13.5t212.5 25.5q20 18 21 41q0 25 -19.5 49.5 t-47 45t-59.5 33.5t-57 13z" />
<glyph unicode="f" horiz-adv-x="1005" d="M129 637q-37 10 -54.5 33.5t-17.5 49t18.5 49.5t55.5 32h180v67q0 121 11.5 227.5t68.5 211.5q41 76 97.5 108.5t117 31.5t120.5 -31t106.5 -80t75 -115.5t28.5 -137.5q10 -23 7 -45t-17.5 -39.5t-39 -25.5t-55.5 2q-47 20 -54 64t-3 89l-16 33q-18 37 -41 70t-70 43 q-45 8 -69.5 -5.5t-40 -39t-25.5 -58t-29 -63.5q-10 -68 -14 -145.5t-2 -161.5h158q43 -4 63.5 -30t20.5 -54.5t-21.5 -53t-64.5 -26.5h-150q4 -94 8 -181t4 -159q0 -43 1 -78t1 -67.5t-3 -66.5t-9 -71q-8 -41 -34.5 -60.5t-55.5 -16t-51.5 27t-22.5 66.5q16 80 14.5 161.5 t-3.5 161.5l-9 283h-184v0z" />
<glyph unicode="g" horiz-adv-x="1060" d="M440 1032q66 27 162 27q53 0 106.5 -9.5t100.5 -31.5l8 10q47 59 75 75.5t40 -20t13 -130t-3 -255t-9 -394t-5 -548.5q0 -86 -8.5 -174t-39 -159.5t-92 -116.5t-170.5 -45q-172 0 -291.5 77.5t-195.5 217.5q-20 37 -22.5 78.5t-10.5 82.5q0 43 24.5 66.5t55.5 23.5 q23 0 44.5 -12t35.5 -41q2 -76 29.5 -137t76 -104t114 -67t143.5 -24q59 0 88.5 37t42 90.5t12.5 110.5v100q0 86 -5 169t-5 169q-49 -72 -102.5 -126t-125.5 -54q-100 0 -180 52.5t-135 130t-85 168.5t-30 169q0 82 25.5 173t72 174t108.5 149.5t138 97.5zM764 578 q10 66 20.5 134t-12.5 134q-53 18 -94 34.5t-84 16.5q-80 0 -142.5 -46t-105.5 -117.5t-64.5 -156.5t-21.5 -163q0 -37 18.5 -92.5t51 -108.5t79 -91t101.5 -38q27 0 53.5 28.5t50 66.5t41 78t27.5 62q29 61 49.5 127t32.5 132z" />
<glyph unicode="h" horiz-adv-x="899" d="M254 571q-4 -4 -4 -8q2 -121 3 -239.5t1 -239.5q-8 -39 -31.5 -58.5t-52.5 -19.5q-31 0 -55.5 23.5t-24.5 70.5q0 143 -2 262t-4 241t-4 260t-2 321q0 78 3 131t13 86t28.5 47t49.5 14q29 0 55.5 -24.5t26.5 -65.5q0 -4 -3 -15t-3 -20v-467q72 78 158 111t153 33 q31 -6 59 -17q25 -10 50.5 -25.5t44.5 -37.5q59 -80 79.5 -198t20.5 -251q0 -68 -1 -120t-2 -97t-2 -87t-3 -89q-8 -39 -31.5 -58.5t-52.5 -19.5q-31 0 -55.5 23.5t-24.5 71.5q2 57 4 101t4 85t3 87t1 105q0 55 -5 118t-19.5 116t-38 89t-62.5 36q-41 0 -86 -30t-85 -73 t-68.5 -90t-34.5 -82z" />
<glyph unicode="i" horiz-adv-x="370" d="M117 776q0 45 24.5 67.5t55.5 22.5q29 0 53 -19.5t31 -60.5q0 -115 -1 -199.5t-2.5 -163.5t-2.5 -164t-1 -202q-8 -39 -31.5 -58t-52.5 -19q-31 0 -55 23.5t-24 70.5q0 113 1 194.5t2 156.5t2 156.5t1 194.5zM276 1223q0 -41 -25.5 -62.5t-53.5 -21.5q-29 0 -53.5 22.5 t-26.5 63.5q2 41 26.5 62.5t53.5 21.5t54 -19.5t25 -66.5z" />
<glyph unicode="j" horiz-adv-x="819" d="M541 868q0 43 23.5 65.5t52 25t55 -17t33.5 -62.5q0 -217 8 -434.5t-13 -434.5q-4 -49 -7 -114.5t-14 -131t-33.5 -123t-65.5 -94.5q-23 -23 -58 -33t-65 -20q-59 -16 -117.5 -16t-110 19.5t-90.5 60.5t-57 106q-20 33 -9 53.5t39.5 24.5t67.5 -10.5t74 -48.5 q27 -27 55.5 -43.5t57 -19.5t55.5 9.5t51 42.5q37 82 47 174.5t19 178.5q18 211 10 421.5t-8 421.5zM725 1223q0 -41 -25.5 -62.5t-54.5 -21.5t-53.5 22.5t-26.5 63.5q2 41 26.5 62.5t53.5 21.5t54.5 -19.5t25.5 -66.5z" />
<glyph unicode="k" horiz-adv-x="989" d="M293 489q-18 -18 -45 -26q-4 -68 -7 -115t-6.5 -90t-5.5 -90t-2 -115q-8 -39 -31.5 -58.5t-52.5 -19.5q-31 0 -55.5 24t-24.5 71q6 281 21.5 554t15.5 554q0 41 2 83t12.5 75.5t31 54t55.5 20.5q31 0 53 -31.5t22 -70.5q0 -70 -1 -149t-3 -156.5t-4 -145t-4 -114 t-3 -63.5t-1 7q12 12 30.5 27.5t62.5 55.5t123 111.5t212 194.5q39 0 61.5 -22.5t22.5 -53.5q0 -37 -35 -71q-14 -6 -27.5 -24.5t-37 -49.5t-64.5 -73t-110 -97l22 -24q12 -16 17.5 -23.5t9.5 -15t10 -18.5t23 -34q45 -68 97 -123t99 -110t83 -118.5t52 -145.5q0 -4 1 -9.5 t1 -9.5q0 -41 -24.5 -63.5t-54.5 -22.5q-25 0 -48.5 16.5t-33.5 51.5q-25 80 -74 151.5t-105.5 137t-110.5 126t-87 119.5q-23 -20 -43.5 -39.5t-38.5 -42.5z" />
<glyph unicode="l" horiz-adv-x="378" d="M100 1391q0 43 23.5 65.5t52.5 24.5t55.5 -17.5t32.5 -62.5q2 -326 10.5 -670t10.5 -672q-6 -37 -29 -56t-48.5 -21t-50 14t-36.5 53q-2 328 -9.5 671t-11.5 671z" />
<glyph unicode="m" horiz-adv-x="1421" d="M86 987q12 35 38 51.5t51.5 13.5t47 -23.5t27.5 -57.5q-2 -12 -2 -23.5v-21.5q84 63 192.5 70.5t202.5 -38.5q23 -10 43.5 -17t36.5 -28q10 -14 16 -28q37 45 95.5 76.5t123 45t129 4t115.5 -41.5q66 -45 92.5 -103.5t46.5 -130.5t20.5 -163t-9 -187t-22.5 -190.5 t-17 -171.5q-8 -41 -35 -60.5t-55.5 -16.5t-51 26.5t-22.5 66.5q6 72 20.5 173t22.5 205.5t3 201t-38 159.5q-23 41 -66.5 57.5t-92 11.5t-90.5 -29.5t-60 -65.5q-20 -47 -23.5 -106.5t-11.5 -108.5l-16 -93q8 -104 5 -207.5t-34 -199.5q-16 -29 -33.5 -39t-50.5 -14 q-4 0 -9 1t-9 1q-31 10 -46.5 25.5t-25.5 43.5q-6 102 8 202.5t31 201.5q-2 35 -5 70.5t-5 70.5q-2 16 -5.5 49t-7.5 67t-8 59.5t-6 27.5q-72 37 -135.5 31.5t-124.5 -58.5q-12 -10 -24.5 -22.5t-18.5 -30.5q-14 -51 -21.5 -115.5t-9.5 -134.5t-2 -141.5t2 -138.5 q8 -31 10 -66t-6 -76v-16h-4q-10 -31 -31.5 -46.5t-46 -15.5t-47 16.5t-33.5 51.5q0 29 -2 66.5t-2 80.5q-14 41 -23 78t-14 88q-14 160 1.5 317.5t21.5 315.5z" />
<glyph unicode="n" horiz-adv-x="962" d="M88 977q12 35 38 51t51.5 13t47 -23.5t27.5 -56.5l-8 -105q53 55 124.5 91t148.5 34t155 -49t145 -156q37 -59 47 -161.5t6 -216t-14 -224.5t-12 -184q-8 -41 -35 -60.5t-55.5 -16.5t-51 26.5t-22.5 66.5q2 47 10 135t11.5 187.5t-6 198t-42 168t-96 97t-170.5 -15.5 q-29 -10 -44 -23.5t-26.5 -27.5t-24.5 -29.5t-34 -33.5q-10 -86 1 -172.5t22.5 -173.5t14.5 -173t-22 -170q-29 -49 -71.5 -52t-77.5 42q-14 41 -21.5 77t-3.5 79q-2 35 -2 83t-1 100t-2 100.5t-5 82.5q-6 74 -8 132.5t-2 113.5t2 113.5t6 132.5z" />
<glyph unicode="o" horiz-adv-x="1071" d="M547 1006q111 2 193.5 -14.5t139 -62.5t84 -126t27.5 -205q0 -55 -6 -121.5t-24.5 -133.5t-52.5 -129t-89 -110.5t-134 -77t-187 -28.5q-133 0 -217 57.5t-132.5 143.5t-65.5 187t-17 192q0 96 47 180t117.5 143.5t155.5 88t161 16.5zM524 846q-86 -4 -147.5 -35t-98 -80 t-50 -112.5t-5.5 -131.5q8 -76 57.5 -146.5t118 -116.5t144 -57t141.5 32q33 23 59.5 66.5t45 97t28.5 110.5t10 107q0 92 -28.5 146t-72.5 82t-98.5 34t-103.5 4z" />
<glyph unicode="p" horiz-adv-x="1019" d="M59 -428q-16 20 -22 57t-6 82q0 35 3 72t6 69.5t7 59.5t4 43q2 31 5 96.5t5 148.5t5.5 173t3.5 169t-3.5 137t-9.5 79q-4 41 -5 85t-11 85q-2 8 -3 15t-1 18q2 2 2 6q10 35 32.5 51t47.5 16q41 0 65.5 -35.5t28.5 -101.5q41 20 83 44t84 43.5t82 32.5t79 13 q96 0 170.5 -44t125 -111.5t77 -151.5t26.5 -164q0 -82 -25 -162q-14 -47 -54 -111.5t-94 -123t-115.5 -99t-119.5 -40.5q-82 0 -163.5 43t-143.5 102l-6 -119q-4 -86 -13 -172t-9 -172q0 -29 7 -51.5t7 -40.5q0 -35 -23.5 -57.5t-56.5 -22.5q-39 0 -72 39zM223 508 q12 -119 58.5 -183.5t97.5 -93.5q59 -35 133 -38q27 -29 71 0.5t87 88t73.5 133t30.5 138.5q0 55 -15.5 111.5t-45 101.5t-72.5 72.5t-100 27.5q-6 0 -34 -5t-66 -18.5t-80 -39t-75.5 -65.5t-52 -96t-10.5 -134z" />
<glyph unicode="q" horiz-adv-x="1060" d="M952 -442q-33 -39 -71 -39q-41 0 -56.5 17.5t-17.5 43t3 56t5 55.5q0 86 -9 172t-13 172l-7 119q-61 -59 -143 -102.5t-164 -43.5q-76 0 -136 32t-105 82t-77 111.5t-51.5 121t-28.5 110.5t-9 80q0 80 25.5 164t76.5 151.5t126 111.5t171 44q39 0 79 -13.5t82 -33t84 -43 t83 -43.5q4 66 28.5 101.5t65.5 35.5q25 0 47.5 -16.5t32.5 -51.5q0 -4 2 -6q0 -10 -1 -17t-3 -16q-10 -41 -11.5 -85t-5.5 -85q-12 -129 -12 -258q10 -25 10 -51q-2 -16 -10 -39q0 -115 6 -227.5t13 -226.5q0 -16 4 -43t7 -60t6 -69.5t3 -71.5q0 -45 -6.5 -82t-22.5 -57z M780 496q6 106 -2 175.5t-42 109.5t-97.5 55.5t-167.5 15.5q-57 0 -100 -27.5t-73 -72.5t-45 -101.5t-15 -111.5q0 -63 26.5 -127t66.5 -116t85 -85t84 -33q35 0 81 15.5t89 52.5t73.5 97.5t36.5 152.5z" />
<glyph unicode="r" horiz-adv-x="827" d="M86 901q0 10 -3 27.5t-5 34t-1 25.5t9 5q4 29 22.5 47.5t42 22.5t49 -8.5t42.5 -44.5q8 -25 8 -54q63 53 140 73t148.5 4.5t132 -67t89.5 -139.5q14 -37 16 -75.5t2 -79.5q-8 -41 -34.5 -60.5t-55.5 -16.5t-51.5 26.5t-22.5 66.5q0 92 -38.5 139t-93 50.5t-114 -38.5 t-98.5 -128q-14 -29 -20 -64q2 -78 2 -141.5t2 -126t6 -130t14 -153.5q0 -10 1 -19t1 -20q-6 -35 -25.5 -53t-43 -23.5t-48 6t-38.5 38.5h-8q0 8 -1 15t-1 17v13q-4 76 -12.5 147.5t-14.5 142t-7 140t11 137.5v59q0 53 -1 103.5t-1 101.5z" />
<glyph unicode="s" horiz-adv-x="880" d="M719 813q6 -43 -13.5 -68.5t-47 -32.5t-56.5 8t-43 56q-12 49 -59 65.5t-99.5 6.5t-95.5 -44t-49 -85q35 -45 82 -73t101.5 -49.5t109.5 -40.5t104 -47t88 -68t60 -103q6 -16 5 -26.5t-5 -26.5q-18 -78 -45 -125t-68 -76t-99.5 -44t-137.5 -30q-78 -14 -145.5 0.5 t-120 50t-84 91t-40.5 122.5q0 43 24 65.5t52.5 25t55 -17t32.5 -62.5q16 -63 57.5 -95t89.5 -39.5t99 6t91 36t62.5 51t12.5 55.5q-10 25 -39 47.5t-63.5 41t-66.5 30.5t-46 18q-37 14 -90 37t-104.5 52.5t-90.5 69.5t-47 89q-4 31 2 62.5t10 62.5q6 27 28 52.5t34 41.5 q53 70 137 95.5t169 12t154.5 -64.5t94.5 -133z" />
<glyph unicode="t" horiz-adv-x="892" d="M289 1192q12 33 34.5 49t47.5 16q29 0 52 -20t30 -61l-7 -238q66 -2 113 -4t78 -9t45 -23.5t14 -49.5q0 -29 -21.5 -53.5t-64.5 -28.5h-168q0 -29 -1 -56.5t-1 -56.5q0 -135 13 -270q4 -53 7 -99t19.5 -81t51 -55.5t104.5 -20.5q39 0 41 18.5t2 40.5q0 29 -4 59t-4 58 q0 45 24.5 67.5t55.5 22.5t49 -17.5t27.5 -47t12.5 -69.5t3 -87q0 -102 -49.5 -158.5t-149.5 -56.5q-45 0 -91 12.5t-88 33t-75 49t-49 63.5q-20 41 -33.5 100.5t-20.5 131t-10.5 151.5t-3.5 162q0 27 1 51t1 51q-53 0 -95 -6t-58 -6q-35 0 -56.5 22.5t-21.5 54.5 q0 63 67.5 83t168.5 24l10 254v0z" />
<glyph unicode="u" horiz-adv-x="997" d="M88 913q0 43 23.5 65.5t52.5 25t55.5 -17t32.5 -62.5q0 -147 -3 -296t-5 -298q0 -25 -2 -52.5t-2 -55t4 -55.5t16 -50q16 -29 59 -32t93.5 8t95.5 30.5t65 32.5q39 29 64 69q45 68 63.5 150t22.5 168t0 172t-4 164q0 43 22.5 65.5t51 24.5t54 -16.5t34.5 -57.5h2v-6 q4 -221 17 -440.5t18 -442.5q-6 -37 -29 -56.5t-48.5 -21.5t-50 14.5t-36.5 53.5q0 29 -1 54.5t-1 53.5q-20 -23 -39 -47t-47 -39q-53 -29 -131 -56.5t-158 -35.5t-151.5 14.5t-108.5 94.5q-20 39 -29.5 109.5t-12.5 156.5t-1 179t5 177t6 152.5t3 103.5z" />
<glyph unicode="v" horiz-adv-x="976" d="M61 926q0 45 25 67.5t55 22.5q29 0 53.5 -19.5t30.5 -60.5q12 -84 43 -173t71 -175t86 -166t89 -146q31 100 42 175t28.5 146t49.5 147.5t101 181.5l8 32q12 33 35 48.5t47 15.5q29 0 53.5 -21.5t24.5 -62.5q0 -39 -16.5 -76t-38 -74.5t-44 -74.5t-34.5 -76 q-39 -117 -63.5 -235.5t-61.5 -235.5q-8 -25 -19.5 -57.5t-27.5 -63.5t-38.5 -52.5t-53.5 -21.5q-49 0 -70.5 24.5t-30 58.5t-10.5 68t-10 52q-23 39 -47.5 73t-46.5 75l-51 98l-50 110q-43 96 -78 194t-51 202z" />
<glyph unicode="w" horiz-adv-x="1499" d="M74 948q0 43 23.5 65.5t52 24.5t55 -17.5t33.5 -62.5q8 -72 33.5 -137t56 -129.5t61.5 -129t49 -132.5q14 80 32.5 170t45.5 177t60.5 161t78.5 119q29 16 50.5 18t50.5 -12q31 -25 39 -51.5t-2 -65.5v-49q12 -61 36.5 -114.5t55 -105.5t60.5 -103.5t50 -108.5 q14 -39 21.5 -78t13.5 -80q20 45 41 88t39 90q47 115 86 256.5t74 262.5q14 39 43.5 53t57.5 7t46.5 -33.5t9.5 -69.5q-18 -68 -38.5 -143t-44 -150.5t-49 -148.5t-52.5 -136q-20 -47 -43.5 -94t-46.5 -94l-29 -64q-2 -2 -2 -6q-4 -20 -7 -39.5t-9 -40.5q-29 -49 -72 -52 t-78 42q-31 41 -45 87t-23 93t-17.5 95t-26.5 93q-33 86 -81 163t-87 159l-8 -35q-27 -102 -48.5 -204.5t-39.5 -206.5q-2 -10 -5.5 -40t-6.5 -63t-7 -58.5t-6 -27.5q6 -31 -2 -53q-8 -20 -24.5 -37.5t-39.5 -22.5q-53 -12 -87.5 14.5t-56 69.5t-32 94.5t-16.5 88.5 q-10 76 -21.5 141.5t-44.5 136.5q-25 53 -49 104.5t-45.5 103.5t-38 105.5t-24.5 112.5zM1126 150q-4 -16 -4 -21q2 10 4 18.5t0 2.5zM1120 115q0 6 2 12v-2q-2 -4 -2 -9t0 -1z" />
<glyph unicode="x" horiz-adv-x="989" d="M170 2q-35 -14 -63.5 -7t-44 28.5t-14.5 51t24 58.5q41 35 84 83t85 102.5t84 110.5t78 110q-84 113 -164.5 208t-138.5 142q-23 31 -21.5 59.5t18 49t44 26.5t62.5 -8q86 -72 157.5 -160t137.5 -180q61 82 126.5 166t112.5 174q23 29 51.5 36t53 -3.5t38 -37t5.5 -63.5 q-53 -102 -125 -196.5t-142 -188.5q-4 -6 -10 -12t-10 -14q72 -98 137.5 -202t102.5 -220q6 -43 -13.5 -69t-47 -33t-56.5 8.5t-43 56.5q-18 57 -66.5 142t-109.5 179q-78 -109 -161 -214t-171 -183z" />
<glyph unicode="y" horiz-adv-x="1085" d="M836 997q12 33 34.5 49.5t47.5 16.5q29 0 52 -20.5t29 -61.5q-14 -74 -39.5 -144.5t-56.5 -140t-63.5 -137t-61.5 -137.5q-37 -88 -57.5 -180t-38.5 -182.5t-42 -174.5t-65 -155l-34 -76q-6 -14 -8.5 -40t-12.5 -26q-2 0 -4 2q-10 -33 -32.5 -48t-47.5 -15 q-31 0 -55.5 22.5t-24.5 69.5q8 45 27.5 88t40.5 82q8 16 22.5 34.5t18.5 35.5q10 47 20.5 95t20.5 95q0 2 -1 4t-1 4q-23 127 -83.5 234.5t-131 211t-133 210t-86.5 233.5q0 43 24.5 66.5t55.5 23.5q23 0 44 -12t35 -41q18 -94 58.5 -175t90.5 -157t103.5 -150.5 t96.5 -158.5q20 82 58 163t77 162t73 162.5t50 167.5z" />
<glyph unicode="z" horiz-adv-x="948" d="M127 834q-35 10 -53.5 32.5t-18.5 48.5q0 39 25.5 56.5t69 23.5t96.5 5t108 -1q49 0 129 2.5t157 -6t132 -34t55 -80.5q0 -12 -15 -40t-36.5 -57.5t-45 -56.5t-38.5 -35q-18 -16 -26.5 -23t-19.5 -19.5t-31.5 -36l-61.5 -70.5q-39 -45 -84 -96.5t-88 -106.5t-81 -114.5 t-62 -121.5q41 -4 88 -6t96 -2q55 0 112.5 2t109.5 4t95 4.5t74 2.5q41 -4 62.5 -29t21.5 -53q0 -29 -21.5 -53.5t-64.5 -28.5q-70 -2 -173 -7.5t-214 -5.5q-68 0 -133.5 2.5t-118.5 13.5t-86 36.5t-33 74.5q16 74 50 143.5t78 136.5t93.5 128t98.5 117l205 237 q-113 0 -225.5 6.5t-225.5 6.5z" />
<glyph unicode="{" horiz-adv-x="669" d="M543 1444q43 -4 63.5 -29.5t20.5 -54.5t-21.5 -53.5t-64.5 -26.5h-95q-25 -41 -32.5 -102.5t-7.5 -129t4 -133t4 -110.5q-18 -23 -40 -38t-46.5 -30.5t-51 -33t-53.5 -44.5q18 -31 52 -52t65 -38q10 -4 20.5 -9t20.5 -11q29 -6 41 -42t15 -93.5t0 -128t-7 -144t-6 -143.5 t4 -123q18 -4 25 -8q27 8 43 24q37 23 68.5 17t48 -29.5t14.5 -56.5t-33 -62q-41 -39 -94.5 -50t-106.5 5q-55 8 -88 55.5t-49 116t-18 149.5t2 157.5t10 140t8 98.5q-41 27 -91 63.5t-84 79.5t-40 90.5t41 94.5q33 35 77 59.5t87 46.5q-4 68 -5 155t10 168t38.5 146.5 t83.5 94.5q39 20 83 17t85 -3z" />
<glyph unicode="|" horiz-adv-x="305" d="M86 1401q12 35 38 51t51.5 13t47 -23.5t27.5 -57.5q-4 -301 -12.5 -599t-8.5 -601q0 -115 3.5 -220t3.5 -220q-8 -41 -35 -60.5t-54.5 -16.5t-49 26.5t-21.5 66.5q0 102 -9.5 206t-0.5 206q-4 309 6 614.5t14 614.5z" />
<glyph unicode="}" horiz-adv-x="669" d="M127 1444q41 0 85 3t83 -17q55 -29 83 -94.5t39 -146.5t9 -168t-4 -155q43 -23 87 -47t77 -59q47 -47 41 -94.5t-40 -90.5t-84 -79.5t-91 -63.5q2 -33 8 -97.5t10 -141t2 -157.5t-18.5 -149.5t-49 -115.5t-88.5 -56q-53 -16 -106 -5t-94 50q-31 29 -33 62t14.5 56.5 t48 29.5t68.5 -17q14 -16 43 -24q6 4 25 8q6 53 4 123t-6 143.5t-7.5 144t0 128t15.5 93.5t41 42q10 6 20 11t21 9q31 16 64.5 38t51.5 52q-27 27 -53 44.5t-51 33t-46.5 30.5t-39.5 38q0 45 4 110.5t4 133t-8 129t-33 102.5h-94q-43 2 -64.5 26.5t-21.5 53.5t20.5 54.5 t63.5 29.5z" />
<glyph unicode="~" horiz-adv-x="1230" d="M317 676q-4 -6 -6 -18.5t-4 -23.5t-5 -17.5t-9 -0.5q-12 -33 -38 -46t-52.5 -9t-46 25.5t-21.5 58.5q0 -8 4 2t8.5 27.5t10.5 37t12 31.5q12 23 26.5 54.5t33 61.5t42 52.5t54.5 26.5q82 12 147.5 -26t127 -88t124.5 -94t141 -46q31 37 34 88t7 98q12 35 38 51.5 t51.5 13.5t47 -23.5t27.5 -57.5q-6 -51 -8 -103.5t-21 -101.5q-31 -82 -81 -110.5t-111.5 -21.5t-129 42t-132 76t-120.5 81t-93 60q-14 -25 -29 -49t-29 -51z" />
<glyph unicode="&#xa1;" horiz-adv-x="360" d="M63 1370q0 53 37 83t90 30q47 0 78 -31t31 -66q0 -23 -10 -45t-26.5 -39.5t-38 -28.5t-42.5 -11q-49 0 -86 27.5t-33 80.5zM90 371q8 172 9 343t1 343q0 47 25 70.5t55 23.5q29 0 52.5 -19.5t31.5 -58.5q0 -279 -6 -551q-2 -39 0 -94t2 -116.5t-3 -122t-14.5 -108.5 t-33 -78t-55.5 -30q-31 0 -52.5 12.5t-21.5 51.5z" />
<glyph unicode="&#xa2;" horiz-adv-x="911" d="M539 1192q8 41 37.5 56.5t59.5 9t50.5 -32t11.5 -66.5l-39 -188q86 -39 142 -109q25 -33 32 -68.5t13 -76.5q-6 -37 -28.5 -56.5t-48.5 -21.5t-50.5 14.5t-36.5 53.5q-8 63 -57 98l-131 -625l61 4q29 12 49.5 33t36.5 45.5t32.5 49t35.5 46.5q33 20 62.5 17.5t48 -21 t22.5 -47t-15 -61.5q-29 -31 -50 -63.5t-45.5 -62.5t-54.5 -53.5t-73 -37.5q-18 -6 -58 -10.5t-87 -6.5l-47 -227q-8 -41 -38 -57.5t-59.5 -10t-50 33t-12.5 67.5l43 211l-6 4q-80 47 -134.5 137t-80 194.5t-20.5 210t48 183.5q39 70 81 129t120 90q94 39 197 33zM299 244 q8 -10 15.5 -18.5t17.5 -18.5l133 637q-49 -4 -94 -23.5t-74 -52.5q-43 -49 -62.5 -117.5t-17.5 -142.5t23.5 -143.5t58.5 -120.5z" />
<glyph unicode="&#xa3;" horiz-adv-x="1185" d="M1063 1272q6 -37 -8.5 -62.5t-39 -36t-53 -2t-51.5 36.5q-4 16 -12 30.5t-16 31.5q-12 0 -41 7t-58.5 14t-55.5 11.5t-34 0.5q-33 -14 -53 -59.5t-34.5 -101t-21.5 -107.5t-14 -83l-26 -159h92q43 -4 63.5 -30t20.5 -54.5t-21.5 -53t-64.5 -26.5h-117 q-16 -74 -33.5 -148.5t-42.5 -144.5q72 -29 135.5 -67t133.5 -66q41 -16 86 -26.5t88 1.5q18 4 34.5 12.5t32.5 16.5l21 10q2 2 -2 0t-6 -4v4q0 43 23.5 65.5t52 24.5t55 -17.5t32.5 -62.5q0 -70 -37.5 -114.5t-94 -69.5t-122 -30t-122.5 5q-49 8 -95.5 29t-91.5 44.5 t-90 49t-90 43.5q-2 0 -3 1t-5 1q-20 -35 -42 -61.5t-48 -42.5q-29 -16 -60.5 -25.5t-64.5 -21.5q-37 -4 -61.5 13.5t-33 42t2 52t41.5 47.5q23 8 44 12.5t38 18.5v10q8 29 27.5 52.5t47.5 40.5q31 66 46.5 141.5t27.5 128.5l6 35h-186q-37 10 -54.5 33.5t-17.5 49t18.5 49 t55.5 32.5h211q10 72 21.5 145.5t26.5 144t37.5 139t57.5 132.5q33 59 73 82.5t85 25.5t93 -9t101 -19q27 -4 51.5 -4t47.5 -17q35 -23 57.5 -63.5t36.5 -77.5z" />
<glyph unicode="&#xa5;" d="M158 328q-37 10 -54.5 33.5t-17.5 49t18.5 49t55.5 32.5q82 0 170 -1.5t180 -3.5v82t-2 88l-6 7q-92 2 -178 3t-166 1q-37 10 -54.5 33.5t-17.5 49t18.5 49t55.5 31.5h113.5t119.5 -2l-327 494q-25 33 -21 65.5t25.5 52t54.5 19.5t63 -28q117 -119 202 -263.5t169 -285.5 q8 -14 16.5 -27.5t18.5 -28.5q10 23 16 45.5t13 38.5q20 53 49.5 124t65.5 142.5t78 137t85 108.5q33 20 62.5 17.5t48 -21t22.5 -47.5t-14 -61q-33 -29 -50.5 -70t-33.5 -82q-35 -84 -77 -168t-85 -168h205q43 -4 63.5 -29.5t20.5 -54t-21.5 -53t-64.5 -27.5h-140.5 t-150.5 3l-14 -19q2 -43 2 -82v-76q80 -2 156.5 -2h148.5q43 -4 63.5 -29.5t20.5 -54t-21.5 -53t-64.5 -27.5h-148.5t-156.5 3q-2 -59 -3 -121t3 -131q-6 -37 -28.5 -56.5t-48.5 -21.5t-50.5 14.5t-36.5 52.5q-2 72 -1 136.5t1 128.5q-92 2 -181 3t-169 1z" />
<glyph unicode="&#xa6;" horiz-adv-x="305" d="M86 1401q14 2 41 5t52.5 2t46 -6t24.5 -18q-2 -178 -6 -352t-8 -350h-166q4 180 9 359.5t7 359.5zM66 172q-2 57 -2.5 113.5t-0.5 115.5h166q-2 -55 -1 -109t1 -108q0 -115 3.5 -220t3.5 -220q-2 0 -28 1t-54.5 2t-53 4t-24.5 9q0 102 -9 206t-1 206z" />
<glyph unicode="&#xa7;" horiz-adv-x="1069" d="M864 1407q41 -4 62.5 -28.5t21.5 -53.5t-21.5 -54.5t-64.5 -27.5q-61 -4 -120.5 -4t-115 -4t-108.5 -17.5t-104 -43.5q10 -25 30.5 -44.5t44 -35t48 -28.5t45.5 -26q39 -16 104.5 -44.5t129 -75t110.5 -113t47 -160.5q0 -80 -51.5 -137t-126.5 -90q61 -72 101 -160 t40 -172q0 -72 -35 -122t-90 -81.5t-122.5 -47t-133.5 -15.5q-45 0 -90 5t-92 15q-41 8 -94.5 27.5t-100.5 47.5t-81 61.5t-34 70.5q0 33 23 55.5t57 22.5q18 0 45 -10q66 -57 165.5 -98.5t199.5 -41.5q33 0 71 6.5t69.5 21.5t53 41t21.5 63t-15.5 77.5t-39 79.5t-52 72 t-53.5 51q-53 4 -104 23.5t-92 58.5q-27 25 -54.5 56.5t-51 67.5t-39 75t-15.5 80q0 33 13.5 64.5t36 59t52 47t62.5 29.5q-70 47 -124 103.5t-54 122.5q0 35 20.5 70.5t69.5 74.5q29 23 65.5 32t71.5 19q94 29 197.5 30t201.5 5zM756 764q-25 25 -59.5 44t-69.5 36 q-16 -18 -43 -31q-20 -4 -48 -7t-53.5 -9t-43 -18.5t-17.5 -35.5q0 -66 50 -109.5t112 -66.5h10q16 -8 35.5 -11t36.5 -3q47 0 87 20.5t62 67.5q-8 35 -25.5 64.5t-33.5 58.5z" />
<glyph unicode="&#xa8;" horiz-adv-x="854" d="M195 1522q57 0 89.5 -11.5t49 -30t18.5 -42t-2 -47.5q0 -61 -42 -109.5t-113 -48.5q-66 0 -99 40t-33 93t33 99.5t99 56.5zM612 1522q57 0 90 -11.5t49.5 -30t18.5 -42t-2 -47.5q0 -61 -42 -109.5t-114 -48.5q-66 0 -98.5 40t-32.5 93t32.5 99.5t98.5 56.5z" />
<glyph unicode="&#xaa;" horiz-adv-x="907" d="M244 1167q-31 -31 -64 -28.5t-53.5 23t-24.5 53t23 65.5q31 61 76 107.5t98 64.5t110.5 5t114.5 -68q35 -35 63.5 -70t45.5 -82q35 -92 42 -189.5t3 -195.5q14 -23 8 -66l-10 -24q-2 -16 -2 -34.5v-35.5q-8 -35 -28.5 -54.5t-45.5 -22.5t-47.5 8.5t-34.5 38.5 q-70 -4 -148.5 15t-138 58t-84 95.5t14.5 123.5q6 12 19.5 24.5t27.5 24t26.5 19.5t16.5 12q27 18 57.5 31.5t59.5 24.5q31 10 64.5 15t66.5 1q-12 47 -36 91t-61 81q-29 18 -41 19t-40 -15q-23 -29 -39 -58.5t-39 -56.5zM516 829q0 23 1 43.5t1 42.5q-31 10 -37 25 q-4 2 -8 2q-16 4 -31.5 -1t-31.5 -11q-51 -20 -91 -53q14 -16 40 -29.5t53.5 -22t55.5 -8.5t48 12z" />
<glyph unicode="&#xab;" horiz-adv-x="1136" d="M96 500q-18 18 -24 38.5t-1 39t17 33t29 22.5l397 397q31 31 63.5 28t54 -24.5t24.5 -54.5t-27 -64l-361 -360l350 -354q31 -31 28 -64t-24.5 -54.5t-54 -24.5t-63.5 28zM506 500q-18 18 -24.5 38.5t-1.5 39t17.5 33t28.5 22.5l398 397q31 31 63.5 28t54 -24.5 t24.5 -54.5t-28 -64l-360 -360l350 -354q31 -31 28 -64t-24.5 -54.5t-54.5 -24.5t-64 28z" />
<glyph unicode="&#xad;" horiz-adv-x="806" d="M156 592q-37 10 -54.5 33.5t-17.5 49t18.5 49.5t55.5 32h473q43 -4 63.5 -30t20.5 -54.5t-21.5 -53t-64.5 -26.5h-473v0z" />
<glyph unicode="&#xb0;" horiz-adv-x="854" d="M84 1114q0 70 26.5 131.5t72.5 107.5t107.5 72.5t131.5 26.5t131 -26.5t107.5 -72.5t73 -107.5t26.5 -131.5t-26.5 -131t-73 -107.5t-107.5 -73t-131 -26.5t-131.5 26.5t-107.5 73t-72.5 107.5t-26.5 131zM166 1114q0 -53 20.5 -99t55 -81t81 -55.5t99.5 -20.5t99 20.5 t81 55.5t55.5 81t20.5 99t-20.5 99.5t-55.5 81t-81 55t-99 20.5t-99.5 -20.5t-81 -55t-55 -81t-20.5 -99.5z" />
<glyph unicode="&#xb1;" horiz-adv-x="1177" d="M494 1198q10 37 33.5 54.5t49 17.5t49 -18.5t31.5 -55.5q0 -78 -1 -164t-3 -174q84 -2 165 -2h155q43 -4 63.5 -29.5t20.5 -54.5t-21.5 -53.5t-64.5 -26.5h-155t-165 2q-2 -84 -2 -163.5v-153.5q-4 -43 -29.5 -63.5t-54 -20.5t-53.5 21.5t-27 64.5v153.5t2 163.5 q-90 2 -174 3t-161 1q-37 10 -54.5 34t-17.5 49.5t18.5 49t55.5 31.5q78 0 162.5 -1t172.5 -3q2 90 3.5 175t1.5 163zM152 45q-37 10 -54.5 33.5t-17.5 49.5t18.5 49.5t55.5 31.5q94 0 198.5 -1t211 -3t211 -3t198.5 -1q43 -4 63.5 -30t20.5 -54.5t-21.5 -53t-64.5 -26.5 q-94 0 -198.5 1t-211 3t-211 3t-198.5 1z" />
<glyph unicode="&#xb4;" horiz-adv-x="514" d="M432 1405q-31 -20 -66.5 -46t-68.5 -55.5t-59.5 -62.5t-36.5 -70q-23 -29 -51.5 -37t-53 2.5t-39 36t-8.5 62.5q14 45 46 88t72 80t83 69.5t80 59.5q33 14 61.5 8t45 -26.5t17.5 -49t-22 -59.5z" />
<glyph unicode="&#xb7;" horiz-adv-x="516" d="M236 819q57 0 89.5 -11t49 -29.5t18.5 -42t-2 -48.5q0 -61 -42 -109.5t-113 -48.5q-66 0 -99 40t-33 94q0 53 33 99t99 56z" />
<glyph unicode="&#xb8;" horiz-adv-x="557" d="M256 45q14 37 30.5 51.5t30 2t18.5 -50.5t-3 -101q14 -2 38.5 0t48 2t41 -3t19.5 -18q18 -96 -8.5 -146t-83.5 -83q-43 -25 -78 -34t-65.5 -5t-61 22.5t-67.5 51.5q-45 59 -27 79.5t86 -10.5q6 -4 15.5 -15t20.5 -21.5t22.5 -18.5t17.5 -8q39 0 63.5 10t41 28.5t28.5 43 t27 53.5q-29 -10 -66 -3t-65 19q-37 18 -45.5 35t-3 35.5t15.5 38.5t10 45z" />
<glyph unicode="&#xba;" horiz-adv-x="811" d="M150 1354q23 31 58.5 54.5t76.5 34.5t81 6t72 -32q72 -12 126 -47t89 -87t48.5 -117.5t3.5 -135.5q-10 -86 -50.5 -127t-117.5 -57q-49 -20 -90 -30.5t-95 -8.5q-55 4 -100 34.5t-78 78t-51.5 105.5t-22.5 117.5t7.5 115t42.5 96.5zM401 1260q-33 10 -47 26 q-20 -2 -34.5 -5t-30.5 -15q-29 -18 -32 -59.5t9.5 -87.5t34 -86t43.5 -52q23 -12 46.5 -10t47 9t47 16.5t45.5 13.5q31 88 -1 162t-128 88z" />
<glyph unicode="&#xbb;" horiz-adv-x="1136" d="M221 86q-31 -31 -63.5 -28t-54 24.5t-24.5 54.5t27 64l351 354l-361 360q-31 31 -27.5 64t25 54.5t54 24.5t63.5 -28l397 -397q33 -16 46.5 -56t-25.5 -77zM631 86q-31 -31 -63.5 -28t-54 24.5t-25 54.5t27.5 64l350 354l-360 360q-31 31 -28 64t24.5 54.5t54.5 24.5 t64 -28l397 -397q33 -16 46 -56t-26 -77z" />
<glyph unicode="&#xbf;" horiz-adv-x="1040" d="M483 141q82 2 130.5 19.5t81 47.5t58 72t62.5 95q-10 23 -6 45t19.5 38.5t39 23.5t54.5 -1q37 -18 48 -52t4 -73t-28.5 -81t-47.5 -79.5t-51.5 -68.5t-41.5 -47q-59 -55 -143 -80t-175.5 -25t-178.5 22.5t-150 61.5q-45 27 -72 83.5t-36 120t0 126t38 100.5 q16 23 43 47.5t57.5 45t61.5 35t55 18.5q4 0 15.5 4t25.5 10t27.5 11.5t23.5 5.5v428q8 41 35 60.5t55.5 16t51 -27t22.5 -66.5t1 -103.5t2 -128t0 -135t-3 -126.5q-10 -23 -19.5 -35t-29.5 -27q-37 -12 -89 -31.5t-99.5 -41t-80 -42t-32.5 -32.5q-2 -35 2 -68t4 -67 q6 -8 29.5 -35t70.5 -43q41 -16 83 -19.5t83 -1.5zM590 1413q4 -53 -33 -80.5t-86 -27.5q-23 0 -43 11t-36.5 28.5t-27 40t-10.5 45.5q0 35 31 65.5t78 30.5q53 0 90 -30t37 -83z" />
<glyph unicode="&#xc0;" d="M317 281q-4 0 -5 -1t-5 -1q-8 0 -20 4q-12 -41 -22.5 -87t-25 -85t-35 -66t-52.5 -27q-12 0 -29 7.5t-33 20.5t-27.5 33.5t-11.5 47.5q0 31 23.5 93.5t59.5 146.5t79 184t80 207q45 125 83 248.5t71.5 220t66.5 157t66 60.5q43 0 66.5 -41t34.5 -99.5t17.5 -122 t16.5 -110.5q27 -123 56.5 -247t68.5 -245.5t88 -239.5t114 -226q12 -25 13 -50q0 -35 -23.5 -57t-54.5 -22q-37 0 -74 46t-69.5 111.5t-59 136t-43.5 119.5q-37 -18 -78 -28.5t-82 -18.5t-83 -15t-80 -20q-20 -10 -43 -21t-48 -13zM463 725q-23 -63 -49.5 -125.5 t-53.5 -128.5q31 12 70 17.5t81 11.5t82 16t71 31q4 2 7 4t7 4q-33 98 -55.5 197.5t-49.5 201.5l-14 56q-23 -72 -47 -142.5t-49 -142.5zM379 1815q-23 31 -22 59.5t17.5 49t44 26.5t62.5 -8q37 -27 80 -59.5t83 -69.5t71.5 -80t46.5 -88q6 -37 -8.5 -62.5t-39 -36t-53 -2 t-51.5 36.5q-10 37 -36.5 70t-59.5 62.5t-68.5 55.5t-66.5 46z" />
<glyph unicode="&#xc1;" d="M317 281q-4 0 -5 -1t-5 -1q-8 0 -20 4q-12 -41 -22.5 -87t-25 -85t-35 -66t-52.5 -27q-12 0 -29 7.5t-33 20.5t-27.5 33.5t-11.5 47.5q0 31 23.5 93.5t59.5 146.5t79 184t80 207q45 125 83 248.5t71.5 220t66.5 157t66 60.5q43 0 66.5 -41t34.5 -99.5t17.5 -122 t16.5 -110.5q27 -123 56.5 -247t68.5 -245.5t88 -239.5t114 -226q12 -25 13 -50q0 -35 -23.5 -57t-54.5 -22q-37 0 -74 46t-69.5 111.5t-59 136t-43.5 119.5q-37 -18 -78 -28.5t-82 -18.5t-83 -15t-80 -20q-20 -10 -43 -21t-48 -13zM463 725q-23 -63 -49.5 -125.5 t-53.5 -128.5q31 12 70 17.5t81 11.5t82 16t71 31q4 2 7 4t7 4q-33 98 -55.5 197.5t-49.5 201.5l-14 56q-23 -72 -47 -142.5t-49 -142.5zM717 1815q-31 -20 -66.5 -46t-68.5 -55.5t-59.5 -62.5t-36.5 -70q-23 -29 -51.5 -37t-53 2.5t-39 36t-8.5 62.5q14 45 46 88t72 80 t83 69.5t80 59.5q33 14 61.5 8t45 -26.5t17.5 -49t-22 -59.5z" />
<glyph unicode="&#xc2;" d="M317 281q-4 0 -5 -1t-5 -1q-8 0 -20 4q-12 -41 -22.5 -87t-25 -85t-35 -66t-52.5 -27q-12 0 -29 7.5t-33 20.5t-27.5 33.5t-11.5 47.5q0 31 23.5 93.5t59.5 146.5t79 184t80 207q45 125 83 248.5t71.5 220t66.5 157t66 60.5q43 0 66.5 -41t34.5 -99.5t17.5 -122 t16.5 -110.5q27 -123 56.5 -247t68.5 -245.5t88 -239.5t114 -226q12 -25 13 -50q0 -35 -23.5 -57t-54.5 -22q-37 0 -74 46t-69.5 111.5t-59 136t-43.5 119.5q-37 -18 -78 -28.5t-82 -18.5t-83 -15t-80 -20q-20 -10 -43 -21t-48 -13zM463 725q-23 -63 -49.5 -125.5 t-53.5 -128.5q31 12 70 17.5t81 11.5t82 16t71 31q4 2 7 4t7 4q-33 98 -55.5 197.5t-49.5 201.5l-14 56q-23 -72 -47 -142.5t-49 -142.5zM361 1627q-31 -51 -78 -52q-31 0 -55.5 24.5t-24.5 70.5q10 37 32.5 63.5t51.5 46t61.5 34.5t63.5 32q43 25 82 54.5t90 29.5 q37 0 75 -20.5t72.5 -50.5t65.5 -63.5t53 -62.5l-12 6q29 -14 43 -35.5t14 -44.5q0 -31 -22.5 -54.5t-59.5 -23.5q-31 0 -59.5 23t-56 52.5t-56 60t-59.5 47.5q-53 -35 -114.5 -63.5t-106.5 -73.5z" />
<glyph unicode="&#xc3;" d="M317 281q-4 0 -5 -1t-5 -1q-8 0 -20 4q-12 -41 -22.5 -87t-25 -85t-35 -66t-52.5 -27q-12 0 -29 7.5t-33 20.5t-27.5 33.5t-11.5 47.5q0 31 23.5 93.5t59.5 146.5t79 184t80 207q45 125 83 248.5t71.5 220t66.5 157t66 60.5q43 0 66.5 -41t34.5 -99.5t17.5 -122 t16.5 -110.5q27 -123 56.5 -247t68.5 -245.5t88 -239.5t114 -226q12 -25 13 -50q0 -35 -23.5 -57t-54.5 -22q-37 0 -74 46t-69.5 111.5t-59 136t-43.5 119.5q-37 -18 -78 -28.5t-82 -18.5t-83 -15t-80 -20q-20 -10 -43 -21t-48 -13zM463 725q-23 -63 -49.5 -125.5 t-53.5 -128.5q31 12 70 17.5t81 11.5t82 16t71 31q4 2 7 4t7 4q-33 98 -55.5 197.5t-49.5 201.5l-14 56q-23 -72 -47 -142.5t-49 -142.5zM368 1686q-8 -41 -34.5 -60.5t-55 -16.5t-51 26.5t-22.5 66.5q8 47 38.5 100.5t73.5 91.5t96.5 51t108.5 -17q25 -12 40 -30t26.5 -37 t21.5 -40.5t25 -42.5q18 10 35.5 27.5t29.5 36.5q14 23 29 45q12 35 37.5 51t51.5 13t47.5 -23.5t27.5 -57.5q-4 -45 -36 -99t-78 -96t-101.5 -61.5t-104.5 2.5q-16 8 -35.5 27.5t-36 43t-30.5 48.5t-23 41q-4 2 -10 2q-58 -29 -70 -92z" />
<glyph unicode="&#xc4;" d="M317 281q-4 0 -5 -1t-5 -1q-8 0 -20 4q-12 -41 -22.5 -87t-25 -85t-35 -66t-52.5 -27q-12 0 -29 7.5t-33 20.5t-27.5 33.5t-11.5 47.5q0 31 23.5 93.5t59.5 146.5t79 184t80 207q45 125 83 248.5t71.5 220t66.5 157t66 60.5q43 0 66.5 -41t34.5 -99.5t17.5 -122 t16.5 -110.5q27 -123 56.5 -247t68.5 -245.5t88 -239.5t114 -226q12 -25 13 -50q0 -35 -23.5 -57t-54.5 -22q-37 0 -74 46t-69.5 111.5t-59 136t-43.5 119.5q-37 -18 -78 -28.5t-82 -18.5t-83 -15t-80 -20q-20 -10 -43 -21t-48 -13zM463 725q-23 -63 -49.5 -125.5 t-53.5 -128.5q31 12 70 17.5t81 11.5t82 16t71 31q4 2 7 4t7 4q-33 98 -55.5 197.5t-49.5 201.5l-14 56q-23 -72 -47 -142.5t-49 -142.5zM322 1932q57 0 89.5 -11.5t49 -30t18.5 -42t-2 -47.5q0 -61 -42 -109.5t-113 -48.5q-66 0 -99 40t-33 93t33 99.5t99 56.5zM739 1932 q57 0 90 -11.5t49.5 -30t18.5 -42t-2 -47.5q0 -61 -42 -109.5t-114 -48.5q-66 0 -98.5 40t-32.5 93t32.5 99.5t98.5 56.5z" />
<glyph unicode="&#xc5;" d="M414 1470q0 72 48 121t120 49t121 -49t49 -121q0 -45 -21.5 -81.5t-56.5 -59.5q16 -61 23.5 -133t17.5 -125q27 -123 56.5 -247t68.5 -245.5t88 -239.5t114 -226q12 -25 13 -50q0 -35 -23.5 -57t-54.5 -22q-37 0 -74 46t-69.5 111.5t-59 136t-43.5 119.5 q-37 -18 -78 -28.5t-82 -18.5t-83 -15t-80 -20q-20 -10 -43 -21t-48 -13q-4 0 -5 -1t-5 -1q-8 0 -20 4q-12 -41 -22.5 -87t-25 -85t-35 -66t-52.5 -27q-12 0 -29 7.5t-33 20.5t-27.5 33.5t-11.5 47.5q0 31 23.5 93.5t59.5 146.5t79 184t80 207q29 82 54.5 162.5t50 155.5 t46 139.5t43.5 113.5q-35 23 -54 59.5t-19 81.5zM463 725q-23 -63 -49.5 -125.5t-53.5 -128.5q31 12 70 17.5t81 11.5t82 16t71 31q4 2 7 4t7 4q-33 98 -55.5 197.5t-49.5 201.5l-14 56q-23 -72 -47 -142.5t-49 -142.5zM483 1470q0 -41 30 -70.5t71 -29.5t70.5 30t29.5 70 q0 41 -29.5 71t-70.5 30t-71 -30t-30 -71z" />
<glyph unicode="&#xc6;" horiz-adv-x="1820" d="M233 68q-18 -33 -44.5 -44.5t-52 -4t-43 31t-17.5 60.5q27 90 79 166.5t111.5 148.5t118.5 144.5t102 152.5q23 43 49.5 102.5t55.5 125t60.5 131t66.5 123t75 101.5t85 66q45 20 87 31.5t84 15.5t85 2t90 -6q68 -6 119 -3t98 7t95 5t108 -7q43 -4 63.5 -29.5t20.5 -54 t-21.5 -53.5t-65.5 -27q-23 2 -52 4.5t-58 3.5t-53.5 2t-38.5 -1q-43 -4 -76 -6.5t-65.5 -4.5t-67.5 -3t-84 1q-14 0 -56 4t-87 9q-4 -104 -18.5 -204t-18.5 -204q-2 -29 -3 -55.5t-1 -53.5q141 12 280 23.5t281 15.5q43 -4 63.5 -29.5t20.5 -54t-21.5 -53t-64.5 -26.5 q-141 -4 -280.5 -15.5t-280.5 -23.5q0 -104 2 -207t4 -207q168 -6 335.5 0t335.5 10q43 -4 63.5 -29.5t20.5 -54t-21.5 -53.5t-64.5 -27q-135 -2 -270 -6t-270 -4q-53 0 -109.5 -1t-112.5 13q-72 20 -71 97q8 59 4 129.5t-6 132.5q-2 47 -2 96v96q-55 -4 -110.5 -6 t-113.5 -4q-43 -61 -93 -119.5t-99 -118t-89.5 -120.5t-60.5 -131zM831 1155q-27 -47 -48 -101.5t-41.5 -111.5t-39 -113.5t-38.5 -105.5l135 8q0 10 1 22.5t1 22.5q2 96 12 190.5t18 188.5z" />
<glyph unicode="&#xc7;" horiz-adv-x="1054" d="M997 1214q12 -25 13 -49q0 -35 -21.5 -56.5t-56.5 -21.5t-59.5 28t-45 65t-42 75.5t-50.5 63.5l-14 6q-10 2 -22.5 3t-24.5 1q-57 0 -96 -2t-71 -14.5t-59.5 -38t-62.5 -72.5q-78 -106 -112.5 -243.5t-34.5 -272.5q0 -45 3 -100.5t14 -112.5t33.5 -111.5t62.5 -97.5 t99.5 -68.5t143.5 -25.5q53 0 97 13.5t73 43.5q8 10 10 20.5t3 28t5 43t19 64.5q16 20 35.5 29.5t37.5 9.5q31 0 53.5 -21.5t22.5 -60.5q0 -8 -2 -23.5t-6 -19.5q0 -143 -99.5 -216t-273.5 -73q-143 0 -238 59.5t-152.5 152.5t-81 209t-23.5 226q0 109 19.5 234t63.5 238.5 t113.5 204.5t169.5 132q53 23 120 27t120 4q88 0 136 -28.5t78 -71.5t50 -92.5t53 -88.5zM504 45q14 37 30.5 51.5t30 2t18.5 -50.5t-3 -101q14 -2 38.5 0t48 2t41 -3t19.5 -18q18 -96 -8.5 -146t-83.5 -83q-43 -25 -78 -34t-65.5 -5t-61 22.5t-67.5 51.5q-45 59 -27 79.5 t86 -10.5q6 -4 15.5 -15t20.5 -21.5t22.5 -18.5t17.5 -8q39 0 63.5 10t41 28.5t28.5 43t27 53.5q-29 -10 -66 -3t-65 19q-37 18 -45.5 35t-3 35.5t15.5 38.5t10 45z" />
<glyph unicode="&#xc8;" horiz-adv-x="983" d="M92 1401q12 35 36 50t48 15q12 8 37 15q80 0 159 -2t156 -4q57 0 120 -1t115 -8.5t87 -26t39 -53.5q0 -12 -1 -25t-13.5 -23.5t-38 -18.5t-72.5 -10q-16 -2 -49 -2h-69t-69.5 1t-52.5 3l-270 6l-4 -565q135 6 269 18t269 14q43 -4 63.5 -29.5t20.5 -54t-21.5 -53 t-64.5 -26.5q-135 -2 -268 -14.5t-268 -16.5q-2 -123 -2 -243v-243q141 0 277.5 6.5t275.5 10.5q43 -4 63.5 -29.5t20.5 -54.5t-21.5 -53.5t-64.5 -26.5q-68 -2 -153 -8t-173 -11.5t-170 -3t-143 16.5q-31 10 -47.5 24.5t-26.5 44.5q-4 348 0 690.5t6 690.5zM322 1815 q-23 31 -22 59.5t17.5 49t44 26.5t62.5 -8q37 -27 80 -59.5t83 -69.5t71.5 -80t46.5 -88q6 -37 -8.5 -62.5t-39 -36t-53 -2t-51.5 36.5q-10 37 -36.5 70t-59.5 62.5t-68.5 55.5t-66.5 46z" />
<glyph unicode="&#xc9;" horiz-adv-x="983" d="M92 1401q12 35 36 50t48 15q12 8 37 15q80 0 159 -2t156 -4q57 0 120 -1t115 -8.5t87 -26t39 -53.5q0 -12 -1 -25t-13.5 -23.5t-38 -18.5t-72.5 -10q-16 -2 -49 -2h-69t-69.5 1t-52.5 3l-270 6l-4 -565q135 6 269 18t269 14q43 -4 63.5 -29.5t20.5 -54t-21.5 -53 t-64.5 -26.5q-135 -2 -268 -14.5t-268 -16.5q-2 -123 -2 -243v-243q141 0 277.5 6.5t275.5 10.5q43 -4 63.5 -29.5t20.5 -54.5t-21.5 -53.5t-64.5 -26.5q-68 -2 -153 -8t-173 -11.5t-170 -3t-143 16.5q-31 10 -47.5 24.5t-26.5 44.5q-4 348 0 690.5t6 690.5zM659 1815 q-31 -20 -66.5 -46t-68.5 -55.5t-59.5 -62.5t-36.5 -70q-23 -29 -51.5 -37t-53 2.5t-39 36t-8.5 62.5q14 45 46 88t72 80t83 69.5t80 59.5q33 14 61.5 8t45 -26.5t17.5 -49t-22 -59.5z" />
<glyph unicode="&#xca;" horiz-adv-x="983" d="M92 1401q12 35 36 50t48 15q12 8 37 15q80 0 159 -2t156 -4q57 0 120 -1t115 -8.5t87 -26t39 -53.5q0 -12 -1 -25t-13.5 -23.5t-38 -18.5t-72.5 -10q-16 -2 -49 -2h-69t-69.5 1t-52.5 3l-270 6l-4 -565q135 6 269 18t269 14q43 -4 63.5 -29.5t20.5 -54t-21.5 -53 t-64.5 -26.5q-135 -2 -268 -14.5t-268 -16.5q-2 -123 -2 -243v-243q141 0 277.5 6.5t275.5 10.5q43 -4 63.5 -29.5t20.5 -54.5t-21.5 -53.5t-64.5 -26.5q-68 -2 -153 -8t-173 -11.5t-170 -3t-143 16.5q-31 10 -47.5 24.5t-26.5 44.5q-4 348 0 690.5t6 690.5zM303 1627 q-31 -51 -78 -52q-31 0 -55.5 24.5t-24.5 70.5q10 37 32.5 63.5t51.5 46t61.5 34.5t63.5 32q43 25 82 54.5t90 29.5q37 0 75 -20.5t72.5 -50.5t65.5 -63.5t53 -62.5l-12 6q29 -14 43 -35.5t14 -44.5q0 -31 -22.5 -54.5t-59.5 -23.5q-31 0 -59.5 23t-56 52.5t-56 60 t-59.5 47.5q-53 -35 -114.5 -63.5t-106.5 -73.5z" />
<glyph unicode="&#xcb;" horiz-adv-x="983" d="M92 1401q12 35 36 50t48 15q12 8 37 15q80 0 159 -2t156 -4q57 0 120 -1t115 -8.5t87 -26t39 -53.5q0 -12 -1 -25t-13.5 -23.5t-38 -18.5t-72.5 -10q-16 -2 -49 -2h-69t-69.5 1t-52.5 3l-270 6l-4 -565q135 6 269 18t269 14q43 -4 63.5 -29.5t20.5 -54t-21.5 -53 t-64.5 -26.5q-135 -2 -268 -14.5t-268 -16.5q-2 -123 -2 -243v-243q141 0 277.5 6.5t275.5 10.5q43 -4 63.5 -29.5t20.5 -54.5t-21.5 -53.5t-64.5 -26.5q-68 -2 -153 -8t-173 -11.5t-170 -3t-143 16.5q-31 10 -47.5 24.5t-26.5 44.5q-4 348 0 690.5t6 690.5zM265 1932 q57 0 89.5 -11.5t49 -30t18.5 -42t-2 -47.5q0 -61 -42 -109.5t-113 -48.5q-66 0 -99 40t-33 93t33 99.5t99 56.5zM682 1932q57 0 90 -11.5t49.5 -30t18.5 -42t-2 -47.5q0 -61 -42 -109.5t-114 -48.5q-66 0 -98.5 40t-32.5 93t32.5 99.5t98.5 56.5z" />
<glyph unicode="&#xcc;" horiz-adv-x="972" d="M104 20q-37 10 -54 34t-17 49.5t18.5 49t54.5 31.5q61 -4 123 -11t121 -13q-4 63 4 95t13 56q6 45 5 87t-3 85q-6 209 -23.5 412t-21.5 412q-59 -2 -116.5 -3t-117.5 -1q-37 10 -54.5 33.5t-17.5 49t18.5 49t55.5 31.5q166 2 329 9.5t329 9.5q43 -4 63.5 -29.5 t20.5 -54.5t-21.5 -53.5t-64.5 -26.5l-261 -6q2 -145 15.5 -278.5t23 -263.5t11.5 -263t-17 -279q-4 -20 -2 -40.5t-2 -40.5v-5h53q37 0 74 7.5t73 15.5t72.5 15t73.5 7q43 -4 63.5 -29.5t20.5 -54t-21.5 -53t-64.5 -26.5q-61 0 -88 -7.5t-49.5 -15.5t-54 -15t-101.5 -7 q-117 -2 -231.5 15t-231.5 23zM318 1815q-23 31 -22 59.5t17.5 49t44 26.5t62.5 -8q37 -27 80 -59.5t83 -69.5t71.5 -80t46.5 -88q6 -37 -8.5 -62.5t-39 -36t-53 -2t-51.5 36.5q-10 37 -36.5 70t-59.5 62.5t-68.5 55.5t-66.5 46z" />
<glyph unicode="&#xcd;" horiz-adv-x="972" d="M104 20q-37 10 -54 34t-17 49.5t18.5 49t54.5 31.5q61 -4 123 -11t121 -13q-4 63 4 95t13 56q6 45 5 87t-3 85q-6 209 -23.5 412t-21.5 412q-59 -2 -116.5 -3t-117.5 -1q-37 10 -54.5 33.5t-17.5 49t18.5 49t55.5 31.5q166 2 329 9.5t329 9.5q43 -4 63.5 -29.5 t20.5 -54.5t-21.5 -53.5t-64.5 -26.5l-261 -6q2 -145 15.5 -278.5t23 -263.5t11.5 -263t-17 -279q-4 -20 -2 -40.5t-2 -40.5v-5h53q37 0 74 7.5t73 15.5t72.5 15t73.5 7q43 -4 63.5 -29.5t20.5 -54t-21.5 -53t-64.5 -26.5q-61 0 -88 -7.5t-49.5 -15.5t-54 -15t-101.5 -7 q-117 -2 -231.5 15t-231.5 23zM655 1815q-31 -20 -66.5 -46t-68.5 -55.5t-59.5 -62.5t-36.5 -70q-23 -29 -51.5 -37t-53 2.5t-39 36t-8.5 62.5q14 45 46 88t72 80t83 69.5t80 59.5q33 14 61.5 8t45 -26.5t17.5 -49t-22 -59.5z" />
<glyph unicode="&#xce;" horiz-adv-x="972" d="M104 20q-37 10 -54 34t-17 49.5t18.5 49t54.5 31.5q61 -4 123 -11t121 -13q-4 63 4 95t13 56q6 45 5 87t-3 85q-6 209 -23.5 412t-21.5 412q-59 -2 -116.5 -3t-117.5 -1q-37 10 -54.5 33.5t-17.5 49t18.5 49t55.5 31.5q166 2 329 9.5t329 9.5q43 -4 63.5 -29.5 t20.5 -54.5t-21.5 -53.5t-64.5 -26.5l-261 -6q2 -145 15.5 -278.5t23 -263.5t11.5 -263t-17 -279q-4 -20 -2 -40.5t-2 -40.5v-5h53q37 0 74 7.5t73 15.5t72.5 15t73.5 7q43 -4 63.5 -29.5t20.5 -54t-21.5 -53t-64.5 -26.5q-61 0 -88 -7.5t-49.5 -15.5t-54 -15t-101.5 -7 q-117 -2 -231.5 15t-231.5 23zM297 1627q-31 -51 -78 -52q-31 0 -55.5 24.5t-24.5 70.5q10 37 32.5 63.5t51.5 46t61.5 34.5t63.5 32q43 25 82 54.5t90 29.5q37 0 75 -20.5t72.5 -50.5t65.5 -63.5t53 -62.5l-12 6q29 -14 43 -35.5t14 -44.5q0 -31 -22.5 -54.5t-59.5 -23.5 q-31 0 -59.5 23t-56 52.5t-56 60t-59.5 47.5q-53 -35 -114.5 -63.5t-106.5 -73.5z" />
<glyph unicode="&#xcf;" horiz-adv-x="972" d="M104 20q-37 10 -54 34t-17 49.5t18.5 49t54.5 31.5q61 -4 123 -11t121 -13q-4 63 4 95t13 56q6 45 5 87t-3 85q-6 209 -23.5 412t-21.5 412q-59 -2 -116.5 -3t-117.5 -1q-37 10 -54.5 33.5t-17.5 49t18.5 49t55.5 31.5q166 2 329 9.5t329 9.5q43 -4 63.5 -29.5 t20.5 -54.5t-21.5 -53.5t-64.5 -26.5l-261 -6q2 -145 15.5 -278.5t23 -263.5t11.5 -263t-17 -279q-4 -20 -2 -40.5t-2 -40.5v-5h53q37 0 74 7.5t73 15.5t72.5 15t73.5 7q43 -4 63.5 -29.5t20.5 -54t-21.5 -53t-64.5 -26.5q-61 0 -88 -7.5t-49.5 -15.5t-54 -15t-101.5 -7 q-117 -2 -231.5 15t-231.5 23zM258 1932q57 0 89.5 -11.5t49 -30t18.5 -42t-2 -47.5q0 -61 -42 -109.5t-113 -48.5q-66 0 -99 40t-33 93t33 99.5t99 56.5zM675 1932q57 0 90 -11.5t49.5 -30t18.5 -42t-2 -47.5q0 -61 -42 -109.5t-114 -48.5q-66 0 -98.5 40t-32.5 93 t32.5 99.5t98.5 56.5z" />
<glyph unicode="&#xd0;" horiz-adv-x="1308" d="M147 631q-37 10 -54 33.5t-17 49t18.5 49t55.5 32.5h153q0 66 1 131t1 133q-2 16 -2 33.5v35.5q0 20 2 41t6 39q-29 10 -43 33t-14 45q0 27 18.5 49.5t55.5 32.5q66 2 139.5 9t146.5 7q70 0 134.5 -11t123.5 -44q49 -29 83 -74t65 -90q23 -33 48.5 -62.5t45.5 -64.5 q59 -102 92 -217.5t33 -234.5q0 -166 -53 -282t-140.5 -193.5t-199 -127t-230.5 -81.5q-35 -10 -79 -11q-35 0 -71 8.5t-58 28.5q-33 31 -50.5 102.5t-26.5 154.5t-13.5 161t-6.5 119q-4 41 -5 83t-3 83h-156zM793 1186q-23 18 -74 25.5t-117 7.5q-31 0 -61.5 -1t-59.5 -4 q0 -25 -12 -45v-4q-4 -92 -7 -185t-3 -185h164q43 -4 63.5 -30t20.5 -54.5t-21.5 -53t-64.5 -26.5h-160q4 -147 18.5 -289.5t42.5 -284.5q14 0 27.5 1t28.5 3q88 25 178 63t161.5 97.5t116.5 145.5t45 211q0 76 -14 141t-41 124.5t-63.5 118t-79.5 117.5q-23 29 -41 56.5 t-47 50.5z" />
<glyph unicode="&#xd1;" horiz-adv-x="1034" d="M262 1038q-6 -252 -9 -425t-6 -286.5t-4 -176t-1 -93v-38v-9.5q0 -33 -21.5 -55.5t-58.5 -22.5q-29 0 -47.5 14.5t-28.5 37t-14 50t-4 54.5q0 29 1 110t2 191.5t3 236.5t3 245.5t1 218v153.5q0 37 3 68.5t13 56.5t27.5 39t48.5 14q25 -4 39 -10t33 -22 q80 -133 161.5 -266.5t147.5 -274.5q51 -111 102.5 -233.5t100.5 -237.5q-25 242 -23 479.5t12 474.5q12 33 35 49.5t47 16.5q29 0 52.5 -24.5t29.5 -65.5q-4 -111 -2 -211.5t6 -197.5t9.5 -196.5t5.5 -209.5q0 -96 1 -211t9 -211q20 -37 20 -70q0 -53 -29.5 -75.5 t-66.5 -26.5q-41 -4 -86 54t-92 154.5t-98.5 219.5t-104.5 251t-108.5 250.5t-110.5 216.5q0 -2 1 -3t1 -3zM335 1686q-8 -41 -34.5 -60.5t-55 -16.5t-51 26.5t-22.5 66.5q8 47 38.5 100.5t73.5 91.5t96.5 51t108.5 -17q25 -12 40 -30t26.5 -37t21.5 -40.5t25 -42.5 q18 10 35.5 27.5t29.5 36.5q14 23 29 45q12 35 37.5 51t51.5 13t47.5 -23.5t27.5 -57.5q-4 -45 -36 -99t-78 -96t-101.5 -61.5t-104.5 2.5q-16 8 -35.5 27.5t-36 43t-30.5 48.5t-23 41q-4 2 -10 2q-58 -29 -70 -92z" />
<glyph unicode="&#xd2;" horiz-adv-x="1437" d="M723 1444q111 0 225.5 -45t207.5 -129t152.5 -203t59.5 -268q0 -135 -47 -276.5t-133 -257t-205 -190.5t-262 -75q-164 0 -285 55.5t-201.5 147.5t-120.5 213t-40 250t45 268t130 254t204.5 187.5t269.5 68.5zM741 1307q-109 0 -198.5 -59.5t-154 -154t-101.5 -213 t-37 -235.5q0 -96 25.5 -183t82 -152.5t144.5 -105.5t213 -40q117 0 206 60.5t150.5 153.5t92 206.5t30.5 218.5q0 88 -27.5 174t-85 156.5t-142.5 117t-198 56.5zM549 1815q-23 31 -22 59.5t17.5 49t44 26.5t62.5 -8q37 -27 80 -59.5t83 -69.5t71.5 -80t46.5 -88 q6 -37 -8.5 -62.5t-39 -36t-53 -2t-51.5 36.5q-10 37 -36.5 70t-59.5 62.5t-68.5 55.5t-66.5 46z" />
<glyph unicode="&#xd3;" horiz-adv-x="1437" d="M723 1444q111 0 225.5 -45t207.5 -129t152.5 -203t59.5 -268q0 -135 -47 -276.5t-133 -257t-205 -190.5t-262 -75q-164 0 -285 55.5t-201.5 147.5t-120.5 213t-40 250t45 268t130 254t204.5 187.5t269.5 68.5zM741 1307q-109 0 -198.5 -59.5t-154 -154t-101.5 -213 t-37 -235.5q0 -96 25.5 -183t82 -152.5t144.5 -105.5t213 -40q117 0 206 60.5t150.5 153.5t92 206.5t30.5 218.5q0 88 -27.5 174t-85 156.5t-142.5 117t-198 56.5zM887 1815q-31 -20 -66.5 -46t-68.5 -55.5t-59.5 -62.5t-36.5 -70q-23 -29 -51.5 -37t-53 2.5t-39 36 t-8.5 62.5q14 45 46 88t72 80t83 69.5t80 59.5q33 14 61.5 8t45 -26.5t17.5 -49t-22 -59.5z" />
<glyph unicode="&#xd4;" horiz-adv-x="1437" d="M723 1444q111 0 225.5 -45t207.5 -129t152.5 -203t59.5 -268q0 -135 -47 -276.5t-133 -257t-205 -190.5t-262 -75q-164 0 -285 55.5t-201.5 147.5t-120.5 213t-40 250t45 268t130 254t204.5 187.5t269.5 68.5zM741 1307q-109 0 -198.5 -59.5t-154 -154t-101.5 -213 t-37 -235.5q0 -96 25.5 -183t82 -152.5t144.5 -105.5t213 -40q117 0 206 60.5t150.5 153.5t92 206.5t30.5 218.5q0 88 -27.5 174t-85 156.5t-142.5 117t-198 56.5zM531 1627q-31 -51 -78 -52q-31 0 -55.5 24.5t-24.5 70.5q10 37 32.5 63.5t51.5 46t61.5 34.5t63.5 32 q43 25 82 54.5t90 29.5q37 0 75 -20.5t72.5 -50.5t65.5 -63.5t53 -62.5l-12 6q29 -14 43 -35.5t14 -44.5q0 -31 -22.5 -54.5t-59.5 -23.5q-31 0 -59.5 23t-56 52.5t-56 60t-59.5 47.5q-53 -35 -114.5 -63.5t-106.5 -73.5z" />
<glyph unicode="&#xd5;" horiz-adv-x="1437" d="M723 1444q111 0 225.5 -45t207.5 -129t152.5 -203t59.5 -268q0 -135 -47 -276.5t-133 -257t-205 -190.5t-262 -75q-164 0 -285 55.5t-201.5 147.5t-120.5 213t-40 250t45 268t130 254t204.5 187.5t269.5 68.5zM741 1307q-109 0 -198.5 -59.5t-154 -154t-101.5 -213 t-37 -235.5q0 -96 25.5 -183t82 -152.5t144.5 -105.5t213 -40q117 0 206 60.5t150.5 153.5t92 206.5t30.5 218.5q0 88 -27.5 174t-85 156.5t-142.5 117t-198 56.5zM538 1686q-8 -41 -34.5 -60.5t-55 -16.5t-51 26.5t-22.5 66.5q8 47 38.5 100.5t73.5 91.5t96.5 51t108.5 -17 q25 -12 40 -30t26.5 -37t21.5 -40.5t25 -42.5q18 10 35.5 27.5t29.5 36.5q14 23 29 45q12 35 37.5 51t51.5 13t47.5 -23.5t27.5 -57.5q-4 -45 -36 -99t-78 -96t-101.5 -61.5t-104.5 2.5q-16 8 -35.5 27.5t-36 43t-30.5 48.5t-23 41q-4 2 -10 2q-58 -29 -70 -92z" />
<glyph unicode="&#xd6;" horiz-adv-x="1437" d="M723 1444q111 0 225.5 -45t207.5 -129t152.5 -203t59.5 -268q0 -135 -47 -276.5t-133 -257t-205 -190.5t-262 -75q-164 0 -285 55.5t-201.5 147.5t-120.5 213t-40 250t45 268t130 254t204.5 187.5t269.5 68.5zM741 1307q-109 0 -198.5 -59.5t-154 -154t-101.5 -213 t-37 -235.5q0 -96 25.5 -183t82 -152.5t144.5 -105.5t213 -40q117 0 206 60.5t150.5 153.5t92 206.5t30.5 218.5q0 88 -27.5 174t-85 156.5t-142.5 117t-198 56.5zM492 1932q57 0 89.5 -11.5t49 -30t18.5 -42t-2 -47.5q0 -61 -42 -109.5t-113 -48.5q-66 0 -99 40t-33 93 t33 99.5t99 56.5zM909 1932q57 0 90 -11.5t49.5 -30t18.5 -42t-2 -47.5q0 -61 -42 -109.5t-114 -48.5q-66 0 -98.5 40t-32.5 93t32.5 99.5t98.5 56.5z" />
<glyph unicode="&#xd8;" horiz-adv-x="1437" d="M723 1444q43 0 87 -7t87 -20q20 55 23 96q12 35 37.5 51.5t51 13.5t47 -23.5t27.5 -57.5q-6 -66 -34 -149q68 -41 126 -96.5t101 -124t67.5 -151.5t24.5 -177q0 -135 -47 -276.5t-133 -257t-205 -190.5t-262 -75q-35 0 -67.5 2t-63.5 8q-4 -25 -7 -50.5t-8 -49.5 q-8 -41 -34.5 -60.5t-55 -16.5t-51 26.5t-22.5 66.5q4 33 9 65t13 64q-90 39 -157.5 103.5t-112.5 144.5t-67.5 172t-22.5 191q0 129 45 268t130 254t204.5 187.5t269.5 68.5zM741 1307q-109 0 -198.5 -59.5t-154 -154t-101.5 -213t-37 -235.5q0 -135 53 -252t172 -178 q55 190 130 378.5t128 362.5q23 66 44.5 133.5t43.5 133.5l27 63q-25 8 -51.5 12.5t-55.5 8.5zM938 1057q-33 -98 -74 -208t-83 -223.5t-82 -229t-70 -228.5q20 -4 41.5 -4h44.5q117 0 206 60.5t150.5 153.5t92 206.5t30.5 218.5q0 115 -49 226.5t-146 182.5 q-16 -43 -33.5 -81.5t-27.5 -73.5z" />
<glyph unicode="&#xd9;" horiz-adv-x="1165" d="M104 1391q12 33 35 49t47 16q29 0 52.5 -20.5t29.5 -61.5q-2 -90 -4 -177t-2 -177v-150.5t8.5 -187.5t28.5 -194.5t59 -174t101.5 -126t156.5 -48.5t151.5 63.5t89.5 168t43 241t11 283.5q0 135 -6 264t-6 227q0 45 24.5 68t55.5 23q29 0 53.5 -19.5t30.5 -60.5 q0 -104 6 -233.5t6 -270.5q0 -164 -15.5 -327t-64.5 -294t-139 -213t-238 -82q-127 0 -216 52.5t-146 136.5t-89 193.5t-47.5 222t-18.5 222t-3 195.5q0 98 2 196zM414 1815q-23 31 -22 59.5t17.5 49t44 26.5t62.5 -8q37 -27 80 -59.5t83 -69.5t71.5 -80t46.5 -88 q6 -37 -8.5 -62.5t-39 -36t-53 -2t-51.5 36.5q-10 37 -36.5 70t-59.5 62.5t-68.5 55.5t-66.5 46z" />
<glyph unicode="&#xda;" horiz-adv-x="1165" d="M104 1391q12 33 35 49t47 16q29 0 52.5 -20.5t29.5 -61.5q-2 -90 -4 -177t-2 -177v-150.5t8.5 -187.5t28.5 -194.5t59 -174t101.5 -126t156.5 -48.5t151.5 63.5t89.5 168t43 241t11 283.5q0 135 -6 264t-6 227q0 45 24.5 68t55.5 23q29 0 53.5 -19.5t30.5 -60.5 q0 -104 6 -233.5t6 -270.5q0 -164 -15.5 -327t-64.5 -294t-139 -213t-238 -82q-127 0 -216 52.5t-146 136.5t-89 193.5t-47.5 222t-18.5 222t-3 195.5q0 98 2 196zM751 1815q-31 -20 -66.5 -46t-68.5 -55.5t-59.5 -62.5t-36.5 -70q-23 -29 -51.5 -37t-53 2.5t-39 36 t-8.5 62.5q14 45 46 88t72 80t83 69.5t80 59.5q33 14 61.5 8t45 -26.5t17.5 -49t-22 -59.5z" />
<glyph unicode="&#xdb;" horiz-adv-x="1165" d="M104 1391q12 33 35 49t47 16q29 0 52.5 -20.5t29.5 -61.5q-2 -90 -4 -177t-2 -177v-150.5t8.5 -187.5t28.5 -194.5t59 -174t101.5 -126t156.5 -48.5t151.5 63.5t89.5 168t43 241t11 283.5q0 135 -6 264t-6 227q0 45 24.5 68t55.5 23q29 0 53.5 -19.5t30.5 -60.5 q0 -104 6 -233.5t6 -270.5q0 -164 -15.5 -327t-64.5 -294t-139 -213t-238 -82q-127 0 -216 52.5t-146 136.5t-89 193.5t-47.5 222t-18.5 222t-3 195.5q0 98 2 196zM393 1627q-31 -51 -78 -52q-31 0 -55.5 24.5t-24.5 70.5q10 37 32.5 63.5t51.5 46t61.5 34.5t63.5 32 q43 25 82 54.5t90 29.5q37 0 75 -20.5t72.5 -50.5t65.5 -63.5t53 -62.5l-12 6q29 -14 43 -35.5t14 -44.5q0 -31 -22.5 -54.5t-59.5 -23.5q-31 0 -59.5 23t-56 52.5t-56 60t-59.5 47.5q-53 -35 -114.5 -63.5t-106.5 -73.5z" />
<glyph unicode="&#xdc;" horiz-adv-x="1165" d="M104 1391q12 33 35 49t47 16q29 0 52.5 -20.5t29.5 -61.5q-2 -90 -4 -177t-2 -177v-150.5t8.5 -187.5t28.5 -194.5t59 -174t101.5 -126t156.5 -48.5t151.5 63.5t89.5 168t43 241t11 283.5q0 135 -6 264t-6 227q0 45 24.5 68t55.5 23q29 0 53.5 -19.5t30.5 -60.5 q0 -104 6 -233.5t6 -270.5q0 -164 -15.5 -327t-64.5 -294t-139 -213t-238 -82q-127 0 -216 52.5t-146 136.5t-89 193.5t-47.5 222t-18.5 222t-3 195.5q0 98 2 196zM355 1932q57 0 89.5 -11.5t49 -30t18.5 -42t-2 -47.5q0 -61 -42 -109.5t-113 -48.5q-66 0 -99 40t-33 93 t33 99.5t99 56.5zM772 1932q57 0 90 -11.5t49.5 -30t18.5 -42t-2 -47.5q0 -61 -42 -109.5t-114 -48.5q-66 0 -98.5 40t-32.5 93t32.5 99.5t98.5 56.5z" />
<glyph unicode="&#xdd;" d="M66 1323q-25 33 -21 65.5t25.5 52t54.5 19.5t63 -28q117 -119 202 -263.5t169 -285.5q8 -14 16.5 -27.5t18.5 -28.5q10 23 16 45.5t13 38.5q20 53 49.5 124t65.5 142.5t78 137t85 108.5q33 20 62.5 17.5t48 -21t22.5 -47.5t-14 -61q-33 -29 -50.5 -70t-33.5 -82 q-47 -113 -106.5 -228.5t-116.5 -225.5q-10 -16 -19.5 -32t-21.5 -30q4 -80 3 -149.5t-2 -137t-2 -137t1 -149.5q-6 -37 -28.5 -56.5t-48.5 -21.5t-50.5 14.5t-36.5 52.5q-2 82 -1 156t2 144.5t1 143t-2 154.5l-442 666v0zM717 1815q-31 -20 -66.5 -46t-68.5 -55.5 t-59.5 -62.5t-36.5 -70q-23 -29 -51.5 -37t-53 2.5t-39 36t-8.5 62.5q14 45 46 88t72 80t83 69.5t80 59.5q33 14 61.5 8t45 -26.5t17.5 -49t-22 -59.5z" />
<glyph unicode="&#xde;" horiz-adv-x="1705" />
<glyph unicode="&#xdf;" horiz-adv-x="1007" d="M266 6q-8 -39 -30.5 -58.5t-51.5 -19.5q-25 0 -48 16.5t-34 51.5q-4 147 -12 297.5t-8 304.5q0 121 8 237.5t31 233.5q14 70 24.5 111t25.5 71.5t38.5 61t64.5 80.5q29 35 62 45t70 10q86 0 166.5 -49t144 -120t102.5 -147.5t39 -134.5q0 -72 -32.5 -119t-133.5 -75 l-4 -4q41 -23 86 -42.5t76 -60.5q25 -31 45 -82t33.5 -108t21.5 -115.5t8 -107.5q0 -74 -27.5 -132.5t-71.5 -98.5t-99 -61.5t-109 -21.5q-35 0 -87 12.5t-101 36t-84 57.5t-35 75q0 37 24.5 59t53.5 22q16 0 30.5 -8t32 -20.5t39 -26.5t51.5 -26q2 0 4.5 -1.5t4.5 -1.5 q2 -2 4 -2q41 -14 76 -14q72 0 100.5 52.5t28.5 123.5q0 31 -4.5 70t-12.5 79t-21.5 76.5t-33.5 63.5q-20 25 -48 40t-59.5 30.5t-63.5 36t-58 59.5q-8 18 -9 39q0 20 17.5 40.5t43 39t56.5 34t59 25.5q33 12 35 42t-15 67.5t-50 77.5t-68 73t-66.5 54.5t-50.5 21.5 q-82 0 -114 -74q-51 -117 -68.5 -270.5t-17.5 -319.5q0 -164 9 -321.5t13 -284.5z" />
<glyph unicode="&#xe0;" horiz-adv-x="907" d="M223 932q92 70 176 75t168 -32q41 -16 81 -41t63 -62q70 -113 91 -206t18 -184t-21.5 -189t-26.5 -221q-8 -41 -34.5 -60.5t-55.5 -16.5t-51.5 26.5t-22.5 66.5q0 10 1 22.5t3 22.5q-25 -20 -60.5 -43.5t-75.5 -43t-81 -32t-76 -10.5q-96 10 -154.5 62.5t-76.5 123 t5.5 147.5t90.5 138q49 45 101.5 68.5t110 36t115.5 18.5t120 12q2 29 3 36t0 10t-4 8.5t-9 29.5q-6 20 -15.5 40t-25.5 36l-19.5 19.5t-45.5 36t-64.5 30.5t-75.5 6q-43 -6 -73 -35.5t-52.5 -62.5t-44 -58.5t-45.5 -23.5q-37 2 -48.5 28.5t-1 63.5t39 79t73.5 79zM594 346 q4 25 8 49.5t8 48.5q-47 -4 -93 -9t-93 -17q-35 -10 -68.5 -27.5t-62.5 -40.5q-45 -35 -50 -76t17.5 -68.5t65.5 -33.5t94 29q20 14 33.5 21t23.5 14.5t21.5 16.5t29.5 26q4 2 13.5 12t19.5 22.5t19.5 21.5t13.5 11zM285 1405q-23 31 -22 59.5t17.5 49t44 26.5t62.5 -8 q37 -27 80 -59.5t83 -69.5t71.5 -80t46.5 -88q6 -37 -8.5 -62.5t-39 -36t-53 -2t-51.5 36.5q-10 37 -36.5 70t-59.5 62.5t-68.5 55.5t-66.5 46z" />
<glyph unicode="&#xe1;" horiz-adv-x="907" d="M223 932q92 70 176 75t168 -32q41 -16 81 -41t63 -62q70 -113 91 -206t18 -184t-21.5 -189t-26.5 -221q-8 -41 -34.5 -60.5t-55.5 -16.5t-51.5 26.5t-22.5 66.5q0 10 1 22.5t3 22.5q-25 -20 -60.5 -43.5t-75.5 -43t-81 -32t-76 -10.5q-96 10 -154.5 62.5t-76.5 123 t5.5 147.5t90.5 138q49 45 101.5 68.5t110 36t115.5 18.5t120 12q2 29 3 36t0 10t-4 8.5t-9 29.5q-6 20 -15.5 40t-25.5 36l-19.5 19.5t-45.5 36t-64.5 30.5t-75.5 6q-43 -6 -73 -35.5t-52.5 -62.5t-44 -58.5t-45.5 -23.5q-37 2 -48.5 28.5t-1 63.5t39 79t73.5 79zM594 346 q4 25 8 49.5t8 48.5q-47 -4 -93 -9t-93 -17q-35 -10 -68.5 -27.5t-62.5 -40.5q-45 -35 -50 -76t17.5 -68.5t65.5 -33.5t94 29q20 14 33.5 21t23.5 14.5t21.5 16.5t29.5 26q4 2 13.5 12t19.5 22.5t19.5 21.5t13.5 11zM622 1405q-31 -20 -66.5 -46t-68.5 -55.5t-59.5 -62.5 t-36.5 -70q-23 -29 -51.5 -37t-53 2.5t-39 36t-8.5 62.5q14 45 46 88t72 80t83 69.5t80 59.5q33 14 61.5 8t45 -26.5t17.5 -49t-22 -59.5z" />
<glyph unicode="&#xe2;" horiz-adv-x="907" d="M223 932q92 70 176 75t168 -32q41 -16 81 -41t63 -62q70 -113 91 -206t18 -184t-21.5 -189t-26.5 -221q-8 -41 -34.5 -60.5t-55.5 -16.5t-51.5 26.5t-22.5 66.5q0 10 1 22.5t3 22.5q-25 -20 -60.5 -43.5t-75.5 -43t-81 -32t-76 -10.5q-96 10 -154.5 62.5t-76.5 123 t5.5 147.5t90.5 138q49 45 101.5 68.5t110 36t115.5 18.5t120 12q2 29 3 36t0 10t-4 8.5t-9 29.5q-6 20 -15.5 40t-25.5 36l-19.5 19.5t-45.5 36t-64.5 30.5t-75.5 6q-43 -6 -73 -35.5t-52.5 -62.5t-44 -58.5t-45.5 -23.5q-37 2 -48.5 28.5t-1 63.5t39 79t73.5 79zM594 346 q4 25 8 49.5t8 48.5q-47 -4 -93 -9t-93 -17q-35 -10 -68.5 -27.5t-62.5 -40.5q-45 -35 -50 -76t17.5 -68.5t65.5 -33.5t94 29q20 14 33.5 21t23.5 14.5t21.5 16.5t29.5 26q4 2 13.5 12t19.5 22.5t19.5 21.5t13.5 11zM264 1217q-31 -51 -78 -52q-31 0 -55.5 24.5t-24.5 70.5 q10 37 32.5 63.5t51.5 46t61.5 34.5t63.5 32q43 25 82 54.5t90 29.5q37 0 75 -20.5t72.5 -50.5t65.5 -63.5t53 -62.5l-12 6q29 -14 43 -35.5t14 -44.5q0 -31 -22.5 -54.5t-59.5 -23.5q-31 0 -59.5 23t-56 52.5t-56 60t-59.5 47.5q-53 -35 -114.5 -63.5t-106.5 -73.5z" />
<glyph unicode="&#xe3;" horiz-adv-x="907" d="M223 932q92 70 176 75t168 -32q41 -16 81 -41t63 -62q70 -113 91 -206t18 -184t-21.5 -189t-26.5 -221q-8 -41 -34.5 -60.5t-55.5 -16.5t-51.5 26.5t-22.5 66.5q0 10 1 22.5t3 22.5q-25 -20 -60.5 -43.5t-75.5 -43t-81 -32t-76 -10.5q-96 10 -154.5 62.5t-76.5 123 t5.5 147.5t90.5 138q49 45 101.5 68.5t110 36t115.5 18.5t120 12q2 29 3 36t0 10t-4 8.5t-9 29.5q-6 20 -15.5 40t-25.5 36l-19.5 19.5t-45.5 36t-64.5 30.5t-75.5 6q-43 -6 -73 -35.5t-52.5 -62.5t-44 -58.5t-45.5 -23.5q-37 2 -48.5 28.5t-1 63.5t39 79t73.5 79zM594 346 q4 25 8 49.5t8 48.5q-47 -4 -93 -9t-93 -17q-35 -10 -68.5 -27.5t-62.5 -40.5q-45 -35 -50 -76t17.5 -68.5t65.5 -33.5t94 29q20 14 33.5 21t23.5 14.5t21.5 16.5t29.5 26q4 2 13.5 12t19.5 22.5t19.5 21.5t13.5 11zM272 1276q-8 -41 -34.5 -60.5t-55 -16.5t-51 26.5 t-22.5 66.5q8 47 38.5 100.5t73.5 91.5t96.5 51t108.5 -17q25 -12 40 -30t26.5 -37t21.5 -40.5t25 -42.5q18 10 35.5 27.5t29.5 36.5q14 23 29 45q12 35 37.5 51t51.5 13t47.5 -23.5t27.5 -57.5q-4 -45 -36 -99t-78 -96t-101.5 -61.5t-104.5 2.5q-16 8 -35.5 27.5t-36 43 t-30.5 48.5t-23 41q-4 2 -10 2q-58 -29 -70 -92z" />
<glyph unicode="&#xe4;" horiz-adv-x="907" d="M223 932q92 70 176 75t168 -32q41 -16 81 -41t63 -62q70 -113 91 -206t18 -184t-21.5 -189t-26.5 -221q-8 -41 -34.5 -60.5t-55.5 -16.5t-51.5 26.5t-22.5 66.5q0 10 1 22.5t3 22.5q-25 -20 -60.5 -43.5t-75.5 -43t-81 -32t-76 -10.5q-96 10 -154.5 62.5t-76.5 123 t5.5 147.5t90.5 138q49 45 101.5 68.5t110 36t115.5 18.5t120 12q2 29 3 36t0 10t-4 8.5t-9 29.5q-6 20 -15.5 40t-25.5 36l-19.5 19.5t-45.5 36t-64.5 30.5t-75.5 6q-43 -6 -73 -35.5t-52.5 -62.5t-44 -58.5t-45.5 -23.5q-37 2 -48.5 28.5t-1 63.5t39 79t73.5 79zM594 346 q4 25 8 49.5t8 48.5q-47 -4 -93 -9t-93 -17q-35 -10 -68.5 -27.5t-62.5 -40.5q-45 -35 -50 -76t17.5 -68.5t65.5 -33.5t94 29q20 14 33.5 21t23.5 14.5t21.5 16.5t29.5 26q4 2 13.5 12t19.5 22.5t19.5 21.5t13.5 11zM226 1422q57 0 89.5 -11.5t49 -30t18.5 -42t-2 -47.5 q0 -61 -42 -109.5t-113 -48.5q-66 0 -99 40t-33 93t33 99.5t99 56.5zM643 1422q57 0 90 -11.5t49.5 -30t18.5 -42t-2 -47.5q0 -61 -42 -109.5t-114 -48.5q-66 0 -98.5 40t-32.5 93t32.5 99.5t98.5 56.5z" />
<glyph unicode="&#xe5;" horiz-adv-x="907" d="M348 1229q0 -41 30 -71t71 -30t70.5 30t29.5 71t-30 70.5t-70 29.5q-41 0 -71 -29.5t-30 -70.5zM279 1229q0 72 48 121t119 49q72 0 121 -49.5t49 -120.5q0 -72 -49 -121t-121 -49t-119.5 49t-47.5 121zM223 932q92 70 176 75t168 -32q41 -16 81 -41t63 -62 q70 -113 91 -206t18 -184t-21.5 -189t-26.5 -221q-8 -41 -34.5 -60.5t-55.5 -16.5t-51.5 26.5t-22.5 66.5q0 10 1 22.5t3 22.5q-25 -20 -60.5 -43.5t-75.5 -43t-81 -32t-76 -10.5q-96 10 -154.5 62.5t-76.5 123t5.5 147.5t90.5 138q49 45 101.5 68.5t110 36t115.5 18.5 t120 12q2 29 3 36t0 10t-4 8.5t-9 29.5q-6 20 -15.5 40t-25.5 36l-19.5 19.5t-45.5 36t-64.5 30.5t-75.5 6q-43 -6 -73 -35.5t-52.5 -62.5t-44 -58.5t-45.5 -23.5q-37 2 -48.5 28.5t-1 63.5t39 79t73.5 79zM594 346q4 25 8 49.5t8 48.5q-47 -4 -93 -9t-93 -17 q-35 -10 -68.5 -27.5t-62.5 -40.5q-45 -35 -50 -76t17.5 -68.5t65.5 -33.5t94 29q20 14 33.5 21t23.5 14.5t21.5 16.5t29.5 26q4 2 13.5 12t19.5 22.5t19.5 21.5t13.5 11z" />
<glyph unicode="&#xe6;" horiz-adv-x="1507" d="M1071 510q-78 -8 -156.5 -14.5t-156.5 -10.5q0 -23 -2 -46t-6 -48q10 -47 34.5 -90t61.5 -74.5t82 -50t98 -16.5q45 -4 69.5 1t39 16t24.5 23.5t27 24.5q8 39 27.5 73t66.5 34q41 0 63.5 -24.5t22.5 -55.5q0 -35 -25.5 -79t-70.5 -84t-105.5 -67.5t-130.5 -27.5 q-92 0 -174 27.5t-145 93.5q-2 -10 -3 -21.5t-1 -21.5q-8 -41 -28.5 -60.5t-41 -16.5t-37 26.5t-16.5 66.5q0 10 1 22.5t3 22.5q-25 -20 -60.5 -43.5t-75.5 -43t-81 -32t-76 -10.5q-96 10 -154.5 62.5t-77 123t5 147.5t91.5 138q49 45 101 68.5t109.5 36t116 18.5t119.5 12 q2 29 3 36t0 10t-4 8.5t-9 29.5q-6 20 -15.5 40t-25.5 36l-19.5 19.5t-45 36t-64.5 30.5t-76 6q-43 -6 -72.5 -35.5t-52 -62.5t-44 -58.5t-46.5 -23.5q-37 2 -48 28.5t-1 63.5t39 79t74 79q92 70 176 75t168 -32q41 -16 81 -41t62 -62l23 -41q63 78 132.5 128.5t174.5 54.5 q78 0 141.5 -24.5t108.5 -65.5t69.5 -96.5t24.5 -116.5q0 -66 -29.5 -104t-73.5 -58.5t-95.5 -27.5t-94.5 -11zM1012 870q-78 -8 -129.5 -41.5t-81.5 -74.5q-37 -47 -56 -105q109 4 215.5 13.5t213.5 25.5q20 18 20 41q0 25 -19.5 49.5t-47 45t-59 33.5t-56.5 13zM573 346 q4 25 8.5 49.5t8.5 48.5q-47 -4 -93 -9t-94 -17q-35 -10 -68.5 -27.5t-62.5 -40.5q-45 -35 -50 -76t17.5 -68.5t65.5 -33.5t94 29q20 14 33.5 21t24 14.5t21.5 16.5t30 26q4 2 13 12t19.5 22.5t19.5 21.5t13 11z" />
<glyph unicode="&#xe7;" horiz-adv-x="911" d="M846 717q-6 -37 -28.5 -56.5t-48.5 -21.5t-50.5 14.5t-36.5 53.5q-8 66 -56 98.5t-108.5 38.5t-122 -14.5t-98.5 -61.5q-43 -49 -62.5 -117.5t-17.5 -142.5t23.5 -143.5t58.5 -120.5q14 -18 31.5 -32.5t34.5 -31.5h95t95 4q29 12 49.5 33t36.5 45.5t32.5 49t35.5 46.5 q33 20 62.5 17.5t48 -21t22.5 -47t-15 -61.5q-29 -31 -50 -63.5t-45.5 -62.5t-54.5 -53.5t-73 -37.5q-20 -6 -64 -10.5t-93.5 -4.5t-94.5 4.5t-63 14.5q-80 47 -134.5 137t-80 194.5t-20.5 210t48 183.5q39 70 81 129t120 90q61 27 131 32t137.5 -9.5t128 -48t101.5 -89.5 q25 -33 32 -68.5t13 -76.5zM432 45q14 37 30.5 51.5t30 2t18.5 -50.5t-3 -101q14 -2 38.5 0t48 2t41 -3t19.5 -18q18 -96 -8.5 -146t-83.5 -83q-43 -25 -78 -34t-65.5 -5t-61 22.5t-67.5 51.5q-45 59 -27 79.5t86 -10.5q6 -4 15.5 -15t20.5 -21.5t22.5 -18.5t17.5 -8 q39 0 63.5 10t41 28.5t28.5 43t27 53.5q-29 -10 -66 -3t-65 19q-37 18 -45.5 35t-3 35.5t15.5 38.5t10 45z" />
<glyph unicode="&#xe8;" horiz-adv-x="905" d="M549 510q-162 -14 -324 -25q-8 -59 10.5 -117.5t56.5 -105.5t92 -75.5t120 -26.5q45 -4 69.5 1t39 16t24.5 23.5t27 24.5q8 39 27.5 73t66.5 34q41 0 63.5 -24.5t22.5 -55.5q0 -35 -25.5 -79t-71 -84t-105.5 -67.5t-130 -27.5q-92 0 -177 29.5t-149.5 97t-101.5 178.5 t-33 272q2 82 39 161t97.5 140.5t140.5 99.5t170 42q78 0 141 -24.5t108.5 -65.5t70 -96.5t24.5 -116.5q0 -66 -30 -104t-74 -58.5t-95 -27.5t-94 -11zM489 870q-78 -8 -129 -41.5t-81 -74.5q-37 -47 -56 -105q109 4 215.5 13.5t212.5 25.5q20 18 21 41q0 25 -19.5 49.5 t-47 45t-59.5 33.5t-57 13zM283 1405q-23 31 -22 59.5t17.5 49t44 26.5t62.5 -8q37 -27 80 -59.5t83 -69.5t71.5 -80t46.5 -88q6 -37 -8.5 -62.5t-39 -36t-53 -2t-51.5 36.5q-10 37 -36.5 70t-59.5 62.5t-68.5 55.5t-66.5 46z" />
<glyph unicode="&#xe9;" horiz-adv-x="905" d="M549 510q-162 -14 -324 -25q-8 -59 10.5 -117.5t56.5 -105.5t92 -75.5t120 -26.5q45 -4 69.5 1t39 16t24.5 23.5t27 24.5q8 39 27.5 73t66.5 34q41 0 63.5 -24.5t22.5 -55.5q0 -35 -25.5 -79t-71 -84t-105.5 -67.5t-130 -27.5q-92 0 -177 29.5t-149.5 97t-101.5 178.5 t-33 272q2 82 39 161t97.5 140.5t140.5 99.5t170 42q78 0 141 -24.5t108.5 -65.5t70 -96.5t24.5 -116.5q0 -66 -30 -104t-74 -58.5t-95 -27.5t-94 -11zM489 870q-78 -8 -129 -41.5t-81 -74.5q-37 -47 -56 -105q109 4 215.5 13.5t212.5 25.5q20 18 21 41q0 25 -19.5 49.5 t-47 45t-59.5 33.5t-57 13zM620 1405q-31 -20 -66.5 -46t-68.5 -55.5t-59.5 -62.5t-36.5 -70q-23 -29 -51.5 -37t-53 2.5t-39 36t-8.5 62.5q14 45 46 88t72 80t83 69.5t80 59.5q33 14 61.5 8t45 -26.5t17.5 -49t-22 -59.5z" />
<glyph unicode="&#xea;" horiz-adv-x="905" d="M549 510q-162 -14 -324 -25q-8 -59 10.5 -117.5t56.5 -105.5t92 -75.5t120 -26.5q45 -4 69.5 1t39 16t24.5 23.5t27 24.5q8 39 27.5 73t66.5 34q41 0 63.5 -24.5t22.5 -55.5q0 -35 -25.5 -79t-71 -84t-105.5 -67.5t-130 -27.5q-92 0 -177 29.5t-149.5 97t-101.5 178.5 t-33 272q2 82 39 161t97.5 140.5t140.5 99.5t170 42q78 0 141 -24.5t108.5 -65.5t70 -96.5t24.5 -116.5q0 -66 -30 -104t-74 -58.5t-95 -27.5t-94 -11zM489 870q-78 -8 -129 -41.5t-81 -74.5q-37 -47 -56 -105q109 4 215.5 13.5t212.5 25.5q20 18 21 41q0 25 -19.5 49.5 t-47 45t-59.5 33.5t-57 13zM264 1217q-31 -51 -78 -52q-31 0 -55.5 24.5t-24.5 70.5q10 37 32.5 63.5t51.5 46t61.5 34.5t63.5 32q43 25 82 54.5t90 29.5q37 0 75 -20.5t72.5 -50.5t65.5 -63.5t53 -62.5l-12 6q29 -14 43 -35.5t14 -44.5q0 -31 -22.5 -54.5t-59.5 -23.5 q-31 0 -59.5 23t-56 52.5t-56 60t-59.5 47.5q-53 -35 -114.5 -63.5t-106.5 -73.5z" />
<glyph unicode="&#xeb;" horiz-adv-x="905" d="M549 510q-162 -14 -324 -25q-8 -59 10.5 -117.5t56.5 -105.5t92 -75.5t120 -26.5q45 -4 69.5 1t39 16t24.5 23.5t27 24.5q8 39 27.5 73t66.5 34q41 0 63.5 -24.5t22.5 -55.5q0 -35 -25.5 -79t-71 -84t-105.5 -67.5t-130 -27.5q-92 0 -177 29.5t-149.5 97t-101.5 178.5 t-33 272q2 82 39 161t97.5 140.5t140.5 99.5t170 42q78 0 141 -24.5t108.5 -65.5t70 -96.5t24.5 -116.5q0 -66 -30 -104t-74 -58.5t-95 -27.5t-94 -11zM489 870q-78 -8 -129 -41.5t-81 -74.5q-37 -47 -56 -105q109 4 215.5 13.5t212.5 25.5q20 18 21 41q0 25 -19.5 49.5 t-47 45t-59.5 33.5t-57 13zM226 1522q57 0 89.5 -11.5t49 -30t18.5 -42t-2 -47.5q0 -61 -42 -109.5t-113 -48.5q-66 0 -99 40t-33 93t33 99.5t99 56.5zM643 1522q57 0 90 -11.5t49.5 -30t18.5 -42t-2 -47.5q0 -61 -42 -109.5t-114 -48.5q-66 0 -98.5 40t-32.5 93t32.5 99.5 t98.5 56.5z" />
<glyph unicode="&#xec;" horiz-adv-x="512" d="M180 776q0 45 24.5 67.5t55.5 22.5q29 0 53 -19.5t31 -60.5q0 -115 -1 -199.5t-2.5 -163.5t-2.5 -164t-1 -202q-8 -39 -31.5 -58t-52.5 -19q-31 0 -55 23.5t-24 70.5q0 113 1 194.5t2 156.5t2 156.5t1 194.5zM80 1264q-23 31 -22 59.5t17.5 49t44 26.5t62.5 -8 q37 -27 80 -59.5t83 -69.5t71.5 -80t46.5 -88q6 -37 -8.5 -62.5t-39 -36t-53 -2t-51.5 36.5q-10 37 -36.5 70t-59.5 62.5t-68.5 55.5t-66.5 46z" />
<glyph unicode="&#xed;" horiz-adv-x="499" d="M168 776q0 45 24.5 67.5t55.5 22.5q29 0 53 -19.5t31 -60.5q0 -115 -1 -199.5t-2.5 -163.5t-2.5 -164t-1 -202q-8 -39 -31.5 -58t-52.5 -19q-31 0 -55 23.5t-24 70.5q0 113 1 194.5t2 156.5t2 156.5t1 194.5zM430 1206q-31 -20 -66.5 -46t-68.5 -55.5t-59.5 -62.5 t-36.5 -70q-23 -29 -51.5 -37t-53 2.5t-39 36t-8.5 62.5q14 45 46 88t72 80t83 69.5t80 59.5q33 14 61.5 8t45 -26.5t17.5 -49t-22 -59.5z" />
<glyph unicode="&#xee;" horiz-adv-x="806" d="M328 776q0 45 24.5 67.5t55.5 22.5q29 0 53 -19.5t31 -60.5q0 -115 -1 -199.5t-2.5 -163.5t-2.5 -164t-1 -202q-8 -39 -31.5 -58t-52.5 -19q-31 0 -55 23.5t-24 70.5q0 113 1 194.5t2 156.5t2 156.5t1 194.5zM211 1055q-31 -51 -78 -52q-31 0 -55.5 24.5t-24.5 70.5 q10 37 32.5 63.5t51.5 46t61.5 34.5t63.5 32q43 25 82 54.5t90 29.5q37 0 75 -20.5t72.5 -50.5t65.5 -63.5t53 -62.5l-12 6q29 -14 43 -35.5t14 -44.5q0 -31 -22.5 -54.5t-59.5 -23.5q-31 0 -59.5 23t-56 52.5t-56 60t-59.5 47.5q-53 -35 -114.5 -63.5t-106.5 -73.5z" />
<glyph unicode="&#xef;" horiz-adv-x="849" d="M326 776q0 45 24.5 67.5t55.5 22.5q29 0 53 -19.5t31 -60.5q0 -115 -1 -199.5t-2.5 -163.5t-2.5 -164t-1 -202q-8 -39 -31.5 -58t-52.5 -19q-31 0 -55 23.5t-24 70.5q0 113 1 194.5t2 156.5t2 156.5t1 194.5zM199 1270q57 0 89.5 -11.5t49 -30t18.5 -42t-2 -47.5 q0 -61 -42 -109.5t-113 -48.5q-66 0 -99 40t-33 93t33 99.5t99 56.5zM616 1270q57 0 90 -11.5t49.5 -30t18.5 -42t-2 -47.5q0 -61 -42 -109.5t-114 -48.5q-66 0 -98.5 40t-32.5 93t32.5 99.5t98.5 56.5z" />
<glyph unicode="&#xf0;" horiz-adv-x="921" d="M350 981q-18 -8 -41 -8q-37 0 -59.5 23.5t-22.5 54.5q0 23 10.5 37t26 26t35.5 25.5t43 38.5v2q-18 16 -42 24t-44 18.5t-34.5 27t-14.5 48.5q0 31 21.5 53.5t62.5 22.5q29 0 74 -20.5t73 -38.5l4 -4q29 35 63 71.5t73 36.5t61.5 -22.5t22.5 -53.5q0 -23 -11.5 -40 t-29 -32.5t-36 -31.5t-32.5 -35q55 -72 107.5 -163t92.5 -186t63.5 -184t23.5 -155q0 -41 1 -71.5t1 -53.5q0 -35 -3 -57.5t-12.5 -47t-25 -56t-41.5 -85.5q-10 -20 -43 -44.5t-75 -46t-87 -36t-82 -14.5q-94 0 -165.5 40t-119 107.5t-72 156.5t-24.5 188q0 84 20.5 164.5 t60.5 144t100.5 102.5t142.5 39q66 0 131 -33q-23 41 -45.5 79t-48.5 73q-23 -27 -47.5 -48.5t-55.5 -35.5zM676 506q-4 35 -11.5 69.5t-17.5 73.5q-25 12 -50.5 34t-52 43.5t-56 36.5t-64.5 15q-43 0 -75 -23.5t-52.5 -61.5t-30.5 -88t-10 -103q0 -68 13.5 -127.5 t41 -104.5t66.5 -70.5t92 -25.5q63 0 104 22.5t65 59.5t33 82t9 92q0 18 -1 38t-3 38z" />
<glyph unicode="&#xf1;" horiz-adv-x="962" d="M88 977q12 35 38 51t51.5 13t47 -23.5t27.5 -56.5l-8 -105q53 55 124.5 91t148.5 34t155 -49t145 -156q37 -59 47 -161.5t6 -216t-14 -224.5t-12 -184q-8 -41 -35 -60.5t-55.5 -16.5t-51 26.5t-22.5 66.5q2 47 10 135t11.5 187.5t-6 198t-42 168t-96 97t-170.5 -15.5 q-29 -10 -44 -23.5t-26.5 -27.5t-24.5 -29.5t-34 -33.5q-10 -86 1 -172.5t22.5 -173.5t14.5 -173t-22 -170q-29 -49 -71.5 -52t-77.5 42q-14 41 -21.5 77t-3.5 79q-2 35 -2 83t-1 100t-2 100.5t-5 82.5q-6 74 -8 132.5t-2 113.5t2 113.5t6 132.5zM301 1276 q-8 -41 -34.5 -60.5t-55 -16.5t-51 26.5t-22.5 66.5q8 47 38.5 100.5t73.5 91.5t96.5 51t108.5 -17q25 -12 40 -30t26.5 -37t21.5 -40.5t25 -42.5q18 10 35.5 27.5t29.5 36.5q14 23 29 45q12 35 37.5 51t51.5 13t47.5 -23.5t27.5 -57.5q-4 -45 -36 -99t-78 -96t-101.5 -61.5 t-104.5 2.5q-16 8 -35.5 27.5t-36 43t-30.5 48.5t-23 41q-4 2 -10 2q-58 -29 -70 -92z" />
<glyph unicode="&#xf2;" horiz-adv-x="1071" d="M547 1006q111 2 193.5 -14.5t139 -62.5t84 -126t27.5 -205q0 -55 -6 -121.5t-24.5 -133.5t-52.5 -129t-89 -110.5t-134 -77t-187 -28.5q-133 0 -217 57.5t-132.5 143.5t-65.5 187t-17 192q0 96 47 180t117.5 143.5t155.5 88t161 16.5zM524 846q-86 -4 -147.5 -35t-98 -80 t-50 -112.5t-5.5 -131.5q8 -76 57.5 -146.5t118 -116.5t144 -57t141.5 32q33 23 59.5 66.5t45 97t28.5 110.5t10 107q0 92 -28.5 146t-72.5 82t-98.5 34t-103.5 4zM367 1405q-23 31 -22 59.5t17.5 49t44 26.5t62.5 -8q37 -27 80 -59.5t83 -69.5t71.5 -80t46.5 -88 q6 -37 -8.5 -62.5t-39 -36t-53 -2t-51.5 36.5q-10 37 -36.5 70t-59.5 62.5t-68.5 55.5t-66.5 46z" />
<glyph unicode="&#xf3;" horiz-adv-x="1071" d="M547 1006q111 2 193.5 -14.5t139 -62.5t84 -126t27.5 -205q0 -55 -6 -121.5t-24.5 -133.5t-52.5 -129t-89 -110.5t-134 -77t-187 -28.5q-133 0 -217 57.5t-132.5 143.5t-65.5 187t-17 192q0 96 47 180t117.5 143.5t155.5 88t161 16.5zM524 846q-86 -4 -147.5 -35t-98 -80 t-50 -112.5t-5.5 -131.5q8 -76 57.5 -146.5t118 -116.5t144 -57t141.5 32q33 23 59.5 66.5t45 97t28.5 110.5t10 107q0 92 -28.5 146t-72.5 82t-98.5 34t-103.5 4zM704 1405q-31 -20 -66.5 -46t-68.5 -55.5t-59.5 -62.5t-36.5 -70q-23 -29 -51.5 -37t-53 2.5t-39 36 t-8.5 62.5q14 45 46 88t72 80t83 69.5t80 59.5q33 14 61.5 8t45 -26.5t17.5 -49t-22 -59.5z" />
<glyph unicode="&#xf4;" horiz-adv-x="1071" d="M547 1006q111 2 193.5 -14.5t139 -62.5t84 -126t27.5 -205q0 -55 -6 -121.5t-24.5 -133.5t-52.5 -129t-89 -110.5t-134 -77t-187 -28.5q-133 0 -217 57.5t-132.5 143.5t-65.5 187t-17 192q0 96 47 180t117.5 143.5t155.5 88t161 16.5zM524 846q-86 -4 -147.5 -35t-98 -80 t-50 -112.5t-5.5 -131.5q8 -76 57.5 -146.5t118 -116.5t144 -57t141.5 32q33 23 59.5 66.5t45 97t28.5 110.5t10 107q0 92 -28.5 146t-72.5 82t-98.5 34t-103.5 4zM346 1217q-31 -51 -78 -52q-31 0 -55.5 24.5t-24.5 70.5q10 37 32.5 63.5t51.5 46t61.5 34.5t63.5 32 q43 25 82 54.5t90 29.5q37 0 75 -20.5t72.5 -50.5t65.5 -63.5t53 -62.5l-12 6q29 -14 43 -35.5t14 -44.5q0 -31 -22.5 -54.5t-59.5 -23.5q-31 0 -59.5 23t-56 52.5t-56 60t-59.5 47.5q-53 -35 -114.5 -63.5t-106.5 -73.5z" />
<glyph unicode="&#xf5;" horiz-adv-x="1071" d="M547 1006q111 2 193.5 -14.5t139 -62.5t84 -126t27.5 -205q0 -55 -6 -121.5t-24.5 -133.5t-52.5 -129t-89 -110.5t-134 -77t-187 -28.5q-133 0 -217 57.5t-132.5 143.5t-65.5 187t-17 192q0 96 47 180t117.5 143.5t155.5 88t161 16.5zM524 846q-86 -4 -147.5 -35t-98 -80 t-50 -112.5t-5.5 -131.5q8 -76 57.5 -146.5t118 -116.5t144 -57t141.5 32q33 23 59.5 66.5t45 97t28.5 110.5t10 107q0 92 -28.5 146t-72.5 82t-98.5 34t-103.5 4zM354 1276q-8 -41 -34.5 -60.5t-55 -16.5t-51 26.5t-22.5 66.5q8 47 38.5 100.5t73.5 91.5t96.5 51t108.5 -17 q25 -12 40 -30t26.5 -37t21.5 -40.5t25 -42.5q18 10 35.5 27.5t29.5 36.5q14 23 29 45q12 35 37.5 51t51.5 13t47.5 -23.5t27.5 -57.5q-4 -45 -36 -99t-78 -96t-101.5 -61.5t-104.5 2.5q-16 8 -35.5 27.5t-36 43t-30.5 48.5t-23 41q-4 2 -10 2q-58 -29 -70 -92z" />
<glyph unicode="&#xf6;" horiz-adv-x="1071" d="M547 1006q111 2 193.5 -14.5t139 -62.5t84 -126t27.5 -205q0 -55 -6 -121.5t-24.5 -133.5t-52.5 -129t-89 -110.5t-134 -77t-187 -28.5q-133 0 -217 57.5t-132.5 143.5t-65.5 187t-17 192q0 96 47 180t117.5 143.5t155.5 88t161 16.5zM524 846q-86 -4 -147.5 -35t-98 -80 t-50 -112.5t-5.5 -131.5q8 -76 57.5 -146.5t118 -116.5t144 -57t141.5 32q33 23 59.5 66.5t45 97t28.5 110.5t10 107q0 92 -28.5 146t-72.5 82t-98.5 34t-103.5 4zM308 1522q57 0 89.5 -11.5t49 -30t18.5 -42t-2 -47.5q0 -61 -42 -109.5t-113 -48.5q-66 0 -99 40t-33 93 t33 99.5t99 56.5zM725 1522q57 0 90 -11.5t49.5 -30t18.5 -42t-2 -47.5q0 -61 -42 -109.5t-114 -48.5q-66 0 -98.5 40t-32.5 93t32.5 99.5t98.5 56.5z" />
<glyph unicode="&#xf8;" horiz-adv-x="1071" d="M672 1139q12 35 37.5 51t51 13t47 -23.5t28.5 -57.5q-2 -29 -4.5 -45t-7.5 -29.5t-11 -30t-18 -42.5q98 -35 147 -123t49 -254q0 -55 -6 -121.5t-24.5 -133.5t-52.5 -129t-89 -110.5t-134 -77t-187 -28.5q-4 0 -9.5 1t-9.5 1q-8 -33 -12 -47t-7 -23.5t-5 -22.5t-6 -46 q-8 -41 -35 -60.5t-55.5 -16.5t-51 26.5t-22.5 66.5q4 35 7 51.5t7 28.5t9 26.5t14 49.5q-78 35 -128.5 97.5t-79 138t-38.5 156.5t-10 153q0 96 47 180t117.5 143.5t155.5 88t161 16.5h39.5t38.5 -2q10 27 18 40t14.5 24t9.5 26.5t5 44.5zM524 846q-86 -4 -147.5 -35 t-98 -80t-50 -112.5t-5.5 -131.5q8 -70 51 -135t103 -112q37 123 78 244.5t80 244.5l38 117q-12 2 -24.5 1t-24.5 -1zM827 580q0 90 -27.5 142t-68.5 81q-49 -150 -104.5 -309.5t-102.5 -323.5q41 -8 82 -2t78 31q33 23 59.5 66.5t45 97t28.5 111t10 106.5z" />
<glyph unicode="&#xf9;" horiz-adv-x="997" d="M88 913q0 43 23.5 65.5t52.5 25t55.5 -17t32.5 -62.5q0 -147 -3 -296t-5 -298q0 -25 -2 -52.5t-2 -55t4 -55.5t16 -50q16 -29 59 -32t93.5 8t95.5 30.5t65 32.5q39 29 64 69q45 68 63.5 150t22.5 168t0 172t-4 164q0 43 22.5 65.5t51 24.5t54 -16.5t34.5 -57.5h2v-6 q4 -221 17 -440.5t18 -442.5q-6 -37 -29 -56.5t-48.5 -21.5t-50 14.5t-36.5 53.5q0 29 -1 54.5t-1 53.5q-20 -23 -39 -47t-47 -39q-53 -29 -131 -56.5t-158 -35.5t-151.5 14.5t-108.5 94.5q-20 39 -29.5 109.5t-12.5 156.5t-1 179t5 177t6 152.5t3 103.5zM330 1405 q-23 31 -22 59.5t17.5 49t44 26.5t62.5 -8q37 -27 80 -59.5t83 -69.5t71.5 -80t46.5 -88q6 -37 -8.5 -62.5t-39 -36t-53 -2t-51.5 36.5q-10 37 -36.5 70t-59.5 62.5t-68.5 55.5t-66.5 46z" />
<glyph unicode="&#xfa;" horiz-adv-x="997" d="M88 913q0 43 23.5 65.5t52.5 25t55.5 -17t32.5 -62.5q0 -147 -3 -296t-5 -298q0 -25 -2 -52.5t-2 -55t4 -55.5t16 -50q16 -29 59 -32t93.5 8t95.5 30.5t65 32.5q39 29 64 69q45 68 63.5 150t22.5 168t0 172t-4 164q0 43 22.5 65.5t51 24.5t54 -16.5t34.5 -57.5h2v-6 q4 -221 17 -440.5t18 -442.5q-6 -37 -29 -56.5t-48.5 -21.5t-50 14.5t-36.5 53.5q0 29 -1 54.5t-1 53.5q-20 -23 -39 -47t-47 -39q-53 -29 -131 -56.5t-158 -35.5t-151.5 14.5t-108.5 94.5q-20 39 -29.5 109.5t-12.5 156.5t-1 179t5 177t6 152.5t3 103.5zM668 1405 q-31 -20 -66.5 -46t-68.5 -55.5t-59.5 -62.5t-36.5 -70q-23 -29 -51.5 -37t-53 2.5t-39 36t-8.5 62.5q14 45 46 88t72 80t83 69.5t80 59.5q33 14 61.5 8t45 -26.5t17.5 -49t-22 -59.5z" />
<glyph unicode="&#xfb;" horiz-adv-x="997" d="M88 913q0 43 23.5 65.5t52.5 25t55.5 -17t32.5 -62.5q0 -147 -3 -296t-5 -298q0 -25 -2 -52.5t-2 -55t4 -55.5t16 -50q16 -29 59 -32t93.5 8t95.5 30.5t65 32.5q39 29 64 69q45 68 63.5 150t22.5 168t0 172t-4 164q0 43 22.5 65.5t51 24.5t54 -16.5t34.5 -57.5h2v-6 q4 -221 17 -440.5t18 -442.5q-6 -37 -29 -56.5t-48.5 -21.5t-50 14.5t-36.5 53.5q0 29 -1 54.5t-1 53.5q-20 -23 -39 -47t-47 -39q-53 -29 -131 -56.5t-158 -35.5t-151.5 14.5t-108.5 94.5q-20 39 -29.5 109.5t-12.5 156.5t-1 179t5 177t6 152.5t3 103.5zM309 1217 q-31 -51 -78 -52q-31 0 -55.5 24.5t-24.5 70.5q10 37 32.5 63.5t51.5 46t61.5 34.5t63.5 32q43 25 82 54.5t90 29.5q37 0 75 -20.5t72.5 -50.5t65.5 -63.5t53 -62.5l-12 6q29 -14 43 -35.5t14 -44.5q0 -31 -22.5 -54.5t-59.5 -23.5q-31 0 -59.5 23t-56 52.5t-56 60 t-59.5 47.5q-53 -35 -114.5 -63.5t-106.5 -73.5z" />
<glyph unicode="&#xfc;" horiz-adv-x="997" d="M88 913q0 43 23.5 65.5t52.5 25t55.5 -17t32.5 -62.5q0 -147 -3 -296t-5 -298q0 -25 -2 -52.5t-2 -55t4 -55.5t16 -50q16 -29 59 -32t93.5 8t95.5 30.5t65 32.5q39 29 64 69q45 68 63.5 150t22.5 168t0 172t-4 164q0 43 22.5 65.5t51 24.5t54 -16.5t34.5 -57.5h2v-6 q4 -221 17 -440.5t18 -442.5q-6 -37 -29 -56.5t-48.5 -21.5t-50 14.5t-36.5 53.5q0 29 -1 54.5t-1 53.5q-20 -23 -39 -47t-47 -39q-53 -29 -131 -56.5t-158 -35.5t-151.5 14.5t-108.5 94.5q-20 39 -29.5 109.5t-12.5 156.5t-1 179t5 177t6 152.5t3 103.5zM271 1522 q57 0 89.5 -11.5t49 -30t18.5 -42t-2 -47.5q0 -61 -42 -109.5t-113 -48.5q-66 0 -99 40t-33 93t33 99.5t99 56.5zM688 1522q57 0 90 -11.5t49.5 -30t18.5 -42t-2 -47.5q0 -61 -42 -109.5t-114 -48.5q-66 0 -98.5 40t-32.5 93t32.5 99.5t98.5 56.5z" />
<glyph unicode="&#xfd;" horiz-adv-x="1085" d="M836 997q12 33 34.5 49.5t47.5 16.5q29 0 52 -20.5t29 -61.5q-14 -74 -39.5 -144.5t-56.5 -140t-63.5 -137t-61.5 -137.5q-37 -88 -57.5 -180t-38.5 -182.5t-42 -174.5t-65 -155l-34 -76q-6 -14 -8.5 -40t-12.5 -26q-2 0 -4 2q-10 -33 -32.5 -48t-47.5 -15 q-31 0 -55.5 22.5t-24.5 69.5q8 45 27.5 88t40.5 82q8 16 22.5 34.5t18.5 35.5q10 47 20.5 95t20.5 95q0 2 -1 4t-1 4q-23 127 -83.5 234.5t-131 211t-133 210t-86.5 233.5q0 43 24.5 66.5t55.5 23.5q23 0 44 -12t35 -41q18 -94 58.5 -175t90.5 -157t103.5 -150.5 t96.5 -158.5q20 82 58 163t77 162t73 162.5t50 167.5zM711 1405q-31 -20 -66.5 -46t-68.5 -55.5t-59.5 -62.5t-36.5 -70q-23 -29 -51.5 -37t-53 2.5t-39 36t-8.5 62.5q14 45 46 88t72 80t83 69.5t80 59.5q33 14 61.5 8t45 -26.5t17.5 -49t-22 -59.5z" />
<glyph unicode="&#xfe;" horiz-adv-x="1021" d="M82 1417q27 33 58.5 37t56 -11.5t34 -46t-11.5 -67.5q-4 -98 7.5 -194.5t15.5 -194.5l6 -119q61 59 136 97t155 49q57 6 121.5 -33t122 -98.5t99.5 -127t56 -116.5q27 -84 25 -172t-31 -169t-84 -148.5t-133 -110.5q-29 -16 -66 -23.5t-74.5 -9.5t-74.5 4t-68 19 q-4 2 -15 10t-25.5 18t-27 20.5t-20.5 16.5q-68 8 -108 45q0 -6 -1.5 -49t-2.5 -104.5t-3 -131t-3 -130t-3 -103.5t-4 -49q-16 -29 -38.5 -41t-46 -10t-43 18t-30.5 47q0 4 -2 6v41v95.5t1 122t1 122t1 95t1 40.5q10 41 11.5 85t5.5 85q12 129 12 258q-10 25 -10 52 q2 16 10 39q0 115 -6 227.5t-12 226.5q-2 25 -8.5 78t-9.5 112.5t1.5 112.5t24.5 80zM256 553q-2 -100 1 -174t25.5 -124t71.5 -80t142 -42q88 -25 152.5 10t101 100.5t45 147.5t-12.5 150q-18 61 -57 111t-86 91q-27 23 -48.5 36.5t-43 16.5t-45 -4.5t-53.5 -27.5 q-35 -23 -63 -45.5t-56 -52.5q-29 -33 -46.5 -57.5t-27.5 -55.5z" />
<glyph unicode="&#xff;" horiz-adv-x="1085" d="M836 997q12 33 34.5 49.5t47.5 16.5q29 0 52 -20.5t29 -61.5q-14 -74 -39.5 -144.5t-56.5 -140t-63.5 -137t-61.5 -137.5q-37 -88 -57.5 -180t-38.5 -182.5t-42 -174.5t-65 -155l-34 -76q-6 -14 -8.5 -40t-12.5 -26q-2 0 -4 2q-10 -33 -32.5 -48t-47.5 -15 q-31 0 -55.5 22.5t-24.5 69.5q8 45 27.5 88t40.5 82q8 16 22.5 34.5t18.5 35.5q10 47 20.5 95t20.5 95q0 2 -1 4t-1 4q-23 127 -83.5 234.5t-131 211t-133 210t-86.5 233.5q0 43 24.5 66.5t55.5 23.5q23 0 44 -12t35 -41q18 -94 58.5 -175t90.5 -157t103.5 -150.5 t96.5 -158.5q20 82 58 163t77 162t73 162.5t50 167.5zM316 1522q57 0 89.5 -11.5t49 -30t18.5 -42t-2 -47.5q0 -61 -42 -109.5t-113 -48.5q-66 0 -99 40t-33 93t33 99.5t99 56.5zM733 1522q57 0 90 -11.5t49.5 -30t18.5 -42t-2 -47.5q0 -61 -42 -109.5t-114 -48.5 q-66 0 -98.5 40t-32.5 93t32.5 99.5t98.5 56.5z" />
<glyph unicode="&#x131;" horiz-adv-x="370" d="M117 776q0 45 24.5 67.5t55.5 22.5q29 0 53 -19.5t31 -60.5q0 -115 -1 -199.5t-2.5 -163.5t-2.5 -164t-1 -202q-8 -39 -31.5 -58t-52.5 -19q-31 0 -55 23.5t-24 70.5q0 113 1 194.5t2 156.5t2 156.5t1 194.5z" />
<glyph unicode="&#x152;" horiz-adv-x="1617" d="M117 666q0 125 44 263t125 256t195.5 195.5t255.5 83.5q47 4 107.5 6.5t119 3.5t105.5 1h70q57 0 119.5 -1t114.5 -8.5t87 -26t39 -53.5q0 -12 -1 -25t-13 -23.5t-38 -18.5t-73 -10q-16 -2 -49 -2h-68.5t-69.5 1t-52 3l-271 6l-4 -565q135 6 269.5 18t269.5 14 q43 -4 63.5 -29.5t20.5 -54t-21.5 -53t-64.5 -26.5q-135 -2 -268.5 -14.5t-268.5 -16.5q-2 -123 -2 -243v-243q141 0 277.5 6.5t275.5 10.5q43 -4 63.5 -29.5t20.5 -54.5t-21.5 -53.5t-64.5 -26.5q-78 4 -173 1t-192.5 -5t-189.5 1t-162 19q-147 10 -255.5 74t-179.5 160 t-105.5 216t-34.5 243zM293 645q0 -90 22.5 -172t70.5 -146.5t124 -107.5t184 -53q-2 285 1 565.5t7 564.5q-92 -23 -166.5 -87t-129 -154t-84 -197t-29.5 -213z" />
<glyph unicode="&#x153;" horiz-adv-x="1976" d="M1339 510q-162 -14 -323 -25q-8 -59 10 -117.5t56 -105.5t92.5 -75.5t119.5 -26.5q45 -4 70 1t39 16t24.5 23.5t26.5 24.5q8 39 27.5 73t66.5 34q41 0 63.5 -24.5t22.5 -55.5q0 -35 -25.5 -79t-70.5 -84t-105.5 -67.5t-129.5 -27.5q-121 0 -225.5 50t-168.5 171 q-27 -47 -63.5 -86t-86.5 -68.5t-114.5 -46t-146.5 -16.5q-133 0 -217 57.5t-132.5 143.5t-65.5 187t-17 192q0 96 47 180t117.5 143.5t155.5 88t161 16.5q154 2 254 -33t147 -133q61 74 149.5 122t190.5 52q78 0 141.5 -24.5t108.5 -65.5t69.5 -96.5t24.5 -116.5 q0 -66 -29.5 -104t-73.5 -58.5t-95.5 -27.5t-94.5 -11zM524 846q-86 -4 -147.5 -35t-98 -80t-50 -112.5t-5.5 -131.5q8 -76 57.5 -146.5t118 -116.5t144 -57t141.5 32q33 23 59.5 66.5t45 97t28.5 110.5t10 107q0 92 -28.5 146t-72.5 82t-98.5 34t-103.5 4zM1280 870 q-78 -8 -129 -41.5t-82 -74.5q-37 -47 -55 -105q109 4 215 13.5t213 25.5q20 18 20 41q0 25 -19.5 49.5t-47 45t-59 33.5t-56.5 13z" />
<glyph unicode="&#x178;" d="M66 1323q-25 33 -21 65.5t25.5 52t54.5 19.5t63 -28q117 -119 202 -263.5t169 -285.5q8 -14 16.5 -27.5t18.5 -28.5q10 23 16 45.5t13 38.5q20 53 49.5 124t65.5 142.5t78 137t85 108.5q33 20 62.5 17.5t48 -21t22.5 -47.5t-14 -61q-33 -29 -50.5 -70t-33.5 -82 q-47 -113 -106.5 -228.5t-116.5 -225.5q-10 -16 -19.5 -32t-21.5 -30q4 -80 3 -149.5t-2 -137t-2 -137t1 -149.5q-6 -37 -28.5 -56.5t-48.5 -21.5t-50.5 14.5t-36.5 52.5q-2 82 -1 156t2 144.5t1 143t-2 154.5l-442 666v0zM322 1807q57 0 89.5 -11.5t49 -30t18.5 -42 t-2 -47.5q0 -61 -42 -109.5t-113 -48.5q-66 0 -99 40t-33 93t33 99.5t99 56.5zM739 1807q57 0 90 -11.5t49.5 -30t18.5 -42t-2 -47.5q0 -61 -42 -109.5t-114 -48.5q-66 0 -98.5 40t-32.5 93t32.5 99.5t98.5 56.5z" />
<glyph unicode="&#x2c6;" horiz-adv-x="892" d="M250 1217q-31 -51 -78 -52q-31 0 -55.5 24.5t-24.5 70.5q10 37 32.5 63.5t51.5 46t61.5 34.5t63.5 32q43 25 82 54.5t90 29.5q37 0 75 -20.5t72.5 -50.5t65.5 -63.5t53 -62.5l-12 6q29 -14 43 -35.5t14 -44.5q0 -31 -22.5 -54.5t-59.5 -23.5q-31 0 -59.5 23t-56 52.5 t-56 60t-59.5 47.5q-53 -35 -114.5 -63.5t-106.5 -73.5z" />
<glyph unicode="&#x2dc;" horiz-adv-x="835" d="M233 1276q-8 -41 -34.5 -60.5t-55 -16.5t-51 26.5t-22.5 66.5q8 47 38.5 100.5t73.5 91.5t96.5 51t108.5 -17q25 -12 40 -30t26.5 -37t21.5 -40.5t25 -42.5q18 10 35.5 27.5t29.5 36.5q14 23 29 45q12 35 37.5 51t51.5 13t47.5 -23.5t27.5 -57.5q-4 -45 -36 -99t-78 -96 t-101.5 -61.5t-104.5 2.5q-16 8 -35.5 27.5t-36 43t-30.5 48.5t-23 41q-4 2 -10 2q-58 -29 -70 -92z" />
<glyph unicode="&#x2000;" horiz-adv-x="975" />
<glyph unicode="&#x2001;" horiz-adv-x="1951" />
<glyph unicode="&#x2002;" horiz-adv-x="975" />
<glyph unicode="&#x2003;" horiz-adv-x="1951" />
<glyph unicode="&#x2004;" horiz-adv-x="650" />
<glyph unicode="&#x2005;" horiz-adv-x="487" />
<glyph unicode="&#x2006;" horiz-adv-x="325" />
<glyph unicode="&#x2007;" horiz-adv-x="325" />
<glyph unicode="&#x2008;" horiz-adv-x="243" />
<glyph unicode="&#x2009;" horiz-adv-x="390" />
<glyph unicode="&#x200a;" horiz-adv-x="108" />
<glyph unicode="&#x2010;" horiz-adv-x="806" d="M156 592q-37 10 -54.5 33.5t-17.5 49t18.5 49.5t55.5 32h473q43 -4 63.5 -30t20.5 -54.5t-21.5 -53t-64.5 -26.5h-473v0z" />
<glyph unicode="&#x2011;" horiz-adv-x="806" d="M156 592q-37 10 -54.5 33.5t-17.5 49t18.5 49.5t55.5 32h473q43 -4 63.5 -30t20.5 -54.5t-21.5 -53t-64.5 -26.5h-473v0z" />
<glyph unicode="&#x2012;" horiz-adv-x="806" d="M156 592q-37 10 -54.5 33.5t-17.5 49t18.5 49.5t55.5 32h473q43 -4 63.5 -30t20.5 -54.5t-21.5 -53t-64.5 -26.5h-473v0z" />
<glyph unicode="&#x2013;" horiz-adv-x="1017" d="M117 598q-37 10 -54.5 33.5t-17.5 49.5t18.5 49.5t55.5 31.5q190 0 375.5 -4t373.5 -4q43 -4 63.5 -30t20.5 -54.5t-21.5 -53t-64.5 -26.5q-188 0 -374.5 4t-374.5 4z" />
<glyph unicode="&#x2014;" horiz-adv-x="1435" d="M135 598q-37 10 -54.5 33.5t-17.5 49.5t18.5 49.5t55.5 31.5q63 0 155.5 -1t199 -1t221 -2t221 -2t198 -1t154.5 -1q43 -4 63.5 -30t20.5 -54.5t-21.5 -53t-64.5 -26.5q-61 0 -153.5 1t-200 1t-221 2t-221 2t-200 1t-153.5 1z" />
<glyph unicode="&#x2018;" horiz-adv-x="487" d="M274 952q-49 0 -80.5 8.5t-49 23.5t-23.5 35.5t-4 41.5q-14 31 -2 67l125 318q14 39 44.5 50t59.5 1t45.5 -40t1.5 -68l-61 -158q39 -16 57.5 -49t18.5 -74q0 -53 -33 -99.5t-99 -56.5z" />
<glyph unicode="&#x2019;" horiz-adv-x="487" d="M240 1501q49 0 80.5 -9t49 -24.5t23.5 -35t4 -39.5q14 -31 2 -68l-125 -317q-14 -41 -44.5 -51.5t-59.5 0t-45 39t-2 69.5l61 158q-39 16 -57 49t-18 74q0 53 32.5 99t98.5 56z" />
<glyph unicode="&#x201a;" horiz-adv-x="497" d="M240 385q49 0 80.5 -9t49 -24.5t23.5 -35t4 -40.5q14 -31 2 -67l-125 -318q-14 -41 -44.5 -51t-59.5 0t-45 39t-2 70l61 157q-39 16 -57 49t-18 74q0 53 32.5 99.5t98.5 56.5z" />
<glyph unicode="&#x201c;" horiz-adv-x="868" d="M637 952q-49 0 -81 8.5t-49.5 23.5t-23.5 35.5t-4 41.5q-14 31 -2 67l125 318q14 39 45 50t59.5 1t45 -40t2.5 -68l-62 -158q39 -16 57.5 -49t18.5 -74q0 -53 -32.5 -99.5t-98.5 -56.5zM274 952q-49 0 -80.5 8.5t-49 23.5t-23.5 35.5t-4 41.5q-14 31 -2 67l125 318 q14 39 44.5 50t59.5 1t45.5 -40t1.5 -68l-61 -158q39 -16 57.5 -49t18.5 -74q0 -53 -33 -99.5t-99 -56.5z" />
<glyph unicode="&#x201d;" horiz-adv-x="868" d="M240 1501q49 0 80.5 -9t49 -24.5t23.5 -35t4 -39.5q14 -31 2 -68l-125 -317q-14 -41 -44.5 -51.5t-59.5 0t-45 39t-2 69.5l61 158q-39 16 -57 49t-18 74q0 53 32.5 99t98.5 56zM602 1501q49 0 81 -9t49.5 -24.5t23.5 -35t4 -39.5q14 -31 2 -68l-125 -317 q-14 -41 -45 -51.5t-59.5 0t-45 39t-2.5 69.5l62 158q-39 16 -57.5 49t-18.5 74q0 53 32.5 99t98.5 56z" />
<glyph unicode="&#x201e;" horiz-adv-x="858" d="M240 385q49 0 80.5 -9t49 -24.5t23.5 -35t4 -40.5q14 -31 2 -67l-125 -318q-14 -41 -44.5 -51t-59.5 0t-45 39t-2 70l61 157q-39 16 -57 49t-18 74q0 53 32.5 99.5t98.5 56.5zM602 385q49 0 81 -9t49.5 -24.5t23.5 -35t4 -40.5q14 -31 2 -67l-125 -318q-14 -41 -45 -51 t-59.5 0t-45 39t-2.5 70l62 157q-39 16 -57.5 49t-18.5 74q0 53 32.5 99.5t98.5 56.5z" />
<glyph unicode="&#x2022;" horiz-adv-x="729" d="M94 733q0 57 21.5 108.5t59.5 89.5t89 59.5t109 21.5q57 0 108 -21.5t89 -59.5t59.5 -89t21.5 -109q0 -57 -21.5 -108.5t-59.5 -89t-89 -59t-108 -21.5t-108.5 21.5t-89.5 59t-59.5 89t-21.5 108.5z" />
<glyph unicode="&#x2026;" horiz-adv-x="1277" d="M195 307q57 0 89.5 -11t49 -29.5t18.5 -42t-2 -48.5q0 -61 -42 -109.5t-113 -48.5q-66 0 -99 40t-33 94q0 53 33 99t99 56zM621 307q57 0 89.5 -11t49 -29.5t18.5 -42t-2 -48.5q0 -61 -42 -109.5t-113 -48.5q-66 0 -99 40t-33 94q0 53 33 99t99 56zM1047 307 q57 0 89.5 -11t49 -29.5t18.5 -42t-2 -48.5q0 -61 -42 -109.5t-113 -48.5q-66 0 -99 40t-33 94q0 53 33 99t99 56z" />
<glyph unicode="&#x202f;" horiz-adv-x="390" />
<glyph unicode="&#x2039;" horiz-adv-x="722" d="M96 500q-18 18 -24 38.5t-1 39t17 33t29 22.5l397 397q31 31 63.5 28t54 -24.5t24.5 -54.5t-27 -64l-361 -360l350 -354q31 -31 28 -64t-24.5 -54.5t-54 -24.5t-63.5 28l-408 414v0z" />
<glyph unicode="&#x203a;" horiz-adv-x="722" d="M221 86q-31 -31 -63.5 -28t-54 24.5t-24.5 54.5t27 64l351 354l-361 360q-31 31 -27.5 64t25 54.5t54 24.5t63.5 -28l397 -397q33 -16 46.5 -56t-25.5 -77z" />
<glyph unicode="&#x205f;" horiz-adv-x="487" />
<glyph unicode="&#x20ac;" horiz-adv-x="1218" d="M195 870q-37 10 -54.5 34t-17.5 49.5t18.5 49t55.5 31.5h92q41 143 117.5 261t197.5 169q53 23 120 27t120 4q88 0 131 -14.5t66.5 -41t39 -61.5t47.5 -73q12 -25 13 -50q0 -35 -21.5 -56t-56.5 -21t-54.5 13t-33.5 33.5t-30.5 45t-45.5 49.5l-14 6q-10 2 -22.5 3 t-24.5 1q-57 0 -96.5 -2t-71 -14.5t-59 -38t-62.5 -72.5q-29 -39 -51.5 -81t-38.5 -89q117 -2 233.5 -4t239.5 -2q43 -4 63.5 -29.5t20.5 -54.5t-21.5 -53.5t-64.5 -26.5q-133 0 -259 2t-255 4q-14 -84 -15 -178q104 -2 207 -3t215 -1q43 -4 63.5 -29.5t20.5 -54.5 t-21.5 -53.5t-64.5 -26.5q-111 0 -211 1t-200 3q8 -63 27.5 -126.5t59.5 -115t103.5 -83t157.5 -31.5q53 0 97 13.5t73 43.5q8 10 10 20.5t3 28t5 43t19 64.5q16 20 35.5 29.5t37.5 9.5q31 0 53.5 -21.5t22.5 -60.5q0 -8 -2 -23.5t-6 -19.5q0 -143 -99.5 -216t-273.5 -73 q-123 0 -211 45t-146.5 118t-89 167t-42.5 192h-133q-37 10 -54.5 34t-17.5 49.5t18.5 49t55.5 31.5h125q2 41 5 85t11 91h-59v0z" />
<glyph unicode="&#x25fc;" horiz-adv-x="1054" d="M0 1055h1055v-1055h-1055v1055z" />
<glyph unicode="&#xfb01;" horiz-adv-x="1005" d="M129 637q-37 10 -54.5 33.5t-17.5 49t18.5 49.5t55.5 32h180v67q0 121 11.5 227.5t68.5 211.5q41 76 97.5 108.5t117 31.5t120.5 -31t106.5 -80t75 -115.5t28.5 -137.5q10 -23 7 -45t-17.5 -39.5t-39 -25.5t-55.5 2q-47 20 -54 64t-3 89l-16 33q-18 37 -41 70t-70 43 q-45 8 -69.5 -5.5t-40 -39t-25.5 -58t-29 -63.5q-10 -68 -14 -145.5t-2 -161.5h326q29 29 68.5 19.5t60.5 -46.5q8 -104 9 -192t-1 -176.5t-5 -181.5t1 -210q-8 -39 -32 -58t-52 -19q-31 0 -55.5 23.5t-24.5 70.5q0 98 1 173t2 142.5t2 136t1 154.5h-295q4 -94 8 -181 t4 -159q0 -43 1 -78t1 -67.5t-3 -66.5t-9 -71q-8 -41 -34.5 -60.5t-55.5 -16t-51.5 27t-22.5 66.5q16 80 14.5 161.5t-3.5 161.5l-9 283h-184v0z" />
<glyph unicode="&#xfb02;" d="M780 1391q0 43 23.5 65.5t52.5 24.5t55.5 -17.5t32.5 -62.5q2 -326 10.5 -670t10.5 -672q-6 -37 -29 -56t-48.5 -21t-50 14t-36.5 53q-2 236 -7.5 479.5t-9.5 487.5q-12 23 -13 53.5t3 58.5l-16 33q-18 37 -41 70t-70 43q-45 8 -69.5 -5.5t-40 -39t-25.5 -58t-29 -63.5 q-10 -68 -14 -145.5t-2 -161.5h158q43 -4 63.5 -30t20.5 -54.5t-21.5 -53t-64.5 -26.5h-150q4 -94 8 -181t4 -159q0 -43 1 -78t1 -67.5t-3 -66.5t-9 -71q-8 -41 -34.5 -60.5t-55.5 -16t-51.5 27t-22.5 66.5q16 80 14.5 161.5t-3.5 161.5l-9 283h-184q-37 10 -54.5 33.5 t-17.5 49t18.5 49.5t55.5 32h180v67q0 121 11.5 227.5t68.5 211.5q35 66 83 99.5t100.5 39.5t105.5 -11.5t100 -52.5v9v0z" />
</font>
</defs>
</svg>
