<?xml version="1.0" encoding="UTF-8" standalone="no"?>
<!-- Created with Inkscape (http://www.inkscape.org/) -->
<svg
   xmlns:svg="http://www.w3.org/2000/svg"
   xmlns="http://www.w3.org/2000/svg"
   version="1.0"
   width="447.45883"
   height="69.47525"
   viewBox="0 0 447.45883 69.47525"
   id="svg2">
  <defs
     id="defs4" />
  <g
     transform="translate(-131.01366,-664.58823)"
     id="layer1">
    <path
       d="M 233.44837,699.86085 C 234.15237,699.98885 234.21637,699.98885 234.40837,700.05285 C 235.94437,700.24485 236.26437,700.30885 237.16037,700.30885 C 245.41636,700.30885 251.56037,694.48485 251.56037,686.74085 C 251.56037,680.34086 247.52836,677.14085 239.46437,677.14085 L 238.69637,677.14085 C 231.72038,677.26885 227.81637,677.33285 227.11237,677.33285 C 225.76837,677.33285 225.76836,677.33285 216.04037,677.14085 L 216.04037,679.50885 L 218.40837,679.70085 C 221.28837,679.95685 221.48037,680.34086 221.48037,685.97285 L 221.48037,712.08485 C 221.48037,717.78085 221.41637,717.90885 218.40837,718.16485 L 216.04037,718.35685 L 216.04037,720.91685 C 223.78436,720.72485 223.78437,720.72485 226.02437,720.72485 C 228.00837,720.72485 228.00838,720.72485 236.58437,720.91685 L 236.58437,718.35685 L 233.57637,718.16485 C 230.63238,717.97285 230.50437,717.71685 230.50437,712.08485 L 230.50437,680.91685 C 231.46437,680.53285 232.61637,680.34085 234.34437,680.34085 C 239.65637,680.34085 242.34437,683.22086 242.34437,688.91685 C 242.34437,694.03685 239.78437,697.36485 235.75237,697.36485 C 235.24037,697.36485 235.17637,697.36485 233.51237,697.04485 C 233.44837,697.04485 233.25637,697.04485 233.00037,696.98085 L 232.36037,697.62085 L 233.44837,699.86085 M 265.91937,689.72485 C 268.71937,689.57485 270.41938,689.52485 273.16937,689.52485 C 275.86937,689.52485 278.01937,689.97485 278.06937,690.52485 L 278.46937,694.27485 L 280.26937,694.27485 L 280.96937,687.17485 L 280.66937,686.82485 C 278.81937,686.67485 277.86937,686.62485 275.91937,686.62485 C 274.76937,686.62485 273.26937,686.67485 270.51937,686.72485 C 266.86938,686.82485 265.46937,686.82485 264.01937,686.82485 C 262.26937,686.82485 260.11937,686.77485 254.61937,686.67485 L 254.61937,688.52485 L 256.46937,688.67485 C 258.71937,688.87485 258.86937,689.17486 258.86937,693.57485 L 258.86937,715.97485 C 258.86937,717.67485 258.61937,718.42485 257.86937,718.82485 L 256.26937,719.72485 L 256.26937,720.87485 C 261.21937,720.72485 261.21937,720.72485 262.36937,720.72485 L 264.06937,720.72485 C 269.11937,720.87485 271.11938,720.92485 273.66937,720.92485 C 276.26937,720.92485 277.81938,720.87485 280.71937,720.72485 L 280.96937,720.32485 L 281.51937,712.42485 L 279.56937,712.42485 L 278.41937,717.12485 C 278.41937,717.17485 278.36937,717.22485 278.26937,717.27485 C 276.71937,717.77485 275.26937,717.97485 272.46937,717.97485 C 270.41937,717.97485 268.46937,717.92485 265.91937,717.82485 L 265.91937,704.47485 C 267.31937,704.37485 268.16937,704.32485 269.26937,704.32485 L 272.56937,704.32485 C 274.46937,704.32485 275.26937,704.87485 275.41937,706.17485 L 275.71937,708.67485 L 277.71937,708.67485 C 277.71937,708.67485 277.56937,703.27485 277.56937,703.27485 C 277.56937,702.72485 277.56937,702.67485 277.71937,697.92485 L 275.71937,697.92485 L 275.41937,700.77485 C 275.31937,701.57485 274.66937,701.82485 272.56937,701.82485 L 269.26937,701.82485 C 267.61937,701.82485 266.91937,701.82485 265.91937,701.72485 L 265.91937,689.72485 M 303.43578,689.77485 L 309.28578,689.77485 C 311.38578,689.77485 311.93578,689.87485 312.38578,690.22485 L 312.83578,691.42485 L 313.08578,694.87485 L 315.08578,694.87485 C 315.18578,691.07486 315.33578,689.32485 315.73578,686.92485 L 315.43578,686.67485 C 301.63579,686.82485 301.63578,686.82485 299.93578,686.82485 C 298.18578,686.82485 298.18577,686.82485 284.38578,686.67485 L 284.08578,686.92485 C 284.48578,689.32485 284.58578,691.07486 284.73578,694.87485 L 286.73578,694.87485 L 286.98578,691.42485 C 286.98578,691.12485 287.23578,690.52485 287.38578,690.27485 C 287.63578,689.92485 288.43578,689.77485 290.53578,689.77485 L 296.38578,689.77485 L 296.38578,713.97485 C 296.38578,718.42485 296.33578,718.52485 293.98578,718.72485 L 292.13578,718.87485 L 292.13578,720.87485 C 298.18577,720.72485 298.18578,720.72485 299.88578,720.72485 C 301.58578,720.72485 301.63578,720.72485 307.68578,720.87485 L 307.68578,718.87485 L 305.83578,718.72485 C 303.48578,718.52485 303.43578,718.42485 303.43578,713.97485 L 303.43578,689.77485 M 329.88422,689.72485 C 332.68421,689.57485 334.38422,689.52485 337.13422,689.52485 C 339.83421,689.52485 341.98422,689.97485 342.03422,690.52485 L 342.43422,694.27485 L 344.23422,694.27485 L 344.93422,687.17485 L 344.63422,686.82485 C 342.78422,686.67485 341.83421,686.62485 339.88422,686.62485 C 338.73422,686.62485 337.23421,686.67485 334.48422,686.72485 C 330.83422,686.82485 329.43421,686.82485 327.98422,686.82485 C 326.23422,686.82485 324.08421,686.77485 318.58422,686.67485 L 318.58422,688.52485 L 320.43422,688.67485 C 322.68421,688.87485 322.83422,689.17486 322.83422,693.57485 L 322.83422,715.97485 C 322.83422,717.67485 322.58422,718.42485 321.83422,718.82485 L 320.23422,719.72485 L 320.23422,720.87485 C 325.18421,720.72485 325.18422,720.72485 326.33422,720.72485 L 328.03422,720.72485 C 333.08421,720.87485 335.08422,720.92485 337.63422,720.92485 C 340.23421,720.92485 341.78422,720.87485 344.68422,720.72485 L 344.93422,720.32485 L 345.48422,712.42485 L 343.53422,712.42485 L 342.38422,717.12485 C 342.38422,717.17485 342.33422,717.22485 342.23422,717.27485 C 340.68422,717.77485 339.23421,717.97485 336.43422,717.97485 C 334.38422,717.97485 332.43421,717.92485 329.88422,717.82485 L 329.88422,704.47485 C 331.28421,704.37485 332.13422,704.32485 333.23422,704.32485 L 336.53422,704.32485 C 338.43421,704.32485 339.23422,704.87485 339.38422,706.17485 L 339.68422,708.67485 L 341.68422,708.67485 C 341.68422,708.67485 341.53422,703.27485 341.53422,703.27485 C 341.53422,702.72485 341.53422,702.67485 341.68422,697.92485 L 339.68422,697.92485 L 339.38422,700.77485 C 339.28422,701.57485 338.63421,701.82485 336.53422,701.82485 L 333.23422,701.82485 C 331.58422,701.82485 330.88422,701.82485 329.88422,701.72485 L 329.88422,689.72485 M 370.05062,702.92485 C 372.85062,701.77485 374.05062,701.02485 375.35062,699.52485 C 376.80062,697.97486 377.50062,696.12485 377.50062,694.02485 C 377.50062,689.17486 374.30062,686.67485 368.00062,686.67485 C 367.45062,686.67485 366.25062,686.67485 364.55062,686.72485 C 363.25062,686.77485 359.15062,686.82485 358.05062,686.82485 C 356.65062,686.82485 356.65062,686.82485 349.15062,686.67485 L 349.15062,688.52485 L 351.00062,688.67485 C 353.25062,688.87485 353.40062,689.17486 353.40062,693.57485 L 353.40062,713.97485 C 353.40062,718.42485 353.35062,718.52485 351.00062,718.72485 L 349.15062,718.87485 L 349.15062,720.87485 C 355.20062,720.72485 355.20062,720.72485 356.90062,720.72485 C 358.60062,720.72485 358.65063,720.72485 364.70062,720.87485 L 364.70062,718.87485 L 362.85062,718.72485 C 360.50062,718.52485 360.45062,718.42485 360.45062,713.97485 L 360.45062,689.62485 C 361.15062,689.32485 362.10062,689.17485 363.40062,689.17485 C 367.85062,689.17485 370.40062,691.52486 370.40062,695.57485 C 370.40062,698.22485 369.15062,700.47485 367.10062,701.67485 C 365.85062,702.42485 364.60062,702.67485 362.40062,702.62485 L 362.05062,703.52485 L 373.25062,720.87485 L 377.75062,720.72485 C 380.30062,720.77485 380.75062,720.77485 382.60062,720.87485 L 382.60062,718.87485 C 380.80062,718.52485 380.30062,718.22485 379.10062,716.62485 L 370.05062,702.92485 M 415.58944,681.04485 C 418.72543,680.91685 420.83744,680.85285 423.01344,680.85285 C 427.30143,680.85285 430.05344,681.30085 430.11744,682.06885 L 430.62944,686.86885 L 432.93344,686.86885 L 433.82944,677.78085 L 433.44544,677.33285 C 431.01344,677.14085 429.86143,677.07685 427.36544,677.07685 C 425.89344,677.07685 423.46143,677.14085 418.34144,677.26885 C 415.39744,677.33285 413.79743,677.33285 412.51744,677.33285 C 410.66144,677.33285 410.66143,677.33285 401.12544,677.14085 L 401.12544,679.50885 L 403.49344,679.70085 C 406.37343,679.95685 406.56544,680.34086 406.56544,685.97285 L 406.56544,712.08485 C 406.56544,717.78085 406.50143,717.90885 403.49344,718.16485 L 401.12544,718.35685 L 401.12544,720.91685 C 408.86943,720.72485 408.86944,720.72485 411.04544,720.72485 C 413.09343,720.72485 413.09344,720.72485 421.66944,720.91685 L 421.66944,718.35685 L 418.66144,718.16485 C 415.71744,717.97285 415.58944,717.71685 415.58944,712.08485 L 415.58944,700.11685 C 417.38143,699.98885 418.46944,699.92485 419.87744,699.92485 L 423.14144,699.92485 C 425.57343,699.92485 426.59744,700.62886 426.78944,702.29285 L 427.17344,705.49285 L 429.73344,705.49285 C 429.73344,705.49285 429.54144,698.58085 429.54144,698.58085 C 429.54144,697.87685 429.54144,696.98085 429.73344,691.98885 L 427.17344,691.98885 L 426.78944,695.38085 C 426.66144,696.40485 425.82943,696.72485 423.14144,696.72485 L 419.87744,696.72485 C 417.76544,696.72485 416.86943,696.72485 415.58944,696.59685 L 415.58944,681.04485 M 456.45844,685.97485 C 444.35845,685.97485 437.30844,692.67486 437.30844,704.12485 C 437.30844,715.22484 443.85845,721.57485 455.30844,721.57485 C 467.25842,721.57485 474.30844,714.82484 474.30844,703.42485 C 474.30844,692.42486 467.75842,685.97485 456.45844,685.97485 M 456.00844,688.77485 C 458.65843,688.77485 460.75844,689.62486 462.50844,691.32485 C 465.25843,694.02485 466.80844,698.82486 466.80844,704.47485 C 466.80844,713.87484 462.95843,718.77485 455.65844,718.77485 C 452.90844,718.77485 450.85843,717.97485 449.05844,716.17485 C 446.35844,713.52486 444.80844,708.72485 444.80844,702.97485 C 444.80844,697.87486 446.05844,693.87485 448.30844,691.62485 C 450.25843,689.72486 452.85844,688.77485 456.00844,688.77485 M 489.90765,693.57485 C 489.90765,689.12486 489.95766,689.02485 492.30765,688.82485 L 494.15765,688.67485 L 494.15765,686.67485 C 488.05766,686.82485 488.05765,686.82485 486.35765,686.82485 C 484.65766,686.82485 484.60765,686.82485 478.60765,686.67485 L 478.60765,688.67485 L 480.45765,688.82485 C 482.80765,689.02485 482.85765,689.12486 482.85765,693.57485 L 482.85765,715.97485 C 482.85765,717.67485 482.60765,718.42485 481.85765,718.82485 L 480.25765,719.72485 L 480.25765,720.87485 C 485.20765,720.72485 485.20765,720.72485 486.35765,720.72485 L 488.05765,720.72485 C 493.10765,720.87485 495.10766,720.92485 497.65765,720.92485 C 500.25765,720.92485 501.80766,720.87485 504.70765,720.72485 L 504.95765,720.32485 L 505.50765,712.02485 L 503.55765,712.02485 L 502.40765,717.12485 C 502.30765,717.57485 499.55765,717.97485 496.45765,717.97485 C 494.35766,717.97485 492.50765,717.92485 489.90765,717.82485 L 489.90765,693.57485 M 527.42406,689.77485 L 533.27406,689.77485 C 535.37406,689.77485 535.92406,689.87485 536.37406,690.22485 L 536.82406,691.42485 L 537.07406,694.87485 L 539.07406,694.87485 C 539.17406,691.07486 539.32406,689.32485 539.72406,686.92485 L 539.42406,686.67485 C 525.62407,686.82485 525.62406,686.82485 523.92406,686.82485 C 522.17406,686.82485 522.17405,686.82485 508.37406,686.67485 L 508.07406,686.92485 C 508.47406,689.32485 508.57406,691.07486 508.72406,694.87485 L 510.72406,694.87485 L 510.97406,691.42485 C 510.97406,691.12485 511.22406,690.52485 511.37406,690.27485 C 511.62406,689.92485 512.42406,689.77485 514.52406,689.77485 L 520.37406,689.77485 L 520.37406,713.97485 C 520.37406,718.42485 520.32406,718.52485 517.97406,718.72485 L 516.12406,718.87485 L 516.12406,720.87485 C 522.17405,720.72485 522.17406,720.72485 523.87406,720.72485 C 525.57406,720.72485 525.62407,720.72485 531.67406,720.87485 L 531.67406,718.87485 L 529.82406,718.72485 C 527.47406,718.52485 527.42406,718.42485 527.42406,713.97485 L 527.42406,689.77485 M 564.0725,710.42485 L 566.3225,716.12485 C 566.5225,716.62485 566.6225,717.12485 566.6225,717.52485 C 566.6225,718.27485 566.1725,718.82485 565.6225,718.87485 L 562.9725,719.02485 L 562.9725,720.87485 C 569.97249,720.72485 569.9725,720.72485 570.5725,720.72485 C 571.1225,720.72485 571.1225,720.72485 578.4725,720.87485 L 578.4725,719.02485 L 577.2725,718.87485 C 575.8725,718.67485 575.1725,718.12485 574.5225,716.67485 L 561.5725,686.42485 L 558.0225,686.42485 L 556.6225,690.17485 C 555.9225,692.12485 555.4225,693.42485 555.1725,693.97485 L 546.1225,715.87485 C 545.2725,717.82485 544.4225,718.77485 543.3225,718.87485 L 541.8225,719.02485 L 541.8225,720.87485 C 543.1225,720.82485 544.2725,720.82485 544.6725,720.77485 C 546.0725,720.72485 547.0225,720.72485 547.4725,720.72485 C 547.9225,720.72485 548.8725,720.72485 550.2725,720.77485 C 550.7225,720.82485 551.7725,720.82485 553.1225,720.87485 L 553.1225,719.02485 L 550.6225,718.87485 C 549.7725,718.82485 549.1725,718.12485 549.1725,717.27485 C 549.1725,716.92485 549.2725,716.42485 549.4225,716.02485 L 551.5225,710.42485 L 564.0725,710.42485 M 557.7225,694.92485 L 562.9225,707.62485 L 552.7225,707.62485 L 557.7225,694.92485"
       id="text3328"
       style="font-size:64px;font-style:normal;font-variant:normal;font-weight:bold;font-stretch:normal;fill:#000000;fill-opacity:1;stroke:none;stroke-width:1px;stroke-linecap:butt;stroke-linejoin:miter;stroke-opacity:1;font-family:URW Palladio L;-inkscape-font-specification:URW Palladio L Medium" />
    <path
       d="M 198.23891,699.32585 C 198.23891,717.26827 183.69371,731.81348 165.75129,731.81348 C 147.80888,731.81348 133.26366,717.26827 133.26366,699.32585 C 133.26366,681.38343 147.80888,666.83823 165.75129,666.83823 C 183.69371,666.83823 198.23891,681.38343 198.23891,699.32585 z"
       id="path3336"
       style="opacity:1;fill:none;fill-opacity:1;stroke:#000000;stroke-width:4.5;stroke-miterlimit:4;stroke-dasharray:none;stroke-opacity:1" />
    <path
       d="M 153.71801,685.95828 L 158.39422,685.95828 C 161.43006,685.95832 164.02523,687.04372 166.17973,689.21449 C 168.33418,691.369 169.41142,693.96416 169.41145,697 L 169.41145,701.6762 C 169.41142,704.71208 168.33418,707.30724 166.17973,709.46171 C 164.02523,711.6162 161.43006,712.69344 158.39422,712.69343 C 157.07214,712.69344 155.75823,712.69344 154.4525,712.69343 C 153.14674,712.69344 151.841,712.69344 150.53526,712.69343 C 149.39272,712.69344 148.33181,712.4731 147.3525,712.0324 L 147.3525,712.69343 L 147.3525,721.3848 C 147.3525,722.95169 146.57721,723.73515 145.02664,723.73515 L 145.02664,723.73515 C 143.45975,723.73515 142.6763,722.95169 142.6763,721.3848 C 142.6763,717.32068 142.6763,713.25654 142.6763,709.1924 C 142.6763,705.12828 142.6763,701.06415 142.6763,697 C 142.6763,693.96416 143.75354,691.369 145.90802,689.21449 C 148.07882,687.04372 150.68215,685.95832 153.71801,685.95828 M 158.39422,708.01722 C 160.14064,708.01724 161.63408,707.39702 162.87456,706.15654 C 164.115,704.9161 164.73523,703.42264 164.73525,701.6762 L 164.73525,697 C 164.73523,695.25359 164.115,693.76014 162.87456,692.51966 C 161.63408,691.26291 160.14064,690.63452 158.39422,690.63448 L 153.71801,690.63448 C 151.95525,690.63452 150.45364,691.26291 149.21319,692.51966 C 147.97273,693.76014 147.3525,695.25359 147.3525,697 L 147.3525,705.00585 L 147.3525,705.00585 C 147.40146,705.83828 147.7279,706.54828 148.33181,707.13585 C 148.95204,707.72345 149.68652,708.01724 150.53526,708.01722 C 151.841,708.01724 153.14674,708.01724 154.4525,708.01722 C 155.75823,708.01724 157.07214,708.01724 158.39422,708.01722 M 178.64144,685.95828 C 179.55546,685.95832 180.46948,685.95832 181.38351,685.95828 C 182.29752,685.95832 183.2197,685.95832 184.15006,685.95828 C 185.71694,685.95832 186.50039,686.74177 186.5004,688.30862 L 186.5004,688.30862 C 186.50039,689.85922 185.71694,690.63452 184.15006,690.63448 C 183.2197,690.63452 182.29752,690.63452 181.38351,690.63448 C 180.46948,690.63452 179.55546,690.63452 178.64144,690.63448 C 177.7927,690.63452 177.05822,690.92831 176.438,691.51586 C 175.83408,692.10348 175.50765,692.81348 175.45869,693.64586 L 175.45869,693.64586 L 175.45869,710.36756 C 175.45868,711.91816 174.6834,712.69344 173.13283,712.69343 L 173.13283,712.69343 C 171.56593,712.69344 170.78248,711.91816 170.78248,710.36756 C 170.78248,706.30345 170.78248,702.23932 170.78248,698.17517 C 170.78248,694.09474 170.78248,690.02245 170.78248,685.95828 C 170.78248,682.92246 171.85972,680.32728 174.01421,678.17277 C 176.185,676.00202 178.78833,674.91661 181.8242,674.91656 C 183.26051,674.91661 184.02763,674.91661 184.12558,674.91656 C 184.23982,674.91661 185.03142,674.91661 186.5004,674.91656 C 188.05096,674.91661 188.82624,675.70006 188.82626,677.26691 L 188.82626,677.26691 C 188.82624,678.83385 188.05096,679.6173 186.5004,679.61725 C 185.03142,679.6173 184.23982,679.6173 184.12558,679.61725 C 184.02763,679.6173 183.26051,679.6173 181.8242,679.61725 C 180.06143,679.6173 178.55983,680.23753 177.31938,681.47794 C 176.07891,682.71844 175.45868,684.21189 175.45869,685.95828 L 175.45869,686.6438 C 176.47063,686.18682 177.53155,685.95832 178.64144,685.95828"
       id="text2398"
       style="font-size:27.85591698px;font-style:normal;font-weight:normal;fill:#000000;fill-opacity:1;stroke:none;stroke-width:1px;stroke-linecap:butt;stroke-linejoin:miter;stroke-opacity:1;font-family:Bitstream Vera Sans;-inkscape-font-specification:Phino" />
  </g>
</svg>
