<?xml version="1.0" encoding="UTF-8" standalone="no"?>
<!-- Created with Inkscape (http://www.inkscape.org/) -->

<svg
   xmlns:dc="http://purl.org/dc/elements/1.1/"
   xmlns:cc="http://creativecommons.org/ns#"
   xmlns:rdf="http://www.w3.org/1999/02/22-rdf-syntax-ns#"
   xmlns:svg="http://www.w3.org/2000/svg"
   xmlns="http://www.w3.org/2000/svg"
   version="1.1"
   width="691.25"
   height="182.5"
   id="svg2"
   xml:space="preserve"><metadata
     id="metadata8"><rdf:RDF><cc:Work
         rdf:about=""><dc:format>image/svg+xml</dc:format><dc:type
           rdf:resource="http://purl.org/dc/dcmitype/StillImage" /><dc:title></dc:title></cc:Work></rdf:RDF></metadata><defs
     id="defs6" /><g
     transform="matrix(1.25,0,0,-1.25,0,182.5)"
     id="g10"><path
       d="m 122.7,40.705 0,19.409 -4.605,0 0,-18.123 c 0,-3.586 -1.642,-5.496 -5.006,-5.496 -3.403,0 -4.925,1.365 -4.925,5.496 l 0,18.123 -4.645,0 0,-19.448 c 0,-4.326 2.282,-7.99 9.57,-7.99 6.087,0 9.611,3.079 9.611,8.029"
       id="path12"
       style="fill:#21467b;fill-opacity:1;fill-rule:nonzero;stroke:none" /><path
       d="m 148.888,33.144 0,26.97 -4.365,0 0.08,-12.316 c 0,-2.455 0.28,-6.314 0.4,-7.678 l -0.12,-0.117 c -0.36,1.247 -1.561,4.443 -2.843,6.938 l -6.728,13.173 -5.206,0 0,-26.97 4.526,0 -0.161,13.056 c -0.04,2.378 -0.08,5.223 -0.28,7.483 l 0.12,0.117 c 0.521,-1.598 2.043,-4.988 3.524,-7.99 l 6.207,-12.666 4.846,0"
       id="path14"
       style="fill:#21467b;fill-opacity:1;fill-rule:nonzero;stroke:none" /><path
       d="m 156.411,60.114 4.725,0 0,-26.971 -4.725,0 0,26.971 z"
       id="path16"
       style="fill:#21467b;fill-opacity:1;fill-rule:nonzero;stroke:none" /><path
       d="m 187.722,60.114 -4.805,0 -5.086,-15.044 c -1.362,-4.015 -1.682,-5.651 -1.682,-5.651 l -0.08,0 c 0,0 -0.32,1.987 -1.442,5.417 l -5.005,15.278 -5.046,0 9.331,-27.087 4.284,0 9.531,27.087"
       id="path18"
       style="fill:#21467b;fill-opacity:1;fill-rule:nonzero;stroke:none" /><path
       d="m 207.135,33.144 0,3.819 -11.093,0 0,8.419 8.45,0 0,3.702 -8.53,0 0,7.367 10.172,0 0.6,3.663 -15.377,0 0,-26.97 15.778,0"
       id="path20"
       style="fill:#21467b;fill-opacity:1;fill-rule:nonzero;stroke:none" /><path
       d="m 231.917,33.144 -4.085,6.469 c -1.442,2.261 -3.284,4.872 -4.285,5.379 4.165,0 6.888,3.235 6.888,7.405 0,4.209 -2.803,7.717 -9.01,7.717 l -8.45,0 0,-26.97 4.525,0 0,11.653 c 0.881,-0.039 1.282,-0.312 1.802,-0.818 1.522,-1.481 2.804,-3.352 4.726,-6.665 l 2.403,-4.17 5.486,0 z m -6.287,19.214 c 0,-1.403 -0.481,-2.533 -1.242,-3.274 -0.841,-0.818 -2.122,-1.13 -4.525,-1.13 l -2.363,0 0,8.536 2.523,0 c 4.085,0 5.607,-1.403 5.607,-4.132"
       id="path22"
       style="fill:#21467b;fill-opacity:1;fill-rule:evenodd;stroke:none" /><path
       d="m 254.172,41.289 c 0,4.054 -2.803,6.548 -6.808,7.679 l -3.283,0.935 c -2.723,0.779 -3.684,1.637 -3.684,3.313 0,2.221 1.802,3.664 4.525,3.664 2.202,0 3.964,-0.585 6.527,-2.066 l 2.082,3.157 c -2.442,1.676 -5.606,2.572 -8.77,2.572 -5.566,0 -9.41,-3.235 -9.41,-7.99 0,-1.559 0.4,-2.845 1.161,-3.936 1.041,-1.52 2.843,-2.534 5.366,-3.235 l 2.963,-0.819 c 2.844,-0.779 4.125,-2.026 4.125,-4.014 0,-2.689 -2.042,-4.287 -5.446,-4.287 -2.803,0 -5.006,0.818 -7.488,2.221 l -1.762,-3.43 c 2.723,-1.598 5.926,-2.416 9.09,-2.416 7.088,0 10.812,4.17 10.812,8.652"
       id="path24"
       style="fill:#21467b;fill-opacity:1;fill-rule:nonzero;stroke:none" /><path
       d="m 259.934,60.114 4.725,0 0,-26.971 -4.725,0 0,26.971 z"
       id="path26"
       style="fill:#21467b;fill-opacity:1;fill-rule:nonzero;stroke:none" /><path
       d="m 288.082,60.114 -19.182,0 0,-3.741 7.008,0 0,-23.229 4.605,0 0,23.229 6.968,0 0.601,3.741"
       id="path28"
       style="fill:#21467b;fill-opacity:1;fill-rule:nonzero;stroke:none" /><path
       d="m 306.537,63.934 c 0,1.52 -1.242,2.728 -2.683,2.728 -1.522,0 -2.723,-1.208 -2.723,-2.728 0,-1.481 1.201,-2.728 2.683,-2.728 1.481,0 2.723,1.247 2.723,2.728 z m -8.41,0 c 0,1.52 -1.201,2.728 -2.683,2.728 -1.481,0 -2.683,-1.208 -2.683,-2.728 0,-1.481 1.202,-2.728 2.683,-2.728 1.482,0 2.683,1.247 2.683,2.728 z m 13.456,-30.79 -8.85,27.009 -5.326,0 -9.091,-27.009 4.766,0 2.242,7.093 8.97,0 2.243,-7.093 5.046,0 z m -8.33,10.835 -6.808,0 c 0.641,1.793 3.484,11.497 3.484,11.497 l 0.041,0 c 0.2,-1.052 3.003,-10.913 3.283,-11.497"
       id="path30"
       style="fill:#21467b;fill-opacity:1;fill-rule:evenodd;stroke:none" /><path
       d="m 331.476,60.114 -19.182,0 0,-3.741 7.008,0 0,-23.229 4.605,0 0,23.229 6.968,0 0.601,3.741"
       id="path32"
       style="fill:#21467b;fill-opacity:1;fill-rule:nonzero;stroke:none" /><path
       d="m 361.578,52.047 c 0,2.962 -1.362,5.378 -3.805,6.781 -1.521,0.897 -3.003,1.286 -7.047,1.286 l -7.369,0 0,-26.97 4.565,0 0,10.289 4.686,0 c 5.005,0 8.97,3.313 8.97,8.614 z m -5.086,-0.273 c 0,-3.196 -1.562,-4.755 -4.966,-4.755 l -3.604,0 0,9.471 3.604,0 c 1.803,0 3.004,-0.468 3.845,-1.326 0.76,-0.779 1.121,-1.909 1.121,-3.39"
       id="path34"
       style="fill:#21467b;fill-opacity:1;fill-rule:evenodd;stroke:none" /><path
       d="m 383.962,33.144 -8.85,27.009 -5.326,0 -9.09,-27.009 4.765,0 2.243,7.093 8.97,0 2.243,-7.093 5.045,0 z m -8.329,10.835 -6.808,0 c 0.641,1.793 3.484,11.497 3.484,11.497 l 0.04,0 c 0.2,-1.052 3.004,-10.913 3.284,-11.497"
       id="path36"
       style="fill:#21467b;fill-opacity:1;fill-rule:evenodd;stroke:none" /><path
       d="m 407.059,46.551 c 0,4.209 -0.961,7.444 -3.003,9.744 -2.603,2.884 -5.687,3.819 -10.892,3.819 l -5.767,0 0,-26.97 6.848,0 c 5.166,0 7.568,0.896 9.891,3.78 1.882,2.339 2.923,5.535 2.923,9.627 z m -5.126,-0.468 c 0,-6.119 -1.962,-9.276 -6.847,-9.276 l -3.044,0 0,19.761 2.924,0 c 2.482,0 3.924,-0.624 5.205,-2.339 1.442,-1.91 1.762,-4.677 1.762,-8.146"
       id="path38"
       style="fill:#21467b;fill-opacity:1;fill-rule:evenodd;stroke:none" /><path
       d="m 428.553,33.144 0,3.819 -11.093,0 0,8.419 8.45,0 0,3.702 -8.53,0 0,7.367 10.172,0 0.6,3.663 -15.377,0 0,-26.97 15.778,0"
       id="path40"
       style="fill:#21467b;fill-opacity:1;fill-rule:nonzero;stroke:none" /><path
       d="m 453.335,33.144 -4.085,6.469 c -1.441,2.261 -3.284,4.872 -4.285,5.379 4.165,0 6.888,3.235 6.888,7.405 0,4.209 -2.803,7.717 -9.01,7.717 l -8.45,0 0,-26.97 4.525,0 0,11.653 c 0.882,-0.039 1.282,-0.312 1.802,-0.818 1.522,-1.481 2.804,-3.352 4.726,-6.665 l 2.402,-4.17 5.487,0 z m -6.287,19.214 c 0,-1.403 -0.481,-2.533 -1.242,-3.274 -0.841,-0.818 -2.122,-1.13 -4.525,-1.13 l -2.363,0 0,8.536 2.523,0 c 4.085,0 5.607,-1.403 5.607,-4.132"
       id="path42"
       style="fill:#21467b;fill-opacity:1;fill-rule:evenodd;stroke:none" /><path
       d="m 477.152,40.783 c 0,2.689 -1.282,5.729 -5.887,6.82 3.084,0.858 4.766,3.001 4.766,5.886 0,2.26 -1.041,4.014 -3.124,5.3 -1.722,1.053 -3.164,1.325 -7.288,1.325 l -7.328,0 0,-26.97 8.048,0 c 7.009,0 10.813,2.299 10.813,7.639 z m -5.967,12.004 c 0,-0.702 -0.24,-1.832 -1.081,-2.689 -0.881,-0.897 -1.722,-1.014 -3.404,-1.014 l -3.924,0 0,7.367 3.563,0 c 1.322,0 2.043,-0.117 2.604,-0.312 1.321,-0.468 2.242,-1.793 2.242,-3.352 z m 0.881,-11.575 c 0,-2.417 -1.522,-4.366 -5.046,-4.366 l -4.164,0 0,8.536 4.044,0 c 1.321,0 1.882,-0.039 2.563,-0.234 1.522,-0.429 2.603,-2.027 2.603,-3.936"
       id="path44"
       style="fill:#21467b;fill-opacity:1;fill-rule:evenodd;stroke:none" /><path
       d="m 504.06,46.59 c 0,7.873 -3.765,13.914 -11.573,13.914 -6.928,0 -11.573,-4.989 -11.573,-13.875 0,-7.99 3.884,-13.914 11.773,-13.914 7.208,0 11.373,5.456 11.373,13.875 z m -5.246,-0.273 c 0,-7.249 -2.123,-10.211 -6.247,-10.211 -4.726,0 -6.528,3.858 -6.528,10.796 0,6.47 1.762,10.133 6.408,10.133 4.965,0 6.367,-4.131 6.367,-10.718"
       id="path46"
       style="fill:#21467b;fill-opacity:1;fill-rule:evenodd;stroke:none" /><path
       d="m 528.528,33.144 -4.085,6.469 c -1.441,2.261 -3.284,4.872 -4.285,5.379 4.165,0 6.888,3.235 6.888,7.405 0,4.209 -2.803,7.717 -9.01,7.717 l -8.45,0 0,-26.97 4.525,0 0,11.653 c 0.881,-0.039 1.282,-0.312 1.803,-0.818 1.521,-1.481 2.802,-3.352 4.725,-6.665 l 2.402,-4.17 5.487,0 z m -6.288,19.214 c 0,-1.403 -0.48,-2.533 -1.241,-3.274 -0.841,-0.818 -2.122,-1.13 -4.525,-1.13 l -2.363,0 0,8.536 2.523,0 c 4.085,0 5.606,-1.403 5.606,-4.132"
       id="path48"
       style="fill:#21467b;fill-opacity:1;fill-rule:evenodd;stroke:none" /><path
       d="m 552.425,33.144 0,26.97 -4.365,0 0.08,-12.316 c 0,-2.455 0.28,-6.314 0.4,-7.678 l -0.12,-0.117 c -0.36,1.247 -1.562,4.443 -2.843,6.938 l -6.728,13.173 -5.205,0 0,-26.97 4.525,0 -0.16,13.056 c -0.041,2.378 -0.081,5.223 -0.281,7.483 l 0.12,0.117 c 0.521,-1.598 2.043,-4.988 3.524,-7.99 l 6.207,-12.666 4.846,0"
       id="path50"
       style="fill:#21467b;fill-opacity:1;fill-rule:nonzero;stroke:none" /><path
       d="m 117.314,16.939 c 0,2.174 -0.501,3.508 -1.408,4.521 -1.098,1.235 -2.578,1.507 -5.179,1.507 l -3.676,0 -3.532,-17.072 4.153,0 c 3.126,0 4.773,0.642 6.444,2.347 1.957,2.001 3.198,5.831 3.198,8.697 z m -2.959,-0.075 c 0,-1.334 -0.526,-4.62 -2.077,-6.868 -0.764,-1.087 -2.029,-1.779 -3.795,-1.779 l -1.695,0 2.554,12.502 1.719,0 c 1.384,0 2.196,-0.322 2.768,-1.236 0.406,-0.667 0.526,-1.532 0.526,-2.619"
       id="path52"
       style="fill:#21467b;fill-opacity:1;fill-rule:evenodd;stroke:none" /><path
       d="m 124.734,22.028 c 0,0.988 -0.764,1.803 -1.719,1.803 -0.978,0 -1.766,-0.815 -1.766,-1.828 0,-0.988 0.788,-1.803 1.743,-1.803 0.978,0 1.742,0.815 1.742,1.828 z m -1.122,-3.36 -2.745,-0.42 -2.53,-12.353 2.674,0 2.601,12.773"
       id="path54"
       style="fill:#21467b;fill-opacity:1;fill-rule:evenodd;stroke:none" /><path
       d="m 135.54,15.357 c 0,2.224 -1.479,3.336 -3.819,3.336 -1.551,0 -2.888,-0.519 -4.081,-1.705 -1.647,-1.655 -2.697,-4.348 -2.697,-6.844 0,-2.965 1.718,-4.57 4.296,-4.57 2.029,0 3.461,0.568 4.917,1.778 l -0.812,1.68 c -1.121,-0.914 -2.148,-1.358 -3.413,-1.358 -1.312,0 -2.196,0.741 -2.196,2.297 0,0.396 0.096,1.063 0.144,1.31 0.214,0 0.787,-0.099 1.456,-0.099 2.482,0 4.129,0.568 5.131,1.581 0.692,0.692 1.074,1.581 1.074,2.594 z m -2.649,-0.173 c 0,-0.518 -0.191,-0.914 -0.501,-1.235 -0.573,-0.593 -1.576,-0.815 -3.032,-0.815 -0.405,0 -0.907,0.074 -1.05,0.074 0.525,2.347 1.719,3.459 3.079,3.459 1.098,0 1.504,-0.643 1.504,-1.483"
       id="path56"
       style="fill:#21467b;fill-opacity:1;fill-rule:evenodd;stroke:none" /><path
       d="m 157.371,22.967 -2.745,0 -2.316,-11.242 c -0.238,-1.21 -0.381,-1.605 -0.692,-2.124 -0.549,-0.914 -1.599,-1.581 -3.055,-1.581 -1.408,0 -2.267,0.568 -2.41,1.556 -0.072,0.42 0,1.137 0.238,2.298 l 2.292,11.093 -2.769,0 -2.411,-11.686 c -0.143,-0.717 -0.215,-1.507 -0.215,-2.026 0,-2.372 1.91,-3.681 4.869,-3.681 2.578,0 3.843,0.766 4.726,1.433 1.265,0.939 1.623,2.001 2.101,4.299 l 2.387,11.661"
       id="path58"
       style="fill:#21467b;fill-opacity:1;fill-rule:nonzero;stroke:none" /><path
       d="m 168.703,16.197 c 0,1.507 -0.907,2.471 -2.41,2.471 -1.671,0 -3.199,-0.791 -4.344,-2.224 0.167,0.865 0.023,1.779 -0.215,2.347 l -2.435,-1.037 c 0.263,-0.914 0.239,-1.754 -0.048,-3.212 l -1.766,-8.647 2.578,0 1.671,8.153 c 1.265,1.705 2.458,2.322 3.317,2.322 0.645,0 0.955,-0.271 0.955,-0.988 0,-0.272 -0.048,-0.667 -0.167,-1.211 l -1.695,-8.276 2.602,0 1.838,8.944 c 0.095,0.42 0.119,0.938 0.119,1.358"
       id="path60"
       style="fill:#21467b;fill-opacity:1;fill-rule:nonzero;stroke:none" /><path
       d="m 176.808,22.028 c 0,0.988 -0.764,1.803 -1.718,1.803 -0.979,0 -1.767,-0.815 -1.767,-1.828 0,-0.988 0.788,-1.803 1.743,-1.803 0.978,0 1.742,0.815 1.742,1.828 z m -1.122,-3.36 -2.745,-0.42 -2.53,-12.353 2.674,0 2.601,12.773"
       id="path62"
       style="fill:#21467b;fill-opacity:1;fill-rule:evenodd;stroke:none" /><path
       d="m 188.521,18.371 -2.84,0.025 -3.461,-6.572 c -0.549,-1.037 -0.931,-1.927 -1.217,-2.668 0,0 -0.024,-0.025 -0.024,-0.049 0,0.716 -0.048,1.828 -0.143,2.643 l -0.788,6.918 -2.673,-0.42 1.814,-12.403 2.291,0 7.041,12.526"
       id="path64"
       style="fill:#21467b;fill-opacity:1;fill-rule:nonzero;stroke:none" /><path
       d="m 198.659,15.357 c 0,2.224 -1.48,3.336 -3.819,3.336 -1.551,0 -2.888,-0.519 -4.081,-1.705 -1.647,-1.655 -2.697,-4.348 -2.697,-6.844 0,-2.965 1.718,-4.57 4.296,-4.57 2.029,0 3.461,0.568 4.917,1.778 l -0.812,1.68 c -1.122,-0.914 -2.148,-1.358 -3.413,-1.358 -1.313,0 -2.196,0.741 -2.196,2.297 0,0.396 0.096,1.063 0.143,1.31 0.215,0 0.788,-0.099 1.456,-0.099 2.483,0 4.13,0.568 5.132,1.581 0.692,0.692 1.074,1.581 1.074,2.594 z m -2.649,-0.173 c 0,-0.518 -0.191,-0.914 -0.502,-1.235 -0.572,-0.593 -1.575,-0.815 -3.031,-0.815 -0.406,0 -0.907,0.074 -1.05,0.074 0.525,2.347 1.719,3.459 3.079,3.459 1.098,0 1.504,-0.643 1.504,-1.483"
       id="path66"
       style="fill:#21467b;fill-opacity:1;fill-rule:evenodd;stroke:none" /><path
       d="m 208.967,18.495 c -0.358,0.148 -0.573,0.198 -1.003,0.198 -1.169,0 -2.506,-0.914 -3.604,-2.347 0.167,0.864 0.072,1.803 -0.191,2.445 l -2.434,-1.037 c 0.238,-0.865 0.262,-1.804 -0.096,-3.508 l -1.718,-8.351 2.601,0 1.647,8.029 c 1.05,1.532 1.981,2.199 2.816,2.199 0.359,0 0.597,-0.049 0.836,-0.197 l 1.146,2.569"
       id="path68"
       style="fill:#21467b;fill-opacity:1;fill-rule:nonzero;stroke:none" /><path
       d="m 218.22,17.754 c -0.955,0.617 -2.34,1.062 -3.772,1.062 -3.532,0 -5.275,-2.075 -5.275,-4.249 0,-1.557 0.836,-2.422 2.268,-2.99 l 1.384,-0.543 c 1.098,-0.445 1.528,-0.84 1.528,-1.631 0,-1.038 -1.003,-1.803 -2.315,-1.803 -1.361,0 -2.769,0.518 -3.771,1.235 l -1.051,-2.001 c 1.241,-0.816 2.793,-1.31 4.464,-1.31 3.556,0 5.585,2.1 5.585,4.67 0,1.482 -0.979,2.372 -2.459,2.964 l -1.432,0.569 c -0.955,0.37 -1.289,0.79 -1.289,1.457 0,1.038 0.931,1.532 2.196,1.532 0.955,0 1.886,-0.272 2.888,-0.865 l 1.051,1.903"
       id="path70"
       style="fill:#21467b;fill-opacity:1;fill-rule:nonzero;stroke:none" /><path
       d="m 225.521,22.028 c 0,0.988 -0.764,1.803 -1.719,1.803 -0.978,0 -1.766,-0.815 -1.766,-1.828 0,-0.988 0.788,-1.803 1.742,-1.803 0.979,0 1.743,0.815 1.743,1.828 z m -1.122,-3.36 -2.745,-0.42 -2.53,-12.353 2.674,0 2.601,12.773"
       id="path72"
       style="fill:#21467b;fill-opacity:1;fill-rule:evenodd;stroke:none" /><path
       d="m 233.487,18.396 -2.888,0 c 0.239,1.186 0.644,2.644 0.979,3.706 l -2.793,-0.667 c -0.31,-0.939 -0.549,-1.902 -0.788,-3.039 l -1.36,0 -0.382,-1.927 1.36,0 -1.456,-7.115 c -0.119,-0.618 -0.167,-1.26 -0.167,-1.705 0,-1.26 0.907,-2.1 2.53,-2.1 0.836,0 1.671,0.173 2.506,0.519 l 0,1.68 c -0.381,-0.173 -0.835,-0.247 -1.217,-0.247 -0.763,0 -1.121,0.247 -1.121,1.037 0,0.322 0.047,0.741 0.143,1.211 l 1.36,6.72 2.315,0 0.979,1.927"
       id="path74"
       style="fill:#21467b;fill-opacity:1;fill-rule:nonzero;stroke:none" /><path
       d="m 245.009,21.435 c 0,0.914 -0.716,1.655 -1.599,1.655 -0.907,0 -1.623,-0.741 -1.623,-1.655 0,-0.939 0.716,-1.68 1.623,-1.68 0.883,0 1.599,0.741 1.599,1.68 z m -4.988,0 c 0,0.914 -0.716,1.655 -1.6,1.655 -0.883,0 -1.623,-0.741 -1.623,-1.655 0,-0.939 0.716,-1.68 1.599,-1.68 0.908,0 1.624,0.741 1.624,1.68 z m 4.463,-3.681 c -0.955,0.642 -2.363,0.939 -3.747,0.939 -1.934,0 -3.509,-0.667 -4.798,-2.026 -1.551,-1.656 -2.554,-4.324 -2.554,-7.091 0,-2.668 1.265,-3.978 3.151,-3.978 1.551,0 2.769,0.717 3.628,1.927 0,-0.815 0.262,-1.507 0.907,-2.05 l 2.148,1.655 c -0.597,0.667 -0.74,1.309 -0.43,2.817 l 0.979,4.941 c 0.167,0.889 0.501,2.174 0.716,2.866 z m -2.936,-1.458 -1.289,-6.127 c -0.549,-1.26 -1.766,-2.396 -2.864,-2.396 -0.883,0 -1.313,0.518 -1.313,1.877 0,1.754 0.502,4.176 1.576,5.51 0.931,1.136 1.694,1.383 2.768,1.383 0.406,0 0.883,-0.099 1.122,-0.247"
       id="path76"
       style="fill:#21467b;fill-opacity:1;fill-rule:evenodd;stroke:none" /><path
       d="m 253.647,18.396 -2.888,0 c 0.239,1.186 0.645,2.644 0.979,3.706 l -2.792,-0.667 c -0.311,-0.939 -0.55,-1.902 -0.788,-3.039 l -1.361,0 -0.382,-1.927 1.361,0 -1.456,-7.115 c -0.119,-0.618 -0.167,-1.26 -0.167,-1.705 0,-1.26 0.907,-2.1 2.53,-2.1 0.835,0 1.671,0.173 2.506,0.519 l 0,1.68 c -0.382,-0.173 -0.835,-0.247 -1.217,-0.247 -0.764,0 -1.122,0.247 -1.122,1.037 0,0.322 0.048,0.741 0.143,1.211 l 1.361,6.72 2.315,0 0.978,1.927"
       id="path78"
       style="fill:#21467b;fill-opacity:1;fill-rule:nonzero;stroke:none" /><path
       d="m 271.919,23.634 -2.507,0.445 -0.859,-4.2 c -0.095,-0.42 -0.31,-1.557 -0.31,-1.68 -0.406,0.222 -1.241,0.395 -2.315,0.395 -1.385,0 -2.888,-0.593 -4.034,-1.754 -1.695,-1.73 -2.649,-4.398 -2.649,-6.893 0,-2.817 1.145,-4.299 3.556,-4.299 1.384,0 2.625,0.642 3.556,1.828 -0.047,-0.79 0.144,-1.408 0.454,-1.804 l 2.243,0.544 c -0.334,0.593 -0.429,1.384 0.12,4.027 l 2.745,13.391 z m -4.201,-7.733 -1.217,-5.855 c -0.74,-1.31 -2.053,-2.224 -3.056,-2.224 -0.978,0 -1.455,0.716 -1.455,2.075 0,1.705 0.668,4.126 1.646,5.362 0.573,0.741 1.433,1.136 2.196,1.136 0.883,0 1.385,-0.148 1.886,-0.494"
       id="path80"
       style="fill:#21467b;fill-opacity:1;fill-rule:evenodd;stroke:none" /><path
       d="m 283.04,15.357 c 0,2.224 -1.48,3.336 -3.819,3.336 -1.552,0 -2.888,-0.519 -4.082,-1.705 -1.647,-1.655 -2.697,-4.348 -2.697,-6.844 0,-2.965 1.719,-4.57 4.297,-4.57 2.028,0 3.461,0.568 4.916,1.778 l -0.811,1.68 c -1.122,-0.914 -2.148,-1.358 -3.413,-1.358 -1.313,0 -2.196,0.741 -2.196,2.297 0,0.396 0.095,1.063 0.143,1.31 0.215,0 0.788,-0.099 1.456,-0.099 2.482,0 4.129,0.568 5.132,1.581 0.692,0.692 1.074,1.581 1.074,2.594 z m -2.65,-0.173 c 0,-0.518 -0.19,-0.914 -0.501,-1.235 -0.573,-0.593 -1.575,-0.815 -3.031,-0.815 -0.406,0 -0.907,0.074 -1.05,0.074 0.525,2.347 1.718,3.459 3.079,3.459 1.098,0 1.503,-0.643 1.503,-1.483"
       id="path82"
       style="fill:#21467b;fill-opacity:1;fill-rule:evenodd;stroke:none" /><path
       d="m 293.347,18.495 c -0.358,0.148 -0.573,0.198 -1.002,0.198 -1.17,0 -2.506,-0.914 -3.604,-2.347 0.167,0.864 0.071,1.803 -0.191,2.445 l -2.435,-1.037 c 0.239,-0.865 0.263,-1.804 -0.095,-3.508 l -1.719,-8.351 2.602,0 1.647,8.029 c 1.05,1.532 1.981,2.199 2.816,2.199 0.358,0 0.597,-0.049 0.836,-0.197 l 1.145,2.569"
       id="path84"
       style="fill:#21467b;fill-opacity:1;fill-rule:nonzero;stroke:none" /><path
       d="m 304.456,22.967 -2.768,0 -3.533,-17.072 2.793,0 3.508,17.072"
       id="path86"
       style="fill:#21467b;fill-opacity:1;fill-rule:nonzero;stroke:none" /><path
       d="m 316.17,16.197 c 0,1.507 -0.906,2.471 -2.41,2.471 -1.671,0 -3.198,-0.791 -4.344,-2.224 0.167,0.865 0.024,1.779 -0.215,2.347 l -2.434,-1.037 c 0.262,-0.914 0.238,-1.754 -0.048,-3.212 l -1.766,-8.647 2.577,0 1.671,8.153 c 1.265,1.705 2.458,2.322 3.318,2.322 0.644,0 0.955,-0.271 0.955,-0.988 0,-0.272 -0.048,-0.667 -0.168,-1.211 l -1.694,-8.276 2.601,0 1.838,8.944 c 0.096,0.42 0.119,0.938 0.119,1.358"
       id="path88"
       style="fill:#21467b;fill-opacity:1;fill-rule:nonzero;stroke:none" /><path
       d="m 327.975,23.313 c -0.621,0.42 -1.528,0.716 -2.554,0.716 -0.931,0 -1.742,-0.173 -2.411,-0.593 -1.026,-0.642 -1.79,-1.68 -2.076,-3.335 l -0.286,-1.705 -1.146,0 -0.382,-1.927 1.193,0 -2.028,-10.648 c -0.311,-1.606 -1.027,-3.014 -1.719,-3.879 l 1.766,-1.408 c 1.098,1.161 2.101,2.89 2.53,5.213 l 2.029,10.722 2.411,0 1.098,1.927 -3.175,0 0.334,1.853 c 0.191,1.112 0.907,1.754 1.838,1.754 0.501,0 1.003,-0.173 1.48,-0.469 l 1.098,1.779"
       id="path90"
       style="fill:#21467b;fill-opacity:1;fill-rule:nonzero;stroke:none" /><path
       d="m 336.44,14.295 c 0,2.742 -1.504,4.398 -4.272,4.398 -4.01,0 -6.851,-3.805 -6.851,-8.623 0,-2.866 1.528,-4.472 4.201,-4.472 4.44,0 6.922,4.126 6.922,8.697 z m -2.84,0.099 c 0,-3.039 -1.265,-6.745 -3.605,-6.745 -1.169,0 -1.861,0.667 -1.861,2.174 0,2.841 1.241,6.794 3.628,6.794 1.074,0 1.838,-0.543 1.838,-2.223"
       id="path92"
       style="fill:#21467b;fill-opacity:1;fill-rule:evenodd;stroke:none" /><path
       d="m 347.005,18.495 c -0.358,0.148 -0.573,0.198 -1.002,0.198 -1.17,0 -2.506,-0.914 -3.604,-2.347 0.167,0.864 0.071,1.803 -0.191,2.445 l -2.435,-1.037 c 0.239,-0.865 0.263,-1.804 -0.095,-3.508 l -1.719,-8.351 2.602,0 1.647,8.029 c 1.05,1.532 1.981,2.199 2.816,2.199 0.358,0 0.597,-0.049 0.836,-0.197 l 1.145,2.569"
       id="path94"
       style="fill:#21467b;fill-opacity:1;fill-rule:nonzero;stroke:none" /><path
       d="m 363.395,16.173 c 0,1.581 -0.955,2.52 -2.339,2.52 -1.265,0 -2.721,-0.618 -4.177,-2.224 -0.072,1.458 -0.812,2.199 -2.148,2.199 -1.289,0 -2.721,-0.642 -4.129,-2.199 0.143,0.791 0.047,1.754 -0.191,2.322 l -2.435,-1.037 c 0.215,-0.791 0.239,-1.828 -0.024,-3.138 l -1.79,-8.721 2.53,0 1.671,8.153 c 1.098,1.482 2.315,2.322 3.174,2.322 0.645,0 0.86,-0.296 0.86,-0.84 0,-0.271 -0.096,-0.79 -0.215,-1.334 l -1.695,-8.301 2.53,0 1.695,8.178 c 0.954,1.358 2.172,2.297 3.055,2.297 0.668,0 0.955,-0.271 0.955,-0.889 0,-0.297 -0.048,-0.692 -0.144,-1.137 l -1.742,-8.449 2.578,0 1.79,8.721 c 0.096,0.519 0.191,1.112 0.191,1.557"
       id="path96"
       style="fill:#21467b;fill-opacity:1;fill-rule:nonzero;stroke:none" /><path
       d="m 376.158,17.754 c -0.955,0.642 -2.363,0.939 -3.747,0.939 -1.933,0 -3.509,-0.667 -4.798,-2.026 -1.551,-1.656 -2.554,-4.324 -2.554,-7.091 0,-2.668 1.265,-3.978 3.151,-3.978 1.552,0 2.769,0.717 3.628,1.927 0,-0.815 0.263,-1.507 0.907,-2.05 l 2.148,1.655 c -0.597,0.667 -0.74,1.309 -0.429,2.817 l 0.978,4.941 c 0.167,0.889 0.501,2.174 0.716,2.866 z m -2.936,-1.458 -1.289,-6.127 c -0.548,-1.26 -1.766,-2.396 -2.864,-2.396 -0.883,0 -1.313,0.518 -1.313,1.877 0,1.754 0.502,4.176 1.576,5.51 0.931,1.136 1.695,1.383 2.769,1.383 0.405,0 0.883,-0.099 1.121,-0.247"
       id="path98"
       style="fill:#21467b;fill-opacity:1;fill-rule:evenodd;stroke:none" /><path
       d="m 385.322,18.396 -2.889,0 c 0.239,1.186 0.645,2.644 0.979,3.706 l -2.792,-0.667 c -0.311,-0.939 -0.549,-1.902 -0.788,-3.039 l -1.361,0 -0.381,-1.927 1.36,0 -1.456,-7.115 c -0.119,-0.618 -0.167,-1.26 -0.167,-1.705 0,-1.26 0.907,-2.1 2.53,-2.1 0.835,0 1.671,0.173 2.506,0.519 l 0,1.68 c -0.382,-0.173 -0.835,-0.247 -1.217,-0.247 -0.764,0 -1.122,0.247 -1.122,1.037 0,0.322 0.048,0.741 0.143,1.211 l 1.361,6.72 2.315,0 0.979,1.927"
       id="path100"
       style="fill:#21467b;fill-opacity:1;fill-rule:nonzero;stroke:none" /><path
       d="m 391.569,22.028 c 0,0.988 -0.764,1.803 -1.719,1.803 -0.978,0 -1.766,-0.815 -1.766,-1.828 0,-0.988 0.788,-1.803 1.742,-1.803 0.979,0 1.743,0.815 1.743,1.828 z m -1.122,-3.36 -2.745,-0.42 -2.53,-12.353 2.673,0 2.602,12.773"
       id="path102"
       style="fill:#21467b;fill-opacity:1;fill-rule:evenodd;stroke:none" /><path
       d="m 402.852,14.295 c 0,2.742 -1.503,4.398 -4.272,4.398 -4.01,0 -6.85,-3.805 -6.85,-8.623 0,-2.866 1.528,-4.472 4.201,-4.472 4.439,0 6.921,4.126 6.921,8.697 z m -2.84,0.099 c 0,-3.039 -1.265,-6.745 -3.604,-6.745 -1.169,0 -1.862,0.667 -1.862,2.174 0,2.841 1.241,6.794 3.628,6.794 1.074,0 1.838,-0.543 1.838,-2.223"
       id="path104"
       style="fill:#21467b;fill-opacity:1;fill-rule:evenodd;stroke:none" /><path
       d="m 415.59,16.197 c 0,1.507 -0.907,2.471 -2.411,2.471 -1.671,0 -3.198,-0.791 -4.344,-2.224 0.167,0.865 0.024,1.779 -0.214,2.347 l -2.435,-1.037 c 0.262,-0.914 0.239,-1.754 -0.048,-3.212 l -1.766,-8.647 2.578,0 1.671,8.153 c 1.264,1.705 2.458,2.322 3.317,2.322 0.645,0 0.955,-0.271 0.955,-0.988 0,-0.272 -0.048,-0.667 -0.167,-1.211 l -1.695,-8.276 2.602,0 1.838,8.944 c 0.095,0.42 0.119,0.938 0.119,1.358"
       id="path106"
       style="fill:#21467b;fill-opacity:1;fill-rule:nonzero;stroke:none" /><path
       d="m 427.442,17.754 c -0.955,0.617 -2.339,1.062 -3.771,1.062 -3.533,0 -5.275,-2.075 -5.275,-4.249 0,-1.557 0.835,-2.422 2.268,-2.99 l 1.384,-0.543 c 1.098,-0.445 1.527,-0.84 1.527,-1.631 0,-1.038 -1.002,-1.803 -2.315,-1.803 -1.36,0 -2.768,0.518 -3.771,1.235 l -1.05,-2.001 c 1.241,-0.816 2.792,-1.31 4.463,-1.31 3.557,0 5.585,2.1 5.585,4.67 0,1.482 -0.978,2.372 -2.458,2.964 l -1.432,0.569 c -0.955,0.37 -1.289,0.79 -1.289,1.457 0,1.038 0.931,1.532 2.196,1.532 0.955,0 1.885,-0.272 2.888,-0.865 l 1.05,1.903"
       id="path108"
       style="fill:#21467b;fill-opacity:1;fill-rule:nonzero;stroke:none" /><path
       d="m 440.305,17.754 c -1.313,0.692 -2.507,0.963 -4.464,0.963 -1.789,0 -3.293,-0.691 -4.511,-1.828 -1.67,-1.556 -2.697,-4.447 -2.697,-7.016 0,-2.817 1.17,-4.25 3.557,-4.25 1.288,0 2.386,0.445 3.317,1.507 -0.071,-0.222 -0.358,-1.556 -0.429,-1.828 -0.454,-1.754 -1.48,-2.545 -3.509,-2.545 -1.384,0 -2.506,0.297 -3.533,0.939 l -0.907,-1.927 c 1.265,-0.741 2.674,-1.112 4.225,-1.112 3.127,0 5.585,1.137 6.349,4.645 0.215,0.939 0.382,2.347 0.788,4.249 l 1.265,6.103 c 0.167,0.79 0.477,1.877 0.549,2.1 z m -3.055,-1.606 -1.289,-6.152 c -0.74,-1.334 -1.909,-2.223 -2.984,-2.223 -1.002,0 -1.575,0.716 -1.575,2.174 0,1.68 0.74,4.2 1.742,5.386 0.621,0.741 1.647,1.161 2.483,1.161 0.692,0 1.241,-0.099 1.623,-0.346"
       id="path110"
       style="fill:#21467b;fill-opacity:1;fill-rule:evenodd;stroke:none" /><path
       d="m 452.476,15.357 c 0,2.224 -1.48,3.336 -3.819,3.336 -1.551,0 -2.888,-0.519 -4.081,-1.705 -1.647,-1.655 -2.697,-4.348 -2.697,-6.844 0,-2.965 1.718,-4.57 4.296,-4.57 2.029,0 3.461,0.568 4.917,1.778 l -0.811,1.68 c -1.122,-0.914 -2.149,-1.358 -3.414,-1.358 -1.313,0 -2.196,0.741 -2.196,2.297 0,0.396 0.096,1.063 0.143,1.31 0.215,0 0.788,-0.099 1.456,-0.099 2.483,0 4.13,0.568 5.132,1.581 0.692,0.692 1.074,1.581 1.074,2.594 z m -2.649,-0.173 c 0,-0.518 -0.191,-0.914 -0.501,-1.235 -0.573,-0.593 -1.576,-0.815 -3.032,-0.815 -0.405,0 -0.907,0.074 -1.05,0.074 0.525,2.347 1.719,3.459 3.079,3.459 1.098,0 1.504,-0.643 1.504,-1.483"
       id="path112"
       style="fill:#21467b;fill-opacity:1;fill-rule:evenodd;stroke:none" /><path
       d="m 463.858,17.754 c -0.955,0.617 -2.34,1.062 -3.772,1.062 -3.532,0 -5.274,-2.075 -5.274,-4.249 0,-1.557 0.835,-2.422 2.267,-2.99 l 1.384,-0.543 c 1.098,-0.445 1.528,-0.84 1.528,-1.631 0,-1.038 -1.002,-1.803 -2.315,-1.803 -1.361,0 -2.769,0.518 -3.771,1.235 l -1.051,-2.001 c 1.242,-0.816 2.793,-1.31 4.464,-1.31 3.556,0 5.585,2.1 5.585,4.67 0,1.482 -0.979,2.372 -2.459,2.964 l -1.432,0.569 c -0.954,0.37 -1.288,0.79 -1.288,1.457 0,1.038 0.93,1.532 2.195,1.532 0.955,0 1.886,-0.272 2.888,-0.865 l 1.051,1.903"
       id="path114"
       style="fill:#21467b;fill-opacity:1;fill-rule:nonzero;stroke:none" /><path
       d="m 475.646,15.357 c 0,2.224 -1.48,3.336 -3.819,3.336 -1.551,0 -2.888,-0.519 -4.081,-1.705 -1.647,-1.655 -2.697,-4.348 -2.697,-6.844 0,-2.965 1.718,-4.57 4.296,-4.57 2.029,0 3.461,0.568 4.917,1.778 l -0.812,1.68 c -1.122,-0.914 -2.148,-1.358 -3.413,-1.358 -1.313,0 -2.195,0.741 -2.195,2.297 0,0.396 0.095,1.063 0.143,1.31 0.214,0 0.787,-0.099 1.456,-0.099 2.482,0 4.129,0.568 5.131,1.581 0.692,0.692 1.074,1.581 1.074,2.594 z m -2.649,-0.173 c 0,-0.518 -0.191,-0.914 -0.501,-1.235 -0.573,-0.593 -1.576,-0.815 -3.031,-0.815 -0.406,0 -0.907,0.074 -1.051,0.074 0.525,2.347 1.719,3.459 3.079,3.459 1.098,0 1.504,-0.643 1.504,-1.483"
       id="path116"
       style="fill:#21467b;fill-opacity:1;fill-rule:evenodd;stroke:none" /><path
       d="m 482.588,24.227 -2.768,-0.939 c 0.238,-0.815 0.143,-2.026 -0.191,-3.681 L 477.504,9.304 c -0.143,-0.691 -0.238,-1.383 -0.238,-1.754 0,-1.161 0.716,-1.927 2.1,-1.927 0.621,0 1.217,0.099 1.766,0.321 L 480.989,7.6 c -0.119,-0.05 -0.262,-0.05 -0.406,-0.05 -0.381,0 -0.573,0.223 -0.573,0.667 0,0.297 0.072,0.766 0.287,1.754 l 2.077,10.08 c 0.334,1.557 0.405,3.41 0.214,4.176"
       id="path118"
       style="fill:#21467b;fill-opacity:1;fill-rule:nonzero;stroke:none" /><path
       d="m 489.312,24.227 -2.769,-0.939 c 0.239,-0.815 0.143,-2.026 -0.191,-3.681 L 484.228,9.304 c -0.143,-0.691 -0.239,-1.383 -0.239,-1.754 0,-1.161 0.716,-1.927 2.101,-1.927 0.62,0 1.217,0.099 1.766,0.321 L 487.713,7.6 c -0.12,-0.05 -0.263,-0.05 -0.406,-0.05 -0.382,0 -0.573,0.223 -0.573,0.667 0,0.297 0.072,0.766 0.287,1.754 l 2.076,10.08 c 0.334,1.557 0.406,3.41 0.215,4.176"
       id="path120"
       style="fill:#21467b;fill-opacity:1;fill-rule:nonzero;stroke:none" /><path
       d="m 500.475,17.754 c -0.955,0.617 -2.339,1.062 -3.772,1.062 -3.532,0 -5.274,-2.075 -5.274,-4.249 0,-1.557 0.835,-2.422 2.267,-2.99 l 1.384,-0.543 c 1.098,-0.445 1.528,-0.84 1.528,-1.631 0,-1.038 -1.002,-1.803 -2.315,-1.803 -1.361,0 -2.769,0.518 -3.771,1.235 l -1.051,-2.001 c 1.242,-0.816 2.793,-1.31 4.464,-1.31 3.556,0 5.585,2.1 5.585,4.67 0,1.482 -0.979,2.372 -2.459,2.964 l -1.432,0.569 c -0.954,0.37 -1.289,0.79 -1.289,1.457 0,1.038 0.931,1.532 2.197,1.532 0.954,0 1.885,-0.272 2.888,-0.865 l 1.05,1.903"
       id="path122"
       style="fill:#21467b;fill-opacity:1;fill-rule:nonzero;stroke:none" /><path
       d="m 511.595,17.433 c -0.835,0.889 -1.933,1.309 -3.079,1.309 -1.527,0 -2.721,-0.494 -3.819,-1.458 -1.647,-1.433 -3.079,-4.422 -3.079,-7.411 0,-2.718 1.36,-4.275 4.058,-4.275 1.647,0 2.936,0.544 4.272,1.656 l -0.955,1.705 c -0.883,-0.816 -1.838,-1.31 -2.745,-1.31 -1.145,0 -1.79,0.741 -1.79,2.224 0,1.927 0.812,4.545 1.671,5.633 0.525,0.642 1.241,1.013 1.957,1.013 0.716,0 1.457,-0.272 2.077,-0.915 l 1.432,1.829"
       id="path124"
       style="fill:#21467b;fill-opacity:1;fill-rule:nonzero;stroke:none" /><path
       d="m 523.473,16.271 c 0,1.458 -0.931,2.446 -2.697,2.446 -1.456,0 -3.127,-0.766 -4.273,-2.174 0.143,0.445 0.382,1.433 0.478,1.878 l 0.358,1.729 c 0.334,1.581 0.429,3.311 0.191,4.077 l -2.674,-0.939 c 0.191,-0.791 0.167,-1.853 -0.214,-3.657 l -2.817,-13.736 2.602,0 1.671,8.153 c 1.026,1.359 2.553,2.372 3.532,2.372 0.716,0 1.098,-0.346 1.122,-1.063 0,-0.247 -0.072,-0.642 -0.143,-1.037 l -1.719,-8.425 2.578,0 1.814,8.845 c 0.143,0.667 0.191,1.136 0.191,1.531"
       id="path126"
       style="fill:#21467b;fill-opacity:1;fill-rule:nonzero;stroke:none" /><path
       d="m 536.115,17.754 c -0.954,0.642 -2.363,0.939 -3.747,0.939 -1.933,0 -3.509,-0.667 -4.798,-2.026 -1.551,-1.656 -2.554,-4.324 -2.554,-7.091 0,-2.668 1.265,-3.978 3.151,-3.978 1.551,0 2.769,0.717 3.628,1.927 0,-0.815 0.262,-1.507 0.907,-2.05 l 2.148,1.655 c -0.596,0.667 -0.74,1.309 -0.429,2.817 l 0.978,4.941 c 0.167,0.889 0.501,2.174 0.716,2.866 z m -2.936,-1.458 -1.288,-6.127 c -0.549,-1.26 -1.767,-2.396 -2.865,-2.396 -0.883,0 -1.312,0.518 -1.312,1.877 0,1.754 0.501,4.176 1.575,5.51 0.931,1.136 1.695,1.383 2.768,1.383 0.406,0 0.884,-0.099 1.122,-0.247"
       id="path128"
       style="fill:#21467b;fill-opacity:1;fill-rule:evenodd;stroke:none" /><path
       d="m 547.332,23.313 c -0.621,0.42 -1.528,0.716 -2.554,0.716 -0.931,0 -1.743,-0.173 -2.411,-0.593 -1.027,-0.642 -1.79,-1.68 -2.077,-3.335 l -0.286,-1.705 -1.146,0 -0.382,-1.927 1.194,0 -2.029,-10.648 c -0.31,-1.606 -1.026,-3.014 -1.718,-3.879 l 1.766,-1.408 c 1.098,1.161 2.1,2.89 2.53,5.213 l 2.028,10.722 2.411,0 1.098,1.927 -3.174,0 0.334,1.853 c 0.191,1.112 0.907,1.754 1.838,1.754 0.501,0 1.002,-0.173 1.48,-0.469 l 1.098,1.779"
       id="path130"
       style="fill:#21467b;fill-opacity:1;fill-rule:nonzero;stroke:none" /><path
       d="m 552.479,18.396 -2.889,0 c 0.239,1.186 0.645,2.644 0.979,3.706 l -2.792,-0.667 c -0.311,-0.939 -0.55,-1.902 -0.788,-3.039 l -1.361,0 -0.382,-1.927 1.361,0 -1.456,-7.115 c -0.119,-0.618 -0.167,-1.26 -0.167,-1.705 0,-1.26 0.907,-2.1 2.53,-2.1 0.835,0 1.671,0.173 2.506,0.519 l 0,1.68 c -0.382,-0.173 -0.835,-0.247 -1.217,-0.247 -0.764,0 -1.122,0.247 -1.122,1.037 0,0.322 0.048,0.741 0.143,1.211 l 1.361,6.72 2.315,0 0.979,1.927"
       id="path132"
       style="fill:#21467b;fill-opacity:1;fill-rule:nonzero;stroke:none" /><path
       d="m 63.339,145.615 -16.929,-13.267 0,-61.569 36.923,-34.262 -19.994,46.174 0,62.924"
       id="path134"
       style="fill:#21467b;fill-opacity:1;fill-rule:nonzero;stroke:none" /><path
       d="m 85.511,99.274 -15.64,12.566 0,-24.478 15.64,-50.108 0,62.02"
       id="path136"
       style="fill:#21467b;fill-opacity:1;fill-rule:nonzero;stroke:none" /><path
       d="m 39.878,112.495 -16.33,-13.221 0,-46.994 58.298,-17.273 -41.968,30.493 0,46.995"
       id="path138"
       style="fill:#21467b;fill-opacity:1;fill-rule:nonzero;stroke:none" /><path
       d="m 81.421,33.08 -81.333,0 0,33.074 16.974,13.267 0,-33.12 64.359,-13.221"
       id="path140"
       style="fill:#21467b;fill-opacity:1;fill-rule:nonzero;stroke:none" /></g></svg>